ForkAwesome.ufo
<glyph name="glass" format="1">
  <advance width="1792"/>
  <unicode hex="F000"/>
  <outline>
    <contour>
      <point x="1699" y="1350" type="curve" smooth="yes"/>
      <point x="1699" y="1321"/>
      <point x="1676" y="1292"/>
      <point x="1656" y="1272" type="curve" smooth="yes"/>
      <point x="1024" y="640" type="line"/>
      <point x="1024" y="-128" type="line"/>
      <point x="1344" y="-128" type="line" smooth="yes"/>
      <point x="1379" y="-128"/>
      <point x="1408" y="-157"/>
      <point x="1408" y="-192" type="curve" smooth="yes"/>
      <point x="1408" y="-227"/>
      <point x="1379" y="-256"/>
      <point x="1344" y="-256" type="curve" smooth="yes"/>
      <point x="448" y="-256" type="line" smooth="yes"/>
      <point x="413" y="-256"/>
      <point x="384" y="-227"/>
      <point x="384" y="-192" type="curve" smooth="yes"/>
      <point x="384" y="-157"/>
      <point x="413" y="-128"/>
      <point x="448" y="-128" type="curve" smooth="yes"/>
      <point x="768" y="-128" type="line"/>
      <point x="768" y="640" type="line"/>
      <point x="136" y="1272" type="line" smooth="yes"/>
      <point x="116" y="1292"/>
      <point x="93" y="1321"/>
      <point x="93" y="1350" type="curve" smooth="yes"/>
      <point x="93" y="1399"/>
      <point x="155" y="1408"/>
      <point x="192" y="1408" type="curve" smooth="yes"/>
      <point x="1600" y="1408" type="line" smooth="yes"/>
      <point x="1637" y="1408"/>
      <point x="1699" y="1399"/>
    </contour>
  </outline>
</glyph>
<glyph name="music" format="1">
  <advance width="1536"/>
  <unicode hex="F001"/>
  <outline>
    <contour>
      <point x="1536" y="1312" type="curve" smooth="yes"/>
      <point x="1536" y="192" type="line" smooth="yes"/>
      <point x="1536" y="51"/>
      <point x="1325" y="0"/>
      <point x="1216" y="0" type="curve" smooth="yes"/>
      <point x="1107" y="0"/>
      <point x="896" y="51"/>
      <point x="896" y="192" type="curve" smooth="yes"/>
      <point x="896" y="333"/>
      <point x="1107" y="384"/>
      <point x="1216" y="384" type="curve" smooth="yes"/>
      <point x="1282" y="384"/>
      <point x="1348" y="372"/>
      <point x="1408" y="345" type="curve"/>
      <point x="1408" y="882" type="line"/>
      <point x="640" y="645" type="line"/>
      <point x="640" y="-64" type="line" smooth="yes"/>
      <point x="640" y="-205"/>
      <point x="429" y="-256"/>
      <point x="320" y="-256" type="curve" smooth="yes"/>
      <point x="211" y="-256"/>
      <point x="0" y="-205"/>
      <point x="0" y="-64" type="curve" smooth="yes"/>
      <point x="0" y="77"/>
      <point x="211" y="128"/>
      <point x="320" y="128" type="curve" smooth="yes"/>
      <point x="386" y="128"/>
      <point x="452" y="116"/>
      <point x="512" y="89" type="curve"/>
      <point x="512" y="1056" type="line" smooth="yes"/>
      <point x="512" y="1098"/>
      <point x="540" y="1135"/>
      <point x="580" y="1148" type="curve" smooth="yes"/>
      <point x="1412" y="1404" type="line" smooth="yes"/>
      <point x="1421" y="1407"/>
      <point x="1430" y="1408"/>
      <point x="1440" y="1408" type="curve" smooth="yes"/>
      <point x="1493" y="1408"/>
      <point x="1536" y="1365"/>
    </contour>
  </outline>
</glyph>
<glyph name="heart" format="1">
  <advance width="1792"/>
  <unicode hex="F004"/>
  <outline>
    <contour>
      <point x="896" y="-128" type="curve" smooth="yes"/>
      <point x="880" y="-128"/>
      <point x="864" y="-122"/>
      <point x="852" y="-110" type="curve" smooth="yes"/>
      <point x="228" y="492" type="line" smooth="yes"/>
      <point x="220" y="499"/>
      <point x="0" y="700"/>
      <point x="0" y="940" type="curve" smooth="yes"/>
      <point x="0" y="1233"/>
      <point x="179" y="1408"/>
      <point x="478" y="1408" type="curve" smooth="yes"/>
      <point x="653" y="1408"/>
      <point x="817" y="1270"/>
      <point x="896" y="1192" type="curve"/>
      <point x="975" y="1270"/>
      <point x="1139" y="1408"/>
      <point x="1314" y="1408" type="curve" smooth="yes"/>
      <point x="1613" y="1408"/>
      <point x="1792" y="1233"/>
      <point x="1792" y="940" type="curve" smooth="yes"/>
      <point x="1792" y="700"/>
      <point x="1572" y="499"/>
      <point x="1563" y="490" type="curve" smooth="yes"/>
      <point x="940" y="-110" type="line" smooth="yes"/>
      <point x="928" y="-122"/>
      <point x="912" y="-128"/>
    </contour>
  </outline>
</glyph>
<glyph name="user" format="1">
  <advance width="1280"/>
  <unicode hex="F007"/>
  <outline>
    <contour>
      <point x="1280" y="137" type="curve" smooth="yes"/>
      <point x="1280" y="-9"/>
      <point x="1184" y="-128"/>
      <point x="1067" y="-128" type="curve" smooth="yes"/>
      <point x="213" y="-128" type="line" smooth="yes"/>
      <point x="96" y="-128"/>
      <point x="0" y="-9"/>
      <point x="0" y="137" type="curve" smooth="yes"/>
      <point x="0" y="400"/>
      <point x="65" y="704"/>
      <point x="327" y="704" type="curve"/>
      <point x="408" y="625"/>
      <point x="518" y="576"/>
      <point x="640" y="576" type="curve" smooth="yes"/>
      <point x="762" y="576"/>
      <point x="872" y="625"/>
      <point x="953" y="704" type="curve"/>
      <point x="1215" y="704"/>
      <point x="1280" y="400"/>
    </contour>
    <contour>
      <point x="1024" y="1024" type="curve" smooth="yes"/>
      <point x="1024" y="812"/>
      <point x="852" y="640"/>
      <point x="640" y="640" type="curve" smooth="yes"/>
      <point x="428" y="640"/>
      <point x="256" y="812"/>
      <point x="256" y="1024" type="curve" smooth="yes"/>
      <point x="256" y="1236"/>
      <point x="428" y="1408"/>
      <point x="640" y="1408" type="curve" smooth="yes"/>
      <point x="852" y="1408"/>
      <point x="1024" y="1236"/>
    </contour>
  </outline>
</glyph>
<glyph name="th_large" format="1">
  <advance width="1664"/>
  <unicode hex="F009"/>
  <outline>
    <contour>
      <point x="768" y="512" type="curve" smooth="yes"/>
      <point x="768" y="128" type="line" smooth="yes"/>
      <point x="768" y="58"/>
      <point x="710" y="0"/>
      <point x="640" y="0" type="curve" smooth="yes"/>
      <point x="128" y="0" type="line" smooth="yes"/>
      <point x="58" y="0"/>
      <point x="0" y="58"/>
      <point x="0" y="128" type="curve" smooth="yes"/>
      <point x="0" y="512" type="line" smooth="yes"/>
      <point x="0" y="582"/>
      <point x="58" y="640"/>
      <point x="128" y="640" type="curve" smooth="yes"/>
      <point x="640" y="640" type="line" smooth="yes"/>
      <point x="710" y="640"/>
      <point x="768" y="582"/>
    </contour>
    <contour>
      <point x="768" y="1280" type="curve" smooth="yes"/>
      <point x="768" y="896" type="line" smooth="yes"/>
      <point x="768" y="826"/>
      <point x="710" y="768"/>
      <point x="640" y="768" type="curve" smooth="yes"/>
      <point x="128" y="768" type="line" smooth="yes"/>
      <point x="58" y="768"/>
      <point x="0" y="826"/>
      <point x="0" y="896" type="curve" smooth="yes"/>
      <point x="0" y="1280" type="line" smooth="yes"/>
      <point x="0" y="1350"/>
      <point x="58" y="1408"/>
      <point x="128" y="1408" type="curve" smooth="yes"/>
      <point x="640" y="1408" type="line" smooth="yes"/>
      <point x="710" y="1408"/>
      <point x="768" y="1350"/>
    </contour>
    <contour>
      <point x="1664" y="512" type="curve" smooth="yes"/>
      <point x="1664" y="128" type="line" smooth="yes"/>
      <point x="1664" y="58"/>
      <point x="1606" y="0"/>
      <point x="1536" y="0" type="curve" smooth="yes"/>
      <point x="1024" y="0" type="line" smooth="yes"/>
      <point x="954" y="0"/>
      <point x="896" y="58"/>
      <point x="896" y="128" type="curve" smooth="yes"/>
      <point x="896" y="512" type="line" smooth="yes"/>
      <point x="896" y="582"/>
      <point x="954" y="640"/>
      <point x="1024" y="640" type="curve" smooth="yes"/>
      <point x="1536" y="640" type="line" smooth="yes"/>
      <point x="1606" y="640"/>
      <point x="1664" y="582"/>
    </contour>
    <contour>
      <point x="1664" y="1280" type="curve" smooth="yes"/>
      <point x="1664" y="896" type="line" smooth="yes"/>
      <point x="1664" y="826"/>
      <point x="1606" y="768"/>
      <point x="1536" y="768" type="curve" smooth="yes"/>
      <point x="1024" y="768" type="line" smooth="yes"/>
      <point x="954" y="768"/>
      <point x="896" y="826"/>
      <point x="896" y="896" type="curve" smooth="yes"/>
      <point x="896" y="1280" type="line" smooth="yes"/>
      <point x="896" y="1350"/>
      <point x="954" y="1408"/>
      <point x="1024" y="1408" type="curve" smooth="yes"/>
      <point x="1536" y="1408" type="line" smooth="yes"/>
      <point x="1606" y="1408"/>
      <point x="1664" y="1350"/>
    </contour>
  </outline>
</glyph>
<glyph name="check" format="1">
  <advance width="1792"/>
  <unicode hex="F00C"/>
  <outline>
    <contour>
      <point x="1671" y="970" type="curve" smooth="yes"/>
      <point x="1671" y="945"/>
      <point x="1661" y="920"/>
      <point x="1643" y="902" type="curve" smooth="yes"/>
      <point x="919" y="178" type="line"/>
      <point x="783" y="42" type="line" smooth="yes"/>
      <point x="765" y="24"/>
      <point x="740" y="14"/>
      <point x="715" y="14" type="curve" smooth="yes"/>
      <point x="690" y="14"/>
      <point x="665" y="24"/>
      <point x="647" y="42" type="curve" smooth="yes"/>
      <point x="511" y="178" type="line"/>
      <point x="149" y="540" type="line" smooth="yes"/>
      <point x="131" y="558"/>
      <point x="121" y="583"/>
      <point x="121" y="608" type="curve" smooth="yes"/>
      <point x="121" y="633"/>
      <point x="131" y="658"/>
      <point x="149" y="676" type="curve" smooth="yes"/>
      <point x="285" y="812" type="line" smooth="yes"/>
      <point x="303" y="830"/>
      <point x="328" y="840"/>
      <point x="353" y="840" type="curve" smooth="yes"/>
      <point x="378" y="840"/>
      <point x="403" y="830"/>
      <point x="421" y="812" type="curve" smooth="yes"/>
      <point x="715" y="517" type="line"/>
      <point x="1371" y="1174" type="line" smooth="yes"/>
      <point x="1389" y="1192"/>
      <point x="1414" y="1202"/>
      <point x="1439" y="1202" type="curve" smooth="yes"/>
      <point x="1464" y="1202"/>
      <point x="1489" y="1192"/>
      <point x="1507" y="1174" type="curve" smooth="yes"/>
      <point x="1643" y="1038" type="line" smooth="yes"/>
      <point x="1661" y="1020"/>
      <point x="1671" y="995"/>
    </contour>
  </outline>
</glyph>
<glyph name="trash_o" format="1">
  <advance width="1408"/>
  <unicode hex="F014"/>
  <outline>
    <contour>
      <point x="512" y="800" type="curve" smooth="yes"/>
      <point x="512" y="224" type="line" smooth="yes"/>
      <point x="512" y="206"/>
      <point x="498" y="192"/>
      <point x="480" y="192" type="curve" smooth="yes"/>
      <point x="416" y="192" type="line" smooth="yes"/>
      <point x="398" y="192"/>
      <point x="384" y="206"/>
      <point x="384" y="224" type="curve" smooth="yes"/>
      <point x="384" y="800" type="line" smooth="yes"/>
      <point x="384" y="818"/>
      <point x="398" y="832"/>
      <point x="416" y="832" type="curve" smooth="yes"/>
      <point x="480" y="832" type="line" smooth="yes"/>
      <point x="498" y="832"/>
      <point x="512" y="818"/>
    </contour>
    <contour>
      <point x="768" y="800" type="curve" smooth="yes"/>
      <point x="768" y="224" type="line" smooth="yes"/>
      <point x="768" y="206"/>
      <point x="754" y="192"/>
      <point x="736" y="192" type="curve" smooth="yes"/>
      <point x="672" y="192" type="line" smooth="yes"/>
      <point x="654" y="192"/>
      <point x="640" y="206"/>
      <point x="640" y="224" type="curve" smooth="yes"/>
      <point x="640" y="800" type="line" smooth="yes"/>
      <point x="640" y="818"/>
      <point x="654" y="832"/>
      <point x="672" y="832" type="curve" smooth="yes"/>
      <point x="736" y="832" type="line" smooth="yes"/>
      <point x="754" y="832"/>
      <point x="768" y="818"/>
    </contour>
    <contour>
      <point x="1024" y="800" type="curve" smooth="yes"/>
      <point x="1024" y="224" type="line" smooth="yes"/>
      <point x="1024" y="206"/>
      <point x="1010" y="192"/>
      <point x="992" y="192" type="curve" smooth="yes"/>
      <point x="928" y="192" type="line" smooth="yes"/>
      <point x="910" y="192"/>
      <point x="896" y="206"/>
      <point x="896" y="224" type="curve" smooth="yes"/>
      <point x="896" y="800" type="line" smooth="yes"/>
      <point x="896" y="818"/>
      <point x="910" y="832"/>
      <point x="928" y="832" type="curve" smooth="yes"/>
      <point x="992" y="832" type="line" smooth="yes"/>
      <point x="1010" y="832"/>
      <point x="1024" y="818"/>
    </contour>
    <contour>
      <point x="1152" y="76" type="curve" smooth="yes"/>
      <point x="1152" y="1024" type="line"/>
      <point x="256" y="1024" type="line"/>
      <point x="256" y="76" type="line" smooth="yes"/>
      <point x="256" y="28"/>
      <point x="283" y="0"/>
      <point x="288" y="0" type="curve" smooth="yes"/>
      <point x="1120" y="0" type="line" smooth="yes"/>
      <point x="1125" y="0"/>
      <point x="1152" y="28"/>
    </contour>
    <contour>
      <point x="480" y="1152" type="line"/>
      <point x="928" y="1152" type="line"/>
      <point x="880" y="1269" type="line" smooth="yes"/>
      <point x="877" y="1273"/>
      <point x="868" y="1279"/>
      <point x="863" y="1280" type="curve" smooth="yes"/>
      <point x="546" y="1280" type="line" smooth="yes"/>
      <point x="540" y="1279"/>
      <point x="532" y="1273"/>
      <point x="529" y="1269" type="curve" smooth="yes"/>
    </contour>
    <contour>
      <point x="1408" y="1120" type="curve" smooth="yes"/>
      <point x="1408" y="1056" type="line" smooth="yes"/>
      <point x="1408" y="1038"/>
      <point x="1394" y="1024"/>
      <point x="1376" y="1024" type="curve" smooth="yes"/>
      <point x="1280" y="1024" type="line"/>
      <point x="1280" y="76" type="line" smooth="yes"/>
      <point x="1280" y="-34"/>
      <point x="1208" y="-128"/>
      <point x="1120" y="-128" type="curve" smooth="yes"/>
      <point x="288" y="-128" type="line" smooth="yes"/>
      <point x="200" y="-128"/>
      <point x="128" y="-38"/>
      <point x="128" y="72" type="curve" smooth="yes"/>
      <point x="128" y="1024" type="line"/>
      <point x="32" y="1024" type="line" smooth="yes"/>
      <point x="14" y="1024"/>
      <point x="0" y="1038"/>
      <point x="0" y="1056" type="curve" smooth="yes"/>
      <point x="0" y="1120" type="line" smooth="yes"/>
      <point x="0" y="1138"/>
      <point x="14" y="1152"/>
      <point x="32" y="1152" type="curve" smooth="yes"/>
      <point x="341" y="1152" type="line"/>
      <point x="411" y="1319" type="line" smooth="yes"/>
      <point x="431" y="1368"/>
      <point x="491" y="1408"/>
      <point x="544" y="1408" type="curve" smooth="yes"/>
      <point x="864" y="1408" type="line" smooth="yes"/>
      <point x="917" y="1408"/>
      <point x="977" y="1368"/>
      <point x="997" y="1319" type="curve" smooth="yes"/>
      <point x="1067" y="1152" type="line"/>
      <point x="1376" y="1152" type="line" smooth="yes"/>
      <point x="1394" y="1152"/>
      <point x="1408" y="1138"/>
    </contour>
  </outline>
</glyph>
<glyph name="download" format="1">
  <advance width="1664"/>
  <unicode hex="F019"/>
  <outline>
    <contour>
      <point x="1280" y="192" type="curve" smooth="yes"/>
      <point x="1280" y="227"/>
      <point x="1251" y="256"/>
      <point x="1216" y="256" type="curve" smooth="yes"/>
      <point x="1181" y="256"/>
      <point x="1152" y="227"/>
      <point x="1152" y="192" type="curve" smooth="yes"/>
      <point x="1152" y="157"/>
      <point x="1181" y="128"/>
      <point x="1216" y="128" type="curve" smooth="yes"/>
      <point x="1251" y="128"/>
      <point x="1280" y="157"/>
    </contour>
    <contour>
      <point x="1536" y="192" type="curve" smooth="yes"/>
      <point x="1536" y="227"/>
      <point x="1507" y="256"/>
      <point x="1472" y="256" type="curve" smooth="yes"/>
      <point x="1437" y="256"/>
      <point x="1408" y="227"/>
      <point x="1408" y="192" type="curve" smooth="yes"/>
      <point x="1408" y="157"/>
      <point x="1437" y="128"/>
      <point x="1472" y="128" type="curve" smooth="yes"/>
      <point x="1507" y="128"/>
      <point x="1536" y="157"/>
    </contour>
    <contour>
      <point x="1664" y="416" type="curve" smooth="yes"/>
      <point x="1664" y="96" type="line" smooth="yes"/>
      <point x="1664" y="43"/>
      <point x="1621" y="0"/>
      <point x="1568" y="0" type="curve" smooth="yes"/>
      <point x="96" y="0" type="line" smooth="yes"/>
      <point x="43" y="0"/>
      <point x="0" y="43"/>
      <point x="0" y="96" type="curve" smooth="yes"/>
      <point x="0" y="416" type="line" smooth="yes"/>
      <point x="0" y="469"/>
      <point x="43" y="512"/>
      <point x="96" y="512" type="curve" smooth="yes"/>
      <point x="561" y="512" type="line"/>
      <point x="696" y="376" type="line" smooth="yes"/>
      <point x="733" y="340"/>
      <point x="781" y="320"/>
      <point x="832" y="320" type="curve" smooth="yes"/>
      <point x="883" y="320"/>
      <point x="931" y="340"/>
      <point x="968" y="376" type="curve" smooth="yes"/>
      <point x="1104" y="512" type="line"/>
      <point x="1568" y="512" type="line" smooth="yes"/>
      <point x="1621" y="512"/>
      <point x="1664" y="469"/>
    </contour>
    <contour>
      <point x="1339" y="985" type="curve" smooth="yes"/>
      <point x="1349" y="961"/>
      <point x="1344" y="933"/>
      <point x="1325" y="915" type="curve" smooth="yes"/>
      <point x="877" y="467" type="line" smooth="yes"/>
      <point x="865" y="454"/>
      <point x="848" y="448"/>
      <point x="832" y="448" type="curve" smooth="yes"/>
      <point x="816" y="448"/>
      <point x="799" y="454"/>
      <point x="787" y="467" type="curve" smooth="yes"/>
      <point x="339" y="915" type="line" smooth="yes"/>
      <point x="320" y="933"/>
      <point x="315" y="961"/>
      <point x="325" y="985" type="curve" smooth="yes"/>
      <point x="335" y="1008"/>
      <point x="358" y="1024"/>
      <point x="384" y="1024" type="curve" smooth="yes"/>
      <point x="640" y="1024" type="line"/>
      <point x="640" y="1472" type="line" smooth="yes"/>
      <point x="640" y="1507"/>
      <point x="669" y="1536"/>
      <point x="704" y="1536" type="curve" smooth="yes"/>
      <point x="960" y="1536" type="line" smooth="yes"/>
      <point x="995" y="1536"/>
      <point x="1024" y="1507"/>
      <point x="1024" y="1472" type="curve" smooth="yes"/>
      <point x="1024" y="1024" type="line"/>
      <point x="1280" y="1024" type="line" smooth="yes"/>
      <point x="1306" y="1024"/>
      <point x="1329" y="1008"/>
    </contour>
  </outline>
</glyph>
<glyph name="arrow_circle_o_up" format="1">
  <advance width="1536"/>
  <unicode hex="F01B"/>
  <outline>
    <contour>
      <point x="1118" y="660" type="curve" smooth="yes"/>
      <point x="1113" y="648"/>
      <point x="1101" y="640"/>
      <point x="1088" y="640" type="curve" smooth="yes"/>
      <point x="896" y="640" type="line"/>
      <point x="896" y="288" type="line" smooth="yes"/>
      <point x="896" y="270"/>
      <point x="882" y="256"/>
      <point x="864" y="256" type="curve" smooth="yes"/>
      <point x="672" y="256" type="line" smooth="yes"/>
      <point x="654" y="256"/>
      <point x="640" y="270"/>
      <point x="640" y="288" type="curve" smooth="yes"/>
      <point x="640" y="640" type="line"/>
      <point x="448" y="640" type="line"/>
      <point x="448" y="640" type="line"/>
      <point x="430" y="640"/>
      <point x="416" y="654"/>
      <point x="416" y="672" type="curve" smooth="yes"/>
      <point x="416" y="681"/>
      <point x="420" y="689"/>
      <point x="426" y="696" type="curve" smooth="yes"/>
      <point x="745" y="1015" type="line" smooth="yes"/>
      <point x="752" y="1021"/>
      <point x="760" y="1024"/>
      <point x="768" y="1024" type="curve" smooth="yes"/>
      <point x="776" y="1024"/>
      <point x="784" y="1021"/>
      <point x="791" y="1015" type="curve" smooth="yes"/>
      <point x="1111" y="695" type="line" smooth="yes"/>
      <point x="1120" y="685"/>
      <point x="1123" y="672"/>
    </contour>
    <contour>
      <point x="768" y="1184" type="curve" smooth="yes"/>
      <point x="468" y="1184"/>
      <point x="224" y="940"/>
      <point x="224" y="640" type="curve" smooth="yes"/>
      <point x="224" y="340"/>
      <point x="468" y="96"/>
      <point x="768" y="96" type="curve" smooth="yes"/>
      <point x="1068" y="96"/>
      <point x="1312" y="340"/>
      <point x="1312" y="640" type="curve" smooth="yes"/>
      <point x="1312" y="940"/>
      <point x="1068" y="1184"/>
    </contour>
    <contour>
      <point x="1536" y="640" type="curve" smooth="yes"/>
      <point x="1536" y="216"/>
      <point x="1192" y="-128"/>
      <point x="768" y="-128" type="curve" smooth="yes"/>
      <point x="344" y="-128"/>
      <point x="0" y="216"/>
      <point x="0" y="640" type="curve" smooth="yes"/>
      <point x="0" y="1064"/>
      <point x="344" y="1408"/>
      <point x="768" y="1408" type="curve"/>
      <point x="768" y="1408" type="line"/>
      <point x="1192" y="1408"/>
      <point x="1536" y="1064"/>
    </contour>
  </outline>
</glyph>
<glyph name="inbox" format="1">
  <advance width="1536"/>
  <unicode hex="F01C"/>
  <outline>
    <contour>
      <point x="1023" y="576" type="line"/>
      <point x="1339" y="576" type="line"/>
      <point x="1337" y="581"/>
      <point x="1336" y="587"/>
      <point x="1334" y="592" type="curve" smooth="yes"/>
      <point x="1122" y="1088" type="line"/>
      <point x="414" y="1088" type="line"/>
      <point x="202" y="592" type="line" smooth="yes"/>
      <point x="200" y="587"/>
      <point x="199" y="581"/>
      <point x="197" y="576" type="curve"/>
      <point x="513" y="576" type="line"/>
      <point x="608" y="384" type="line"/>
      <point x="928" y="384" type="line"/>
    </contour>
    <contour>
      <point x="1536" y="546" type="curve" smooth="yes"/>
      <point x="1536" y="64" type="line" smooth="yes"/>
      <point x="1536" y="29"/>
      <point x="1507" y="0"/>
      <point x="1472" y="0" type="curve" smooth="yes"/>
      <point x="64" y="0" type="line" smooth="yes"/>
      <point x="29" y="0"/>
      <point x="0" y="29"/>
      <point x="0" y="64" type="curve" smooth="yes"/>
      <point x="0" y="546" type="line" smooth="yes"/>
      <point x="0" y="582"/>
      <point x="11" y="635"/>
      <point x="25" y="669" type="curve" smooth="yes"/>
      <point x="263" y="1221" type="line" smooth="yes"/>
      <point x="277" y="1254"/>
      <point x="317" y="1280"/>
      <point x="352" y="1280" type="curve" smooth="yes"/>
      <point x="1184" y="1280" type="line" smooth="yes"/>
      <point x="1219" y="1280"/>
      <point x="1259" y="1254"/>
      <point x="1273" y="1221" type="curve" smooth="yes"/>
      <point x="1511" y="669" type="line" smooth="yes"/>
      <point x="1525" y="635"/>
      <point x="1536" y="582"/>
    </contour>
  </outline>
</glyph>
<glyph name="play_circle_o" format="1">
  <advance width="1536"/>
  <unicode hex="F01D"/>
  <outline>
    <contour>
      <point x="1184" y="640" type="curve" smooth="yes"/>
      <point x="1184" y="617"/>
      <point x="1172" y="596"/>
      <point x="1152" y="585" type="curve" smooth="yes"/>
      <point x="608" y="265" type="line" smooth="yes"/>
      <point x="598" y="259"/>
      <point x="587" y="256"/>
      <point x="576" y="256" type="curve" smooth="yes"/>
      <point x="565" y="256"/>
      <point x="554" y="259"/>
      <point x="544" y="264" type="curve" smooth="yes"/>
      <point x="524" y="276"/>
      <point x="512" y="297"/>
      <point x="512" y="320" type="curve" smooth="yes"/>
      <point x="512" y="960" type="line" smooth="yes"/>
      <point x="512" y="983"/>
      <point x="524" y="1004"/>
      <point x="544" y="1016" type="curve" smooth="yes"/>
      <point x="564" y="1027"/>
      <point x="589" y="1027"/>
      <point x="608" y="1015" type="curve" smooth="yes"/>
      <point x="1152" y="695" type="line" smooth="yes"/>
      <point x="1172" y="684"/>
      <point x="1184" y="663"/>
    </contour>
    <contour>
      <point x="1312" y="640" type="curve" smooth="yes"/>
      <point x="1312" y="940"/>
      <point x="1068" y="1184"/>
      <point x="768" y="1184" type="curve" smooth="yes"/>
      <point x="468" y="1184"/>
      <point x="224" y="940"/>
      <point x="224" y="640" type="curve" smooth="yes"/>
      <point x="224" y="340"/>
      <point x="468" y="96"/>
      <point x="768" y="96" type="curve" smooth="yes"/>
      <point x="1068" y="96"/>
      <point x="1312" y="340"/>
    </contour>
    <contour>
      <point x="1536" y="640" type="curve" smooth="yes"/>
      <point x="1536" y="216"/>
      <point x="1192" y="-128"/>
      <point x="768" y="-128" type="curve" smooth="yes"/>
      <point x="344" y="-128"/>
      <point x="0" y="216"/>
      <point x="0" y="640" type="curve" smooth="yes"/>
      <point x="0" y="1064"/>
      <point x="344" y="1408"/>
      <point x="768" y="1408" type="curve" smooth="yes"/>
      <point x="1192" y="1408"/>
      <point x="1536" y="1064"/>
    </contour>
  </outline>
</glyph>
<glyph name="repeat" format="1">
  <advance width="1536"/>
  <unicode hex="F01E"/>
  <outline>
    <contour>
      <point x="1536" y="1280" type="curve" smooth="yes"/>
      <point x="1536" y="832" type="line" smooth="yes"/>
      <point x="1536" y="797"/>
      <point x="1507" y="768"/>
      <point x="1472" y="768" type="curve" smooth="yes"/>
      <point x="1024" y="768" type="line" smooth="yes"/>
      <point x="998" y="768"/>
      <point x="975" y="784"/>
      <point x="965" y="808" type="curve" smooth="yes"/>
      <point x="955" y="831"/>
      <point x="960" y="859"/>
      <point x="979" y="877" type="curve" smooth="yes"/>
      <point x="1117" y="1015" type="line"/>
      <point x="1023" y="1102"/>
      <point x="899" y="1152"/>
      <point x="768" y="1152" type="curve" smooth="yes"/>
      <point x="486" y="1152"/>
      <point x="256" y="922"/>
      <point x="256" y="640" type="curve" smooth="yes"/>
      <point x="256" y="358"/>
      <point x="486" y="128"/>
      <point x="768" y="128" type="curve" smooth="yes"/>
      <point x="927" y="128"/>
      <point x="1074" y="200"/>
      <point x="1172" y="327" type="curve" smooth="yes"/>
      <point x="1177" y="334"/>
      <point x="1186" y="338"/>
      <point x="1195" y="339" type="curve" smooth="yes"/>
      <point x="1204" y="339"/>
      <point x="1213" y="336"/>
      <point x="1220" y="330" type="curve" smooth="yes"/>
      <point x="1357" y="192" type="line" smooth="yes"/>
      <point x="1369" y="181"/>
      <point x="1369" y="162"/>
      <point x="1359" y="149" type="curve" smooth="yes"/>
      <point x="1213" y="-27"/>
      <point x="997" y="-128"/>
      <point x="768" y="-128" type="curve" smooth="yes"/>
      <point x="345" y="-128"/>
      <point x="0" y="217"/>
      <point x="0" y="640" type="curve" smooth="yes"/>
      <point x="0" y="1063"/>
      <point x="345" y="1408"/>
      <point x="768" y="1408" type="curve" smooth="yes"/>
      <point x="965" y="1408"/>
      <point x="1156" y="1329"/>
      <point x="1297" y="1196" type="curve"/>
      <point x="1427" y="1325" type="line" smooth="yes"/>
      <point x="1445" y="1344"/>
      <point x="1473" y="1349"/>
      <point x="1497" y="1339" type="curve" smooth="yes"/>
      <point x="1520" y="1329"/>
      <point x="1536" y="1306"/>
    </contour>
  </outline>
</glyph>
<glyph name="refresh" format="1">
  <advance width="1536"/>
  <unicode hex="F021"/>
  <outline>
    <contour>
      <point x="1511" y="480" type="curve" smooth="yes"/>
      <point x="1511" y="478"/>
      <point x="1511" y="475"/>
      <point x="1510" y="473" type="curve" smooth="yes"/>
      <point x="1425" y="119"/>
      <point x="1133" y="-128"/>
      <point x="764" y="-128" type="curve" smooth="yes"/>
      <point x="569" y="-128"/>
      <point x="380" y="-51"/>
      <point x="238" y="84" type="curve"/>
      <point x="109" y="-45" type="line" smooth="yes"/>
      <point x="97" y="-57"/>
      <point x="81" y="-64"/>
      <point x="64" y="-64" type="curve" smooth="yes"/>
      <point x="29" y="-64"/>
      <point x="0" y="-35"/>
      <point x="0" y="0" type="curve" smooth="yes"/>
      <point x="0" y="448" type="line" smooth="yes"/>
      <point x="0" y="483"/>
      <point x="29" y="512"/>
      <point x="64" y="512" type="curve" smooth="yes"/>
      <point x="512" y="512" type="line" smooth="yes"/>
      <point x="547" y="512"/>
      <point x="576" y="483"/>
      <point x="576" y="448" type="curve" smooth="yes"/>
      <point x="576" y="431"/>
      <point x="569" y="415"/>
      <point x="557" y="403" type="curve" smooth="yes"/>
      <point x="420" y="266" type="line"/>
      <point x="514" y="178"/>
      <point x="639" y="128"/>
      <point x="768" y="128" type="curve" smooth="yes"/>
      <point x="946" y="128"/>
      <point x="1111" y="220"/>
      <point x="1204" y="372" type="curve" smooth="yes"/>
      <point x="1228" y="411"/>
      <point x="1240" y="449"/>
      <point x="1257" y="489" type="curve" smooth="yes"/>
      <point x="1262" y="503"/>
      <point x="1272" y="512"/>
      <point x="1287" y="512" type="curve" smooth="yes"/>
      <point x="1479" y="512" type="line" smooth="yes"/>
      <point x="1497" y="512"/>
      <point x="1511" y="497"/>
    </contour>
    <contour>
      <point x="1536" y="1280" type="curve" smooth="yes"/>
      <point x="1536" y="832" type="line" smooth="yes"/>
      <point x="1536" y="797"/>
      <point x="1507" y="768"/>
      <point x="1472" y="768" type="curve" smooth="yes"/>
      <point x="1024" y="768" type="line" smooth="yes"/>
      <point x="989" y="768"/>
      <point x="960" y="797"/>
      <point x="960" y="832" type="curve" smooth="yes"/>
      <point x="960" y="849"/>
      <point x="967" y="865"/>
      <point x="979" y="877" type="curve" smooth="yes"/>
      <point x="1117" y="1015" type="line"/>
      <point x="1022" y="1103"/>
      <point x="897" y="1152"/>
      <point x="768" y="1152" type="curve" smooth="yes"/>
      <point x="590" y="1152"/>
      <point x="425" y="1060"/>
      <point x="332" y="908" type="curve" smooth="yes"/>
      <point x="308" y="869"/>
      <point x="296" y="831"/>
      <point x="279" y="791" type="curve" smooth="yes"/>
      <point x="274" y="777"/>
      <point x="264" y="768"/>
      <point x="249" y="768" type="curve" smooth="yes"/>
      <point x="50" y="768" type="line" smooth="yes"/>
      <point x="32" y="768"/>
      <point x="18" y="783"/>
      <point x="18" y="800" type="curve" smooth="yes"/>
      <point x="18" y="802"/>
      <point x="18" y="805"/>
      <point x="18" y="807" type="curve" smooth="yes"/>
      <point x="104" y="1162"/>
      <point x="399" y="1408"/>
      <point x="768" y="1408" type="curve" smooth="yes"/>
      <point x="964" y="1408"/>
      <point x="1155" y="1330"/>
      <point x="1297" y="1196" type="curve"/>
      <point x="1427" y="1325" type="line" smooth="yes"/>
      <point x="1439" y="1337"/>
      <point x="1455" y="1344"/>
      <point x="1472" y="1344" type="curve" smooth="yes"/>
      <point x="1507" y="1344"/>
      <point x="1536" y="1315"/>
    </contour>
  </outline>
</glyph>
<glyph name="list_alt" format="1">
  <advance width="1792"/>
  <unicode hex="F022"/>
  <outline>
    <contour>
      <point x="384" y="352" type="curve" smooth="yes"/>
      <point x="384" y="288" type="line" smooth="yes"/>
      <point x="384" y="271"/>
      <point x="369" y="256"/>
      <point x="352" y="256" type="curve" smooth="yes"/>
      <point x="288" y="256" type="line" smooth="yes"/>
      <point x="271" y="256"/>
      <point x="256" y="271"/>
      <point x="256" y="288" type="curve" smooth="yes"/>
      <point x="256" y="352" type="line" smooth="yes"/>
      <point x="256" y="369"/>
      <point x="271" y="384"/>
      <point x="288" y="384" type="curve" smooth="yes"/>
      <point x="352" y="384" type="line" smooth="yes"/>
      <point x="369" y="384"/>
      <point x="384" y="369"/>
    </contour>
    <contour>
      <point x="384" y="608" type="curve" smooth="yes"/>
      <point x="384" y="544" type="line" smooth="yes"/>
      <point x="384" y="527"/>
      <point x="369" y="512"/>
      <point x="352" y="512" type="curve" smooth="yes"/>
      <point x="288" y="512" type="line" smooth="yes"/>
      <point x="271" y="512"/>
      <point x="256" y="527"/>
      <point x="256" y="544" type="curve" smooth="yes"/>
      <point x="256" y="608" type="line" smooth="yes"/>
      <point x="256" y="625"/>
      <point x="271" y="640"/>
      <point x="288" y="640" type="curve" smooth="yes"/>
      <point x="352" y="640" type="line" smooth="yes"/>
      <point x="369" y="640"/>
      <point x="384" y="625"/>
    </contour>
    <contour>
      <point x="384" y="864" type="curve" smooth="yes"/>
      <point x="384" y="800" type="line" smooth="yes"/>
      <point x="384" y="783"/>
      <point x="369" y="768"/>
      <point x="352" y="768" type="curve" smooth="yes"/>
      <point x="288" y="768" type="line" smooth="yes"/>
      <point x="271" y="768"/>
      <point x="256" y="783"/>
      <point x="256" y="800" type="curve" smooth="yes"/>
      <point x="256" y="864" type="line" smooth="yes"/>
      <point x="256" y="881"/>
      <point x="271" y="896"/>
      <point x="288" y="896" type="curve" smooth="yes"/>
      <point x="352" y="896" type="line" smooth="yes"/>
      <point x="369" y="896"/>
      <point x="384" y="881"/>
    </contour>
    <contour>
      <point x="1536" y="352" type="curve" smooth="yes"/>
      <point x="1536" y="288" type="line" smooth="yes"/>
      <point x="1536" y="271"/>
      <point x="1521" y="256"/>
      <point x="1504" y="256" type="curve" smooth="yes"/>
      <point x="544" y="256" type="line" smooth="yes"/>
      <point x="527" y="256"/>
      <point x="512" y="271"/>
      <point x="512" y="288" type="curve" smooth="yes"/>
      <point x="512" y="352" type="line" smooth="yes"/>
      <point x="512" y="369"/>
      <point x="527" y="384"/>
      <point x="544" y="384" type="curve" smooth="yes"/>
      <point x="1504" y="384" type="line" smooth="yes"/>
      <point x="1521" y="384"/>
      <point x="1536" y="369"/>
    </contour>
    <contour>
      <point x="1536" y="608" type="curve" smooth="yes"/>
      <point x="1536" y="544" type="line" smooth="yes"/>
      <point x="1536" y="527"/>
      <point x="1521" y="512"/>
      <point x="1504" y="512" type="curve" smooth="yes"/>
      <point x="544" y="512" type="line" smooth="yes"/>
      <point x="527" y="512"/>
      <point x="512" y="527"/>
      <point x="512" y="544" type="curve" smooth="yes"/>
      <point x="512" y="608" type="line" smooth="yes"/>
      <point x="512" y="625"/>
      <point x="527" y="640"/>
      <point x="544" y="640" type="curve" smooth="yes"/>
      <point x="1504" y="640" type="line" smooth="yes"/>
      <point x="1521" y="640"/>
      <point x="1536" y="625"/>
    </contour>
    <contour>
      <point x="1536" y="864" type="curve" smooth="yes"/>
      <point x="1536" y="800" type="line" smooth="yes"/>
      <point x="1536" y="783"/>
      <point x="1521" y="768"/>
      <point x="1504" y="768" type="curve" smooth="yes"/>
      <point x="544" y="768" type="line" smooth="yes"/>
      <point x="527" y="768"/>
      <point x="512" y="783"/>
      <point x="512" y="800" type="curve" smooth="yes"/>
      <point x="512" y="864" type="line" smooth="yes"/>
      <point x="512" y="881"/>
      <point x="527" y="896"/>
      <point x="544" y="896" type="curve" smooth="yes"/>
      <point x="1504" y="896" type="line" smooth="yes"/>
      <point x="1521" y="896"/>
      <point x="1536" y="881"/>
    </contour>
    <contour>
      <point x="1664" y="160" type="curve" smooth="yes"/>
      <point x="1664" y="992" type="line" smooth="yes"/>
      <point x="1664" y="1009"/>
      <point x="1649" y="1024"/>
      <point x="1632" y="1024" type="curve" smooth="yes"/>
      <point x="160" y="1024" type="line" smooth="yes"/>
      <point x="143" y="1024"/>
      <point x="128" y="1009"/>
      <point x="128" y="992" type="curve" smooth="yes"/>
      <point x="128" y="160" type="line" smooth="yes"/>
      <point x="128" y="143"/>
      <point x="143" y="128"/>
      <point x="160" y="128" type="curve" smooth="yes"/>
      <point x="1632" y="128" type="line" smooth="yes"/>
      <point x="1649" y="128"/>
      <point x="1664" y="143"/>
    </contour>
    <contour>
      <point x="1792" y="1248" type="curve" smooth="yes"/>
      <point x="1792" y="160" type="line" smooth="yes"/>
      <point x="1792" y="72"/>
      <point x="1720" y="0"/>
      <point x="1632" y="0" type="curve" smooth="yes"/>
      <point x="160" y="0" type="line" smooth="yes"/>
      <point x="72" y="0"/>
      <point x="0" y="72"/>
      <point x="0" y="160" type="curve" smooth="yes"/>
      <point x="0" y="1248" type="line" smooth="yes"/>
      <point x="0" y="1336"/>
      <point x="72" y="1408"/>
      <point x="160" y="1408" type="curve" smooth="yes"/>
      <point x="1632" y="1408" type="line" smooth="yes"/>
      <point x="1720" y="1408"/>
      <point x="1792" y="1336"/>
    </contour>
  </outline>
</glyph>
<glyph name="headphones" format="1">
  <advance width="1664"/>
  <unicode hex="F025"/>
  <outline>
    <contour>
      <point x="1664" y="650" type="curve" smooth="yes"/>
      <point x="1664" y="541"/>
      <point x="1644" y="435"/>
      <point x="1604" y="336" type="curve" smooth="yes"/>
      <point x="1584" y="287" type="line"/>
      <point x="1399" y="254" type="line"/>
      <point x="1370" y="145"/>
      <point x="1271" y="64"/>
      <point x="1152" y="64" type="curve"/>
      <point x="1152" y="32" type="line" smooth="yes"/>
      <point x="1152" y="14"/>
      <point x="1138" y="0"/>
      <point x="1120" y="0" type="curve" smooth="yes"/>
      <point x="1056" y="0" type="line" smooth="yes"/>
      <point x="1038" y="0"/>
      <point x="1024" y="14"/>
      <point x="1024" y="32" type="curve" smooth="yes"/>
      <point x="1024" y="608" type="line" smooth="yes"/>
      <point x="1024" y="626"/>
      <point x="1038" y="640"/>
      <point x="1056" y="640" type="curve" smooth="yes"/>
      <point x="1120" y="640" type="line" smooth="yes"/>
      <point x="1138" y="640"/>
      <point x="1152" y="626"/>
      <point x="1152" y="608" type="curve" smooth="yes"/>
      <point x="1152" y="576" type="line"/>
      <point x="1248" y="576"/>
      <point x="1331" y="523"/>
      <point x="1375" y="445" type="curve"/>
      <point x="1443" y="457" type="line"/>
      <point x="1462" y="519"/>
      <point x="1472" y="583"/>
      <point x="1472" y="650" type="curve" smooth="yes"/>
      <point x="1472" y="952"/>
      <point x="1173" y="1216"/>
      <point x="832" y="1216" type="curve" smooth="yes"/>
      <point x="491" y="1216"/>
      <point x="192" y="952"/>
      <point x="192" y="650" type="curve" smooth="yes"/>
      <point x="192" y="583"/>
      <point x="202" y="519"/>
      <point x="221" y="457" type="curve"/>
      <point x="289" y="445" type="line"/>
      <point x="333" y="523"/>
      <point x="416" y="576"/>
      <point x="512" y="576" type="curve"/>
      <point x="512" y="608" type="line" smooth="yes"/>
      <point x="512" y="626"/>
      <point x="526" y="640"/>
      <point x="544" y="640" type="curve" smooth="yes"/>
      <point x="608" y="640" type="line" smooth="yes"/>
      <point x="626" y="640"/>
      <point x="640" y="626"/>
      <point x="640" y="608" type="curve" smooth="yes"/>
      <point x="640" y="32" type="line" smooth="yes"/>
      <point x="640" y="14"/>
      <point x="626" y="0"/>
      <point x="608" y="0" type="curve" smooth="yes"/>
      <point x="544" y="0" type="line" smooth="yes"/>
      <point x="526" y="0"/>
      <point x="512" y="14"/>
      <point x="512" y="32" type="curve" smooth="yes"/>
      <point x="512" y="64" type="line"/>
      <point x="393" y="64"/>
      <point x="294" y="145"/>
      <point x="265" y="254" type="curve"/>
      <point x="80" y="287" type="line"/>
      <point x="60" y="336" type="line" smooth="yes"/>
      <point x="20" y="435"/>
      <point x="0" y="541"/>
      <point x="0" y="650" type="curve" smooth="yes"/>
      <point x="0" y="1061"/>
      <point x="381" y="1408"/>
      <point x="832" y="1408" type="curve" smooth="yes"/>
      <point x="1283" y="1408"/>
      <point x="1664" y="1061"/>
    </contour>
  </outline>
</glyph>
<glyph name="volume_off" format="1">
  <advance width="768"/>
  <unicode hex="F026"/>
  <outline>
    <contour>
      <point x="768" y="1184" type="curve" smooth="yes"/>
      <point x="768" y="96" type="line" smooth="yes"/>
      <point x="768" y="61"/>
      <point x="739" y="32"/>
      <point x="704" y="32" type="curve" smooth="yes"/>
      <point x="687" y="32"/>
      <point x="671" y="39"/>
      <point x="659" y="51" type="curve" smooth="yes"/>
      <point x="326" y="384" type="line"/>
      <point x="64" y="384" type="line" smooth="yes"/>
      <point x="29" y="384"/>
      <point x="0" y="413"/>
      <point x="0" y="448" type="curve" smooth="yes"/>
      <point x="0" y="832" type="line" smooth="yes"/>
      <point x="0" y="867"/>
      <point x="29" y="896"/>
      <point x="64" y="896" type="curve" smooth="yes"/>
      <point x="326" y="896" type="line"/>
      <point x="659" y="1229" type="line" smooth="yes"/>
      <point x="671" y="1241"/>
      <point x="687" y="1248"/>
      <point x="704" y="1248" type="curve" smooth="yes"/>
      <point x="739" y="1248"/>
      <point x="768" y="1219"/>
    </contour>
  </outline>
</glyph>
<glyph name="qrcode" format="1">
  <advance width="1408"/>
  <unicode hex="F029"/>
  <outline>
    <contour>
      <point x="384" y="384" type="line"/>
      <point x="384" y="256" type="line"/>
      <point x="256" y="256" type="line"/>
      <point x="256" y="384" type="line"/>
    </contour>
    <contour>
      <point x="384" y="1152" type="line"/>
      <point x="384" y="1024" type="line"/>
      <point x="256" y="1024" type="line"/>
      <point x="256" y="1152" type="line"/>
    </contour>
    <contour>
      <point x="1152" y="1152" type="line"/>
      <point x="1152" y="1024" type="line"/>
      <point x="1024" y="1024" type="line"/>
      <point x="1024" y="1152" type="line"/>
    </contour>
    <contour>
      <point x="128" y="129" type="line"/>
      <point x="512" y="129" type="line"/>
      <point x="512" y="512" type="line"/>
      <point x="128" y="512" type="line"/>
    </contour>
    <contour>
      <point x="128" y="896" type="line"/>
      <point x="512" y="896" type="line"/>
      <point x="512" y="1280" type="line"/>
      <point x="128" y="1280" type="line"/>
    </contour>
    <contour>
      <point x="896" y="896" type="line"/>
      <point x="1280" y="896" type="line"/>
      <point x="1280" y="1280" type="line"/>
      <point x="896" y="1280" type="line"/>
    </contour>
    <contour>
      <point x="640" y="640" type="line"/>
      <point x="640" y="0" type="line"/>
      <point x="0" y="0" type="line"/>
      <point x="0" y="640" type="line"/>
    </contour>
    <contour>
      <point x="1152" y="128" type="line"/>
      <point x="1152" y="0" type="line"/>
      <point x="1024" y="0" type="line"/>
      <point x="1024" y="128" type="line"/>
    </contour>
    <contour>
      <point x="1408" y="128" type="line"/>
      <point x="1408" y="0" type="line"/>
      <point x="1280" y="0" type="line"/>
      <point x="1280" y="128" type="line"/>
    </contour>
    <contour>
      <point x="1408" y="640" type="line"/>
      <point x="1408" y="256" type="line"/>
      <point x="1024" y="256" type="line"/>
      <point x="1024" y="384" type="line"/>
      <point x="896" y="384" type="line"/>
      <point x="896" y="0" type="line"/>
      <point x="768" y="0" type="line"/>
      <point x="768" y="640" type="line"/>
      <point x="1152" y="640" type="line"/>
      <point x="1152" y="512" type="line"/>
      <point x="1280" y="512" type="line"/>
      <point x="1280" y="640" type="line"/>
    </contour>
    <contour>
      <point x="640" y="1408" type="line"/>
      <point x="640" y="768" type="line"/>
      <point x="0" y="768" type="line"/>
      <point x="0" y="1408" type="line"/>
    </contour>
    <contour>
      <point x="1408" y="1408" type="line"/>
      <point x="1408" y="768" type="line"/>
      <point x="768" y="768" type="line"/>
      <point x="768" y="1408" type="line"/>
    </contour>
  </outline>
</glyph>
<glyph name="tag" format="1">
  <advance width="1536"/>
  <unicode hex="F02B"/>
  <outline>
    <contour>
      <point x="448" y="1088" type="curve" smooth="yes"/>
      <point x="448" y="1159"/>
      <point x="391" y="1216"/>
      <point x="320" y="1216" type="curve" smooth="yes"/>
      <point x="249" y="1216"/>
      <point x="192" y="1159"/>
      <point x="192" y="1088" type="curve" smooth="yes"/>
      <point x="192" y="1017"/>
      <point x="249" y="960"/>
      <point x="320" y="960" type="curve" smooth="yes"/>
      <point x="391" y="960"/>
      <point x="448" y="1017"/>
    </contour>
    <contour>
      <point x="1515" y="512" type="curve" smooth="yes"/>
      <point x="1515" y="478"/>
      <point x="1501" y="445"/>
      <point x="1478" y="422" type="curve" smooth="yes"/>
      <point x="987" y="-70" type="line" smooth="yes"/>
      <point x="963" y="-93"/>
      <point x="930" y="-107"/>
      <point x="896" y="-107" type="curve" smooth="yes"/>
      <point x="862" y="-107"/>
      <point x="829" y="-93"/>
      <point x="806" y="-70" type="curve" smooth="yes"/>
      <point x="91" y="646" type="line" smooth="yes"/>
      <point x="40" y="696"/>
      <point x="0" y="793"/>
      <point x="0" y="864" type="curve" smooth="yes"/>
      <point x="0" y="1280" type="line" smooth="yes"/>
      <point x="0" y="1350"/>
      <point x="58" y="1408"/>
      <point x="128" y="1408" type="curve" smooth="yes"/>
      <point x="544" y="1408" type="line" smooth="yes"/>
      <point x="615" y="1408"/>
      <point x="712" y="1368"/>
      <point x="763" y="1317" type="curve" smooth="yes"/>
      <point x="1478" y="603" type="line" smooth="yes"/>
      <point x="1501" y="579"/>
      <point x="1515" y="546"/>
    </contour>
  </outline>
</glyph>
<glyph name="tags" format="1">
  <advance width="1920"/>
  <unicode hex="F02C"/>
  <outline>
    <contour>
      <point x="448" y="1088" type="curve" smooth="yes"/>
      <point x="448" y="1159"/>
      <point x="391" y="1216"/>
      <point x="320" y="1216" type="curve" smooth="yes"/>
      <point x="249" y="1216"/>
      <point x="192" y="1159"/>
      <point x="192" y="1088" type="curve" smooth="yes"/>
      <point x="192" y="1017"/>
      <point x="249" y="960"/>
      <point x="320" y="960" type="curve" smooth="yes"/>
      <point x="391" y="960"/>
      <point x="448" y="1017"/>
    </contour>
    <contour>
      <point x="1515" y="512" type="curve" smooth="yes"/>
      <point x="1515" y="478"/>
      <point x="1501" y="445"/>
      <point x="1478" y="422" type="curve" smooth="yes"/>
      <point x="987" y="-70" type="line" smooth="yes"/>
      <point x="963" y="-93"/>
      <point x="930" y="-107"/>
      <point x="896" y="-107" type="curve" smooth="yes"/>
      <point x="862" y="-107"/>
      <point x="829" y="-93"/>
      <point x="806" y="-70" type="curve" smooth="yes"/>
      <point x="91" y="646" type="line" smooth="yes"/>
      <point x="40" y="696"/>
      <point x="0" y="793"/>
      <point x="0" y="864" type="curve" smooth="yes"/>
      <point x="0" y="1280" type="line" smooth="yes"/>
      <point x="0" y="1350"/>
      <point x="58" y="1408"/>
      <point x="128" y="1408" type="curve" smooth="yes"/>
      <point x="544" y="1408" type="line" smooth="yes"/>
      <point x="615" y="1408"/>
      <point x="712" y="1368"/>
      <point x="763" y="1317" type="curve" smooth="yes"/>
      <point x="1478" y="603" type="line" smooth="yes"/>
      <point x="1501" y="579"/>
      <point x="1515" y="546"/>
    </contour>
    <contour>
      <point x="1899" y="512" type="curve" smooth="yes"/>
      <point x="1899" y="478"/>
      <point x="1885" y="445"/>
      <point x="1862" y="422" type="curve" smooth="yes"/>
      <point x="1371" y="-70" type="line" smooth="yes"/>
      <point x="1347" y="-93"/>
      <point x="1314" y="-107"/>
      <point x="1280" y="-107" type="curve" smooth="yes"/>
      <point x="1228" y="-107"/>
      <point x="1202" y="-83"/>
      <point x="1168" y="-48" type="curve"/>
      <point x="1638" y="422" type="line" smooth="yes"/>
      <point x="1661" y="445"/>
      <point x="1675" y="478"/>
      <point x="1675" y="512" type="curve" smooth="yes"/>
      <point x="1675" y="546"/>
      <point x="1661" y="579"/>
      <point x="1638" y="603" type="curve" smooth="yes"/>
      <point x="923" y="1317" type="line" smooth="yes"/>
      <point x="872" y="1368"/>
      <point x="775" y="1408"/>
      <point x="704" y="1408" type="curve" smooth="yes"/>
      <point x="928" y="1408" type="line" smooth="yes"/>
      <point x="999" y="1408"/>
      <point x="1096" y="1368"/>
      <point x="1147" y="1317" type="curve" smooth="yes"/>
      <point x="1862" y="603" type="line" smooth="yes"/>
      <point x="1885" y="579"/>
      <point x="1899" y="546"/>
    </contour>
  </outline>
</glyph>
<glyph name="font" format="1">
  <advance width="1664"/>
  <unicode hex="F031"/>
  <outline>
    <contour>
      <point x="725" y="977" type="curve"/>
      <point x="555" y="527" type="line"/>
      <point x="654" y="526"/>
      <point x="753" y="523"/>
      <point x="852" y="523" type="curve" smooth="yes"/>
      <point x="871" y="523"/>
      <point x="890" y="524"/>
      <point x="909" y="525" type="curve"/>
      <point x="857" y="677"/>
      <point x="796" y="832"/>
    </contour>
    <contour>
      <point x="0" y="-128" type="curve"/>
      <point x="2" y="-49" type="line"/>
      <point x="96" y="-20"/>
      <point x="198" y="-40"/>
      <point x="240" y="68" type="curve" smooth="yes"/>
      <point x="477" y="684" type="line"/>
      <point x="757" y="1408" type="line"/>
      <point x="832" y="1408" type="line"/>
      <point x="885" y="1408" type="line"/>
      <point x="889" y="1401"/>
      <point x="893" y="1394"/>
      <point x="896" y="1387" type="curve" smooth="yes"/>
      <point x="1101" y="907" type="line" smooth="yes"/>
      <point x="1176" y="730"/>
      <point x="1245" y="551"/>
      <point x="1321" y="375" type="curve" smooth="yes"/>
      <point x="1366" y="271"/>
      <point x="1401" y="164"/>
      <point x="1451" y="62" type="curve" smooth="yes"/>
      <point x="1458" y="46"/>
      <point x="1472" y="16"/>
      <point x="1486" y="5" type="curve" smooth="yes"/>
      <point x="1519" y="-21"/>
      <point x="1611" y="-27"/>
      <point x="1658" y="-45" type="curve"/>
      <point x="1661" y="-64"/>
      <point x="1664" y="-83"/>
      <point x="1664" y="-102" type="curve" smooth="yes"/>
      <point x="1664" y="-111"/>
      <point x="1663" y="-119"/>
      <point x="1663" y="-128" type="curve"/>
      <point x="1536" y="-128"/>
      <point x="1409" y="-112"/>
      <point x="1282" y="-112" type="curve" smooth="yes"/>
      <point x="1151" y="-112"/>
      <point x="1020" y="-123"/>
      <point x="889" y="-127" type="curve"/>
      <point x="889" y="-101"/>
      <point x="890" y="-75"/>
      <point x="893" y="-49" type="curve"/>
      <point x="1024" y="-21" type="line" smooth="yes"/>
      <point x="1051" y="-15"/>
      <point x="1104" y="-8"/>
      <point x="1104" y="29" type="curve" smooth="yes"/>
      <point x="1104" y="65"/>
      <point x="975" y="362"/>
      <point x="959" y="403" type="curve"/>
      <point x="509" y="405" type="line"/>
      <point x="483" y="347"/>
      <point x="382" y="85"/>
      <point x="382" y="47" type="curve" smooth="yes"/>
      <point x="382" y="-30"/>
      <point x="529" y="-33"/>
      <point x="586" y="-41" type="curve"/>
      <point x="587" y="-60"/>
      <point x="587" y="-79"/>
      <point x="587" y="-99" type="curve" smooth="yes"/>
      <point x="587" y="-108"/>
      <point x="586" y="-117"/>
      <point x="585" y="-126" type="curve"/>
      <point x="469" y="-126"/>
      <point x="352" y="-106"/>
      <point x="236" y="-106" type="curve" smooth="yes"/>
      <point x="222" y="-106"/>
      <point x="202" y="-112"/>
      <point x="188" y="-114" type="curve" smooth="yes"/>
      <point x="125" y="-125"/>
      <point x="63" y="-128"/>
    </contour>
  </outline>
</glyph>
<glyph name="italic" format="1">
  <advance width="1024"/>
  <unicode hex="F033"/>
  <outline>
    <contour>
      <point x="0" y="-126" type="curve"/>
      <point x="17" y="-41" type="line"/>
      <point x="81" y="-21"/>
      <point x="150" y="-13"/>
      <point x="210" y="18" type="curve"/>
      <point x="233" y="47"/>
      <point x="244" y="84"/>
      <point x="251" y="119" type="curve" smooth="yes"/>
      <point x="264" y="187"/>
      <point x="482" y="1168"/>
      <point x="479" y="1248" type="curve" smooth="yes"/>
      <point x="479" y="1273" type="line"/>
      <point x="424" y="1303"/>
      <point x="357" y="1295"/>
      <point x="297" y="1305" type="curve"/>
      <point x="316" y="1408" type="line"/>
      <point x="445" y="1402"/>
      <point x="576" y="1392"/>
      <point x="706" y="1392" type="curve" smooth="yes"/>
      <point x="812" y="1392"/>
      <point x="918" y="1402"/>
      <point x="1024" y="1408" type="curve"/>
      <point x="1020" y="1378"/>
      <point x="1013" y="1348"/>
      <point x="1005" y="1319" type="curve"/>
      <point x="936" y="1295"/>
      <point x="863" y="1284"/>
      <point x="795" y="1257" type="curve"/>
      <point x="773" y="1203"/>
      <point x="768" y="1144"/>
      <point x="758" y="1087" type="curve" smooth="yes"/>
      <point x="710" y="828"/>
      <point x="646" y="569"/>
      <point x="593" y="312" type="curve" smooth="yes"/>
      <point x="583" y="264"/>
      <point x="534" y="65"/>
      <point x="538" y="23" type="curve" smooth="yes"/>
      <point x="539" y="5" type="line"/>
      <point x="600" y="-9"/>
      <point x="662" y="-16"/>
      <point x="724" y="-26" type="curve"/>
      <point x="722" y="-59"/>
      <point x="716" y="-92"/>
      <point x="708" y="-125" type="curve"/>
      <point x="686" y="-125"/>
      <point x="665" y="-128"/>
      <point x="643" y="-128" type="curve" smooth="yes"/>
      <point x="586" y="-128"/>
      <point x="527" y="-109"/>
      <point x="470" y="-108" type="curve" smooth="yes"/>
      <point x="401" y="-107"/>
      <point x="332" y="-106"/>
      <point x="264" y="-106" type="curve" smooth="yes"/>
      <point x="175" y="-106"/>
      <point x="88" y="-121"/>
    </contour>
  </outline>
</glyph>
<glyph name="map_marker" format="1">
  <advance width="1024"/>
  <unicode hex="F041"/>
  <outline>
    <contour>
      <point x="768" y="896" type="curve" smooth="yes"/>
      <point x="768" y="1037"/>
      <point x="653" y="1152"/>
      <point x="512" y="1152" type="curve" smooth="yes"/>
      <point x="371" y="1152"/>
      <point x="256" y="1037"/>
      <point x="256" y="896" type="curve" smooth="yes"/>
      <point x="256" y="755"/>
      <point x="371" y="640"/>
      <point x="512" y="640" type="curve" smooth="yes"/>
      <point x="653" y="640"/>
      <point x="768" y="755"/>
    </contour>
    <contour>
      <point x="1024" y="896" type="curve" smooth="yes"/>
      <point x="1024" y="835"/>
      <point x="1017" y="772"/>
      <point x="991" y="717" type="curve" smooth="yes"/>
      <point x="627" y="-57" type="line" smooth="yes"/>
      <point x="606" y="-101"/>
      <point x="560" y="-128"/>
      <point x="512" y="-128" type="curve" smooth="yes"/>
      <point x="464" y="-128"/>
      <point x="418" y="-101"/>
      <point x="398" y="-57" type="curve" smooth="yes"/>
      <point x="33" y="717" type="line" smooth="yes"/>
      <point x="7" y="772"/>
      <point x="0" y="835"/>
      <point x="0" y="896" type="curve" smooth="yes"/>
      <point x="0" y="1179"/>
      <point x="229" y="1408"/>
      <point x="512" y="1408" type="curve" smooth="yes"/>
      <point x="795" y="1408"/>
      <point x="1024" y="1179"/>
    </contour>
  </outline>
</glyph>
<glyph name="adjust" format="1">
  <advance width="1536"/>
  <unicode hex="F042"/>
  <outline>
    <contour>
      <point x="768" y="96" type="curve"/>
      <point x="768" y="1184" type="line"/>
      <point x="468" y="1184"/>
      <point x="224" y="940"/>
      <point x="224" y="640" type="curve" smooth="yes"/>
      <point x="224" y="340"/>
      <point x="468" y="96"/>
    </contour>
    <contour>
      <point x="1536" y="640" type="curve" smooth="yes"/>
      <point x="1536" y="216"/>
      <point x="1192" y="-128"/>
      <point x="768" y="-128" type="curve" smooth="yes"/>
      <point x="344" y="-128"/>
      <point x="0" y="216"/>
      <point x="0" y="640" type="curve" smooth="yes"/>
      <point x="0" y="1064"/>
      <point x="344" y="1408"/>
      <point x="768" y="1408" type="curve" smooth="yes"/>
      <point x="1192" y="1408"/>
      <point x="1536" y="1064"/>
    </contour>
  </outline>
</glyph>
<glyph name="tint" format="1">
  <advance width="1024"/>
  <unicode hex="F043"/>
  <outline>
    <contour>
      <point x="512" y="384" type="curve" smooth="yes"/>
      <point x="512" y="409"/>
      <point x="504" y="433"/>
      <point x="492" y="453" type="curve" smooth="yes"/>
      <point x="479" y="473"/>
      <point x="426" y="541"/>
      <point x="405" y="608" type="curve" smooth="yes"/>
      <point x="402" y="619"/>
      <point x="392" y="624"/>
      <point x="384" y="624" type="curve" smooth="yes"/>
      <point x="376" y="624"/>
      <point x="366" y="619"/>
      <point x="363" y="608" type="curve" smooth="yes"/>
      <point x="342" y="541"/>
      <point x="289" y="473"/>
      <point x="276" y="453" type="curve" smooth="yes"/>
      <point x="264" y="433"/>
      <point x="256" y="409"/>
      <point x="256" y="384" type="curve" smooth="yes"/>
      <point x="256" y="313"/>
      <point x="313" y="256"/>
      <point x="384" y="256" type="curve" smooth="yes"/>
      <point x="455" y="256"/>
      <point x="512" y="313"/>
    </contour>
    <contour>
      <point x="1024" y="512" type="curve" smooth="yes"/>
      <point x="1024" y="229"/>
      <point x="795" y="0"/>
      <point x="512" y="0" type="curve" smooth="yes"/>
      <point x="229" y="0"/>
      <point x="0" y="229"/>
      <point x="0" y="512" type="curve" smooth="yes"/>
      <point x="0" y="613"/>
      <point x="31" y="707"/>
      <point x="81" y="787" type="curve" smooth="yes"/>
      <point x="132" y="867"/>
      <point x="346" y="1138"/>
      <point x="427" y="1408" type="curve" smooth="yes"/>
      <point x="440" y="1451"/>
      <point x="480" y="1472"/>
      <point x="512" y="1472" type="curve" smooth="yes"/>
      <point x="544" y="1472"/>
      <point x="585" y="1451"/>
      <point x="597" y="1408" type="curve" smooth="yes"/>
      <point x="678" y="1138"/>
      <point x="892" y="867"/>
      <point x="943" y="787" type="curve" smooth="yes"/>
      <point x="994" y="707"/>
      <point x="1024" y="613"/>
    </contour>
  </outline>
</glyph>
<glyph name="share_square_o" format="1">
  <advance width="1664"/>
  <unicode hex="F045"/>
  <outline>
    <contour>
      <point x="1408" y="547" type="curve" smooth="yes"/>
      <point x="1408" y="288" type="line" smooth="yes"/>
      <point x="1408" y="129"/>
      <point x="1279" y="0"/>
      <point x="1120" y="0" type="curve" smooth="yes"/>
      <point x="288" y="0" type="line" smooth="yes"/>
      <point x="129" y="0"/>
      <point x="0" y="129"/>
      <point x="0" y="288" type="curve" smooth="yes"/>
      <point x="0" y="1120" type="line" smooth="yes"/>
      <point x="0" y="1279"/>
      <point x="129" y="1408"/>
      <point x="288" y="1408" type="curve" smooth="yes"/>
      <point x="543" y="1408" type="line"/>
      <point x="543" y="1408"/>
      <point x="543" y="1408"/>
      <point x="543" y="1408" type="curve"/>
      <point x="543" y="1408"/>
      <point x="543" y="1408"/>
      <point x="543" y="1408" type="curve"/>
      <point x="560" y="1408"/>
      <point x="575" y="1394"/>
      <point x="575" y="1376" type="curve" smooth="yes"/>
      <point x="575" y="1360"/>
      <point x="564" y="1347"/>
      <point x="549" y="1344" type="curve" smooth="yes"/>
      <point x="499" y="1327"/>
      <point x="454" y="1307"/>
      <point x="416" y="1284" type="curve" smooth="yes"/>
      <point x="411" y="1282"/>
      <point x="406" y="1280"/>
      <point x="400" y="1280" type="curve" smooth="yes"/>
      <point x="288" y="1280" type="line" smooth="yes"/>
      <point x="200" y="1280"/>
      <point x="128" y="1208"/>
      <point x="128" y="1120" type="curve" smooth="yes"/>
      <point x="128" y="288" type="line" smooth="yes"/>
      <point x="128" y="200"/>
      <point x="200" y="128"/>
      <point x="288" y="128" type="curve" smooth="yes"/>
      <point x="1120" y="128" type="line" smooth="yes"/>
      <point x="1208" y="128"/>
      <point x="1280" y="200"/>
      <point x="1280" y="288" type="curve" smooth="yes"/>
      <point x="1280" y="502" type="line" smooth="yes"/>
      <point x="1280" y="514"/>
      <point x="1287" y="525"/>
      <point x="1298" y="531" type="curve" smooth="yes"/>
      <point x="1318" y="540"/>
      <point x="1336" y="553"/>
      <point x="1352" y="568" type="curve" smooth="yes"/>
      <point x="1361" y="577"/>
      <point x="1375" y="581"/>
      <point x="1387" y="576" type="curve" smooth="yes"/>
      <point x="1399" y="571"/>
      <point x="1408" y="560"/>
    </contour>
    <contour>
      <point x="1645" y="1043" type="curve" smooth="yes"/>
      <point x="1261" y="659" type="line" smooth="yes"/>
      <point x="1249" y="646"/>
      <point x="1233" y="640"/>
      <point x="1216" y="640" type="curve" smooth="yes"/>
      <point x="1208" y="640"/>
      <point x="1199" y="642"/>
      <point x="1191" y="645" type="curve" smooth="yes"/>
      <point x="1168" y="655"/>
      <point x="1152" y="678"/>
      <point x="1152" y="704" type="curve" smooth="yes"/>
      <point x="1152" y="896" type="line"/>
      <point x="992" y="896" type="line" smooth="yes"/>
      <point x="772" y="896"/>
      <point x="632" y="854"/>
      <point x="554" y="765" type="curve" smooth="yes"/>
      <point x="473" y="672"/>
      <point x="449" y="522"/>
      <point x="480" y="292" type="curve" smooth="yes"/>
      <point x="482" y="278"/>
      <point x="473" y="264"/>
      <point x="460" y="258" type="curve" smooth="yes"/>
      <point x="456" y="257"/>
      <point x="452" y="256"/>
      <point x="448" y="256" type="curve" smooth="yes"/>
      <point x="438" y="256"/>
      <point x="428" y="261"/>
      <point x="422" y="269" type="curve" smooth="yes"/>
      <point x="415" y="279"/>
      <point x="256" y="504"/>
      <point x="256" y="704" type="curve" smooth="yes"/>
      <point x="256" y="972"/>
      <point x="340" y="1280"/>
      <point x="992" y="1280" type="curve" smooth="yes"/>
      <point x="1152" y="1280" type="line"/>
      <point x="1152" y="1472" type="line" smooth="yes"/>
      <point x="1152" y="1498"/>
      <point x="1168" y="1521"/>
      <point x="1191" y="1531" type="curve" smooth="yes"/>
      <point x="1199" y="1534"/>
      <point x="1208" y="1536"/>
      <point x="1216" y="1536" type="curve" smooth="yes"/>
      <point x="1233" y="1536"/>
      <point x="1249" y="1529"/>
      <point x="1261" y="1517" type="curve" smooth="yes"/>
      <point x="1645" y="1133" type="line" smooth="yes"/>
      <point x="1670" y="1108"/>
      <point x="1670" y="1068"/>
    </contour>
  </outline>
</glyph>
<glyph name="check_square_o" format="1">
  <advance width="1664"/>
  <unicode hex="F046"/>
  <outline>
    <contour>
      <point x="1408" y="606" type="curve" smooth="yes"/>
      <point x="1408" y="288" type="line" smooth="yes"/>
      <point x="1408" y="129"/>
      <point x="1279" y="0"/>
      <point x="1120" y="0" type="curve" smooth="yes"/>
      <point x="288" y="0" type="line" smooth="yes"/>
      <point x="129" y="0"/>
      <point x="0" y="129"/>
      <point x="0" y="288" type="curve" smooth="yes"/>
      <point x="0" y="1120" type="line" smooth="yes"/>
      <point x="0" y="1279"/>
      <point x="129" y="1408"/>
      <point x="288" y="1408" type="curve" smooth="yes"/>
      <point x="1120" y="1408" type="line" smooth="yes"/>
      <point x="1160" y="1408"/>
      <point x="1200" y="1400"/>
      <point x="1237" y="1383" type="curve" smooth="yes"/>
      <point x="1246" y="1379"/>
      <point x="1253" y="1370"/>
      <point x="1255" y="1360" type="curve" smooth="yes"/>
      <point x="1257" y="1349"/>
      <point x="1254" y="1339"/>
      <point x="1246" y="1331" type="curve" smooth="yes"/>
      <point x="1197" y="1282" type="line" smooth="yes"/>
      <point x="1191" y="1276"/>
      <point x="1182" y="1272"/>
      <point x="1174" y="1272" type="curve" smooth="yes"/>
      <point x="1171" y="1272"/>
      <point x="1168" y="1273"/>
      <point x="1165" y="1274" type="curve" smooth="yes"/>
      <point x="1150" y="1278"/>
      <point x="1135" y="1280"/>
      <point x="1120" y="1280" type="curve" smooth="yes"/>
      <point x="288" y="1280" type="line" smooth="yes"/>
      <point x="200" y="1280"/>
      <point x="128" y="1208"/>
      <point x="128" y="1120" type="curve" smooth="yes"/>
      <point x="128" y="288" type="line" smooth="yes"/>
      <point x="128" y="200"/>
      <point x="200" y="128"/>
      <point x="288" y="128" type="curve" smooth="yes"/>
      <point x="1120" y="128" type="line" smooth="yes"/>
      <point x="1208" y="128"/>
      <point x="1280" y="200"/>
      <point x="1280" y="288" type="curve" smooth="yes"/>
      <point x="1280" y="542" type="line" smooth="yes"/>
      <point x="1280" y="550"/>
      <point x="1283" y="558"/>
      <point x="1289" y="564" type="curve" smooth="yes"/>
      <point x="1353" y="628" type="line" smooth="yes"/>
      <point x="1360" y="635"/>
      <point x="1368" y="638"/>
      <point x="1376" y="638" type="curve" smooth="yes"/>
      <point x="1380" y="638"/>
      <point x="1384" y="637"/>
      <point x="1388" y="635" type="curve" smooth="yes"/>
      <point x="1400" y="630"/>
      <point x="1408" y="619"/>
    </contour>
    <contour>
      <point x="1639" y="1095" type="curve" smooth="yes"/>
      <point x="825" y="281" type="line" smooth="yes"/>
      <point x="793" y="249"/>
      <point x="743" y="249"/>
      <point x="711" y="281" type="curve" smooth="yes"/>
      <point x="281" y="711" type="line" smooth="yes"/>
      <point x="249" y="743"/>
      <point x="249" y="793"/>
      <point x="281" y="825" type="curve" smooth="yes"/>
      <point x="391" y="935" type="line" smooth="yes"/>
      <point x="423" y="967"/>
      <point x="473" y="967"/>
      <point x="505" y="935" type="curve" smooth="yes"/>
      <point x="768" y="672" type="line"/>
      <point x="1415" y="1319" type="line" smooth="yes"/>
      <point x="1447" y="1351"/>
      <point x="1497" y="1351"/>
      <point x="1529" y="1319" type="curve" smooth="yes"/>
      <point x="1639" y="1209" type="line" smooth="yes"/>
      <point x="1671" y="1177"/>
      <point x="1671" y="1127"/>
    </contour>
  </outline>
</glyph>
<glyph name="fast_backward" format="1">
  <advance width="1792"/>
  <unicode hex="F049"/>
  <outline>
    <contour>
      <point x="1747" y="1395" type="line" smooth="yes"/>
      <point x="1772" y="1420"/>
      <point x="1792" y="1411"/>
      <point x="1792" y="1376" type="curve" smooth="yes"/>
      <point x="1792" y="-96" type="line" smooth="yes"/>
      <point x="1792" y="-131"/>
      <point x="1772" y="-140"/>
      <point x="1747" y="-115" type="curve" smooth="yes"/>
      <point x="1037" y="595" type="line" smooth="yes"/>
      <point x="1031" y="601"/>
      <point x="1027" y="607"/>
      <point x="1024" y="614" type="curve" smooth="yes"/>
      <point x="1024" y="-96" type="line" smooth="yes"/>
      <point x="1024" y="-131"/>
      <point x="1004" y="-140"/>
      <point x="979" y="-115" type="curve" smooth="yes"/>
      <point x="269" y="595" type="line" smooth="yes"/>
      <point x="263" y="601"/>
      <point x="259" y="607"/>
      <point x="256" y="614" type="curve" smooth="yes"/>
      <point x="256" y="-64" type="line" smooth="yes"/>
      <point x="256" y="-99"/>
      <point x="227" y="-128"/>
      <point x="192" y="-128" type="curve" smooth="yes"/>
      <point x="64" y="-128" type="line" smooth="yes"/>
      <point x="29" y="-128"/>
      <point x="0" y="-99"/>
      <point x="0" y="-64" type="curve" smooth="yes"/>
      <point x="0" y="1344" type="line" smooth="yes"/>
      <point x="0" y="1379"/>
      <point x="29" y="1408"/>
      <point x="64" y="1408" type="curve" smooth="yes"/>
      <point x="192" y="1408" type="line" smooth="yes"/>
      <point x="227" y="1408"/>
      <point x="256" y="1379"/>
      <point x="256" y="1344" type="curve" smooth="yes"/>
      <point x="256" y="666" type="line" smooth="yes"/>
      <point x="259" y="673"/>
      <point x="263" y="679"/>
      <point x="269" y="685" type="curve" smooth="yes"/>
      <point x="979" y="1395" type="line" smooth="yes"/>
      <point x="1004" y="1420"/>
      <point x="1024" y="1411"/>
      <point x="1024" y="1376" type="curve" smooth="yes"/>
      <point x="1024" y="666" type="line" smooth="yes"/>
      <point x="1027" y="673"/>
      <point x="1031" y="679"/>
      <point x="1037" y="685" type="curve" smooth="yes"/>
    </contour>
  </outline>
</glyph>
<glyph name="backward" format="1">
  <advance width="1664"/>
  <unicode hex="F04A"/>
  <outline>
    <contour>
      <point x="1619" y="1395" type="line" smooth="yes"/>
      <point x="1644" y="1420"/>
      <point x="1664" y="1411"/>
      <point x="1664" y="1376" type="curve" smooth="yes"/>
      <point x="1664" y="-96" type="line" smooth="yes"/>
      <point x="1664" y="-131"/>
      <point x="1644" y="-140"/>
      <point x="1619" y="-115" type="curve" smooth="yes"/>
      <point x="909" y="595" type="line" smooth="yes"/>
      <point x="903" y="601"/>
      <point x="899" y="607"/>
      <point x="896" y="614" type="curve" smooth="yes"/>
      <point x="896" y="-96" type="line" smooth="yes"/>
      <point x="896" y="-131"/>
      <point x="876" y="-140"/>
      <point x="851" y="-115" type="curve" smooth="yes"/>
      <point x="141" y="595" type="line" smooth="yes"/>
      <point x="116" y="620"/>
      <point x="116" y="660"/>
      <point x="141" y="685" type="curve" smooth="yes"/>
      <point x="851" y="1395" type="line" smooth="yes"/>
      <point x="876" y="1420"/>
      <point x="896" y="1411"/>
      <point x="896" y="1376" type="curve" smooth="yes"/>
      <point x="896" y="666" type="line" smooth="yes"/>
      <point x="899" y="673"/>
      <point x="903" y="679"/>
      <point x="909" y="685" type="curve" smooth="yes"/>
    </contour>
  </outline>
</glyph>
<glyph name="play" format="1">
  <advance width="1408"/>
  <unicode hex="F04B"/>
  <outline>
    <contour>
      <point x="1384" y="609" type="curve" smooth="yes"/>
      <point x="56" y="-129" type="line" smooth="yes"/>
      <point x="25" y="-146"/>
      <point x="0" y="-131"/>
      <point x="0" y="-96" type="curve" smooth="yes"/>
      <point x="0" y="1376" type="line" smooth="yes"/>
      <point x="0" y="1411"/>
      <point x="25" y="1426"/>
      <point x="56" y="1409" type="curve" smooth="yes"/>
      <point x="1384" y="671" type="line" smooth="yes"/>
      <point x="1415" y="654"/>
      <point x="1415" y="626"/>
    </contour>
  </outline>
</glyph>
<glyph name="stop" format="1">
  <advance width="1536"/>
  <unicode hex="F04D"/>
  <outline>
    <contour>
      <point x="1536" y="1344" type="curve" smooth="yes"/>
      <point x="1536" y="-64" type="line" smooth="yes"/>
      <point x="1536" y="-99"/>
      <point x="1507" y="-128"/>
      <point x="1472" y="-128" type="curve" smooth="yes"/>
      <point x="64" y="-128" type="line" smooth="yes"/>
      <point x="29" y="-128"/>
      <point x="0" y="-99"/>
      <point x="0" y="-64" type="curve" smooth="yes"/>
      <point x="0" y="1344" type="line" smooth="yes"/>
      <point x="0" y="1379"/>
      <point x="29" y="1408"/>
      <point x="64" y="1408" type="curve" smooth="yes"/>
      <point x="1472" y="1408" type="line" smooth="yes"/>
      <point x="1507" y="1408"/>
      <point x="1536" y="1379"/>
    </contour>
  </outline>
</glyph>
<glyph name="forward" format="1">
  <advance width="1664"/>
  <unicode hex="F04E"/>
  <outline>
    <contour>
      <point x="45" y="-115" type="line" smooth="yes"/>
      <point x="20" y="-140"/>
      <point x="0" y="-131"/>
      <point x="0" y="-96" type="curve" smooth="yes"/>
      <point x="0" y="1376" type="line" smooth="yes"/>
      <point x="0" y="1411"/>
      <point x="20" y="1420"/>
      <point x="45" y="1395" type="curve" smooth="yes"/>
      <point x="755" y="685" type="line" smooth="yes"/>
      <point x="761" y="679"/>
      <point x="765" y="673"/>
      <point x="768" y="666" type="curve" smooth="yes"/>
      <point x="768" y="1376" type="line" smooth="yes"/>
      <point x="768" y="1411"/>
      <point x="788" y="1420"/>
      <point x="813" y="1395" type="curve" smooth="yes"/>
      <point x="1523" y="685" type="line" smooth="yes"/>
      <point x="1548" y="660"/>
      <point x="1548" y="620"/>
      <point x="1523" y="595" type="curve" smooth="yes"/>
      <point x="813" y="-115" type="line" smooth="yes"/>
      <point x="788" y="-140"/>
      <point x="768" y="-131"/>
      <point x="768" y="-96" type="curve" smooth="yes"/>
      <point x="768" y="614" type="line" smooth="yes"/>
      <point x="765" y="607"/>
      <point x="761" y="601"/>
      <point x="755" y="595" type="curve" smooth="yes"/>
    </contour>
  </outline>
</glyph>
<glyph name="step_forward" format="1">
  <advance width="1024"/>
  <unicode hex="F051"/>
  <outline>
    <contour>
      <point x="45" y="-115" type="line" smooth="yes"/>
      <point x="20" y="-140"/>
      <point x="0" y="-131"/>
      <point x="0" y="-96" type="curve" smooth="yes"/>
      <point x="0" y="1376" type="line" smooth="yes"/>
      <point x="0" y="1411"/>
      <point x="20" y="1420"/>
      <point x="45" y="1395" type="curve" smooth="yes"/>
      <point x="755" y="685" type="line" smooth="yes"/>
      <point x="761" y="679"/>
      <point x="765" y="673"/>
      <point x="768" y="666" type="curve" smooth="yes"/>
      <point x="768" y="1344" type="line" smooth="yes"/>
      <point x="768" y="1379"/>
      <point x="797" y="1408"/>
      <point x="832" y="1408" type="curve" smooth="yes"/>
      <point x="960" y="1408" type="line" smooth="yes"/>
      <point x="995" y="1408"/>
      <point x="1024" y="1379"/>
      <point x="1024" y="1344" type="curve" smooth="yes"/>
      <point x="1024" y="-64" type="line" smooth="yes"/>
      <point x="1024" y="-99"/>
      <point x="995" y="-128"/>
      <point x="960" y="-128" type="curve" smooth="yes"/>
      <point x="832" y="-128" type="line" smooth="yes"/>
      <point x="797" y="-128"/>
      <point x="768" y="-99"/>
      <point x="768" y="-64" type="curve" smooth="yes"/>
      <point x="768" y="614" type="line" smooth="yes"/>
      <point x="765" y="607"/>
      <point x="761" y="601"/>
      <point x="755" y="595" type="curve" smooth="yes"/>
    </contour>
  </outline>
</glyph>
<glyph name="chevron_left" format="1">
  <advance width="1280"/>
  <unicode hex="F053"/>
  <outline>
    <contour>
      <point x="1171" y="1235" type="curve" smooth="yes"/>
      <point x="640" y="704" type="line"/>
      <point x="1171" y="173" type="line" smooth="yes"/>
      <point x="1196" y="148"/>
      <point x="1196" y="108"/>
      <point x="1171" y="83" type="curve" smooth="yes"/>
      <point x="1005" y="-83" type="line" smooth="yes"/>
      <point x="980" y="-108"/>
      <point x="940" y="-108"/>
      <point x="915" y="-83" type="curve" smooth="yes"/>
      <point x="173" y="659" type="line" smooth="yes"/>
      <point x="148" y="684"/>
      <point x="148" y="724"/>
      <point x="173" y="749" type="curve" smooth="yes"/>
      <point x="915" y="1491" type="line" smooth="yes"/>
      <point x="940" y="1516"/>
      <point x="980" y="1516"/>
      <point x="1005" y="1491" type="curve" smooth="yes"/>
      <point x="1171" y="1325" type="line" smooth="yes"/>
      <point x="1196" y="1300"/>
      <point x="1196" y="1260"/>
    </contour>
  </outline>
</glyph>
<glyph name="chevron_right" format="1">
  <advance width="1280"/>
  <unicode hex="F054"/>
  <outline>
    <contour>
      <point x="1107" y="659" type="curve" smooth="yes"/>
      <point x="365" y="-83" type="line" smooth="yes"/>
      <point x="340" y="-108"/>
      <point x="300" y="-108"/>
      <point x="275" y="-83" type="curve" smooth="yes"/>
      <point x="109" y="83" type="line" smooth="yes"/>
      <point x="84" y="108"/>
      <point x="84" y="148"/>
      <point x="109" y="173" type="curve" smooth="yes"/>
      <point x="640" y="704" type="line"/>
      <point x="109" y="1235" type="line" smooth="yes"/>
      <point x="84" y="1260"/>
      <point x="84" y="1300"/>
      <point x="109" y="1325" type="curve" smooth="yes"/>
      <point x="275" y="1491" type="line" smooth="yes"/>
      <point x="300" y="1516"/>
      <point x="340" y="1516"/>
      <point x="365" y="1491" type="curve" smooth="yes"/>
      <point x="1107" y="749" type="line" smooth="yes"/>
      <point x="1132" y="724"/>
      <point x="1132" y="684"/>
    </contour>
  </outline>
</glyph>
<glyph name="minus_circle" format="1">
  <advance width="1536"/>
  <unicode hex="F056"/>
  <outline>
    <contour>
      <point x="1216" y="576" type="curve" smooth="yes"/>
      <point x="1216" y="704" type="line" smooth="yes"/>
      <point x="1216" y="739"/>
      <point x="1187" y="768"/>
      <point x="1152" y="768" type="curve" smooth="yes"/>
      <point x="384" y="768" type="line" smooth="yes"/>
      <point x="349" y="768"/>
      <point x="320" y="739"/>
      <point x="320" y="704" type="curve" smooth="yes"/>
      <point x="320" y="576" type="line" smooth="yes"/>
      <point x="320" y="541"/>
      <point x="349" y="512"/>
      <point x="384" y="512" type="curve" smooth="yes"/>
      <point x="1152" y="512" type="line" smooth="yes"/>
      <point x="1187" y="512"/>
      <point x="1216" y="541"/>
    </contour>
    <contour>
      <point x="1536" y="640" type="curve" smooth="yes"/>
      <point x="1536" y="216"/>
      <point x="1192" y="-128"/>
      <point x="768" y="-128" type="curve" smooth="yes"/>
      <point x="344" y="-128"/>
      <point x="0" y="216"/>
      <point x="0" y="640" type="curve" smooth="yes"/>
      <point x="0" y="1064"/>
      <point x="344" y="1408"/>
      <point x="768" y="1408" type="curve" smooth="yes"/>
      <point x="1192" y="1408"/>
      <point x="1536" y="1064"/>
    </contour>
  </outline>
</glyph>
<glyph name="info_circle" format="1">
  <advance width="1536"/>
  <unicode hex="F05A"/>
  <outline>
    <contour>
      <point x="1024" y="160" type="curve" smooth="yes"/>
      <point x="1024" y="320" type="line" smooth="yes"/>
      <point x="1024" y="338"/>
      <point x="1010" y="352"/>
      <point x="992" y="352" type="curve" smooth="yes"/>
      <point x="896" y="352" type="line"/>
      <point x="896" y="864" type="line" smooth="yes"/>
      <point x="896" y="882"/>
      <point x="882" y="896"/>
      <point x="864" y="896" type="curve" smooth="yes"/>
      <point x="544" y="896" type="line" smooth="yes"/>
      <point x="526" y="896"/>
      <point x="512" y="882"/>
      <point x="512" y="864" type="curve" smooth="yes"/>
      <point x="512" y="704" type="line" smooth="yes"/>
      <point x="512" y="686"/>
      <point x="526" y="672"/>
      <point x="544" y="672" type="curve" smooth="yes"/>
      <point x="640" y="672" type="line"/>
      <point x="640" y="352" type="line"/>
      <point x="544" y="352" type="line" smooth="yes"/>
      <point x="526" y="352"/>
      <point x="512" y="338"/>
      <point x="512" y="320" type="curve" smooth="yes"/>
      <point x="512" y="160" type="line" smooth="yes"/>
      <point x="512" y="142"/>
      <point x="526" y="128"/>
      <point x="544" y="128" type="curve" smooth="yes"/>
      <point x="992" y="128" type="line" smooth="yes"/>
      <point x="1010" y="128"/>
      <point x="1024" y="142"/>
    </contour>
    <contour>
      <point x="896" y="1056" type="curve" smooth="yes"/>
      <point x="896" y="1216" type="line" smooth="yes"/>
      <point x="896" y="1234"/>
      <point x="882" y="1248"/>
      <point x="864" y="1248" type="curve" smooth="yes"/>
      <point x="672" y="1248" type="line" smooth="yes"/>
      <point x="654" y="1248"/>
      <point x="640" y="1234"/>
      <point x="640" y="1216" type="curve" smooth="yes"/>
      <point x="640" y="1056" type="line" smooth="yes"/>
      <point x="640" y="1038"/>
      <point x="654" y="1024"/>
      <point x="672" y="1024" type="curve" smooth="yes"/>
      <point x="864" y="1024" type="line" smooth="yes"/>
      <point x="882" y="1024"/>
      <point x="896" y="1038"/>
    </contour>
    <contour>
      <point x="1536" y="640" type="curve" smooth="yes"/>
      <point x="1536" y="216"/>
      <point x="1192" y="-128"/>
      <point x="768" y="-128" type="curve" smooth="yes"/>
      <point x="344" y="-128"/>
      <point x="0" y="216"/>
      <point x="0" y="640" type="curve" smooth="yes"/>
      <point x="0" y="1064"/>
      <point x="344" y="1408"/>
      <point x="768" y="1408" type="curve" smooth="yes"/>
      <point x="1192" y="1408"/>
      <point x="1536" y="1064"/>
    </contour>
  </outline>
</glyph>
<glyph name="times_circle_o" format="1">
  <advance width="1536"/>
  <unicode hex="F05C"/>
  <outline>
    <contour>
      <point x="1097" y="457" type="curve" smooth="yes"/>
      <point x="951" y="311" type="line" smooth="yes"/>
      <point x="938" y="298"/>
      <point x="918" y="298"/>
      <point x="905" y="311" type="curve" smooth="yes"/>
      <point x="768" y="448" type="line"/>
      <point x="631" y="311" type="line" smooth="yes"/>
      <point x="618" y="298"/>
      <point x="598" y="298"/>
      <point x="585" y="311" type="curve" smooth="yes"/>
      <point x="439" y="457" type="line" smooth="yes"/>
      <point x="426" y="470"/>
      <point x="426" y="490"/>
      <point x="439" y="503" type="curve" smooth="yes"/>
      <point x="576" y="640" type="line"/>
      <point x="439" y="777" type="line" smooth="yes"/>
      <point x="426" y="790"/>
      <point x="426" y="810"/>
      <point x="439" y="823" type="curve" smooth="yes"/>
      <point x="585" y="969" type="line" smooth="yes"/>
      <point x="598" y="982"/>
      <point x="618" y="982"/>
      <point x="631" y="969" type="curve" smooth="yes"/>
      <point x="768" y="832" type="line"/>
      <point x="905" y="969" type="line" smooth="yes"/>
      <point x="918" y="982"/>
      <point x="938" y="982"/>
      <point x="951" y="969" type="curve" smooth="yes"/>
      <point x="1097" y="823" type="line" smooth="yes"/>
      <point x="1110" y="810"/>
      <point x="1110" y="790"/>
      <point x="1097" y="777" type="curve" smooth="yes"/>
      <point x="960" y="640" type="line"/>
      <point x="1097" y="503" type="line" smooth="yes"/>
      <point x="1110" y="490"/>
      <point x="1110" y="470"/>
    </contour>
    <contour>
      <point x="1312" y="640" type="curve" smooth="yes"/>
      <point x="1312" y="940"/>
      <point x="1068" y="1184"/>
      <point x="768" y="1184" type="curve" smooth="yes"/>
      <point x="468" y="1184"/>
      <point x="224" y="940"/>
      <point x="224" y="640" type="curve" smooth="yes"/>
      <point x="224" y="340"/>
      <point x="468" y="96"/>
      <point x="768" y="96" type="curve" smooth="yes"/>
      <point x="1068" y="96"/>
      <point x="1312" y="340"/>
    </contour>
    <contour>
      <point x="1536" y="640" type="curve" smooth="yes"/>
      <point x="1536" y="216"/>
      <point x="1192" y="-128"/>
      <point x="768" y="-128" type="curve" smooth="yes"/>
      <point x="344" y="-128"/>
      <point x="0" y="216"/>
      <point x="0" y="640" type="curve" smooth="yes"/>
      <point x="0" y="1064"/>
      <point x="344" y="1408"/>
      <point x="768" y="1408" type="curve" smooth="yes"/>
      <point x="1192" y="1408"/>
      <point x="1536" y="1064"/>
    </contour>
  </outline>
</glyph>
<glyph name="check_circle_o" format="1">
  <advance width="1536"/>
  <unicode hex="F05D"/>
  <outline>
    <contour>
      <point x="1171" y="723" type="curve" smooth="yes"/>
      <point x="749" y="301" type="line" smooth="yes"/>
      <point x="724" y="276"/>
      <point x="684" y="276"/>
      <point x="659" y="301" type="curve" smooth="yes"/>
      <point x="365" y="595" type="line" smooth="yes"/>
      <point x="340" y="620"/>
      <point x="340" y="660"/>
      <point x="365" y="685" type="curve" smooth="yes"/>
      <point x="467" y="787" type="line" smooth="yes"/>
      <point x="492" y="812"/>
      <point x="532" y="812"/>
      <point x="557" y="787" type="curve" smooth="yes"/>
      <point x="704" y="640" type="line"/>
      <point x="979" y="915" type="line" smooth="yes"/>
      <point x="1004" y="940"/>
      <point x="1044" y="940"/>
      <point x="1069" y="915" type="curve" smooth="yes"/>
      <point x="1171" y="813" type="line" smooth="yes"/>
      <point x="1196" y="788"/>
      <point x="1196" y="748"/>
    </contour>
    <contour>
      <point x="1312" y="640" type="curve" smooth="yes"/>
      <point x="1312" y="940"/>
      <point x="1068" y="1184"/>
      <point x="768" y="1184" type="curve" smooth="yes"/>
      <point x="468" y="1184"/>
      <point x="224" y="940"/>
      <point x="224" y="640" type="curve" smooth="yes"/>
      <point x="224" y="340"/>
      <point x="468" y="96"/>
      <point x="768" y="96" type="curve" smooth="yes"/>
      <point x="1068" y="96"/>
      <point x="1312" y="340"/>
    </contour>
    <contour>
      <point x="1536" y="640" type="curve" smooth="yes"/>
      <point x="1536" y="216"/>
      <point x="1192" y="-128"/>
      <point x="768" y="-128" type="curve" smooth="yes"/>
      <point x="344" y="-128"/>
      <point x="0" y="216"/>
      <point x="0" y="640" type="curve" smooth="yes"/>
      <point x="0" y="1064"/>
      <point x="344" y="1408"/>
      <point x="768" y="1408" type="curve" smooth="yes"/>
      <point x="1192" y="1408"/>
      <point x="1536" y="1064"/>
    </contour>
  </outline>
</glyph>
<glyph name="ban" format="1">
  <advance width="1536"/>
  <unicode hex="F05E"/>
  <outline>
    <contour>
      <point x="1312" y="643" type="curve" smooth="yes"/>
      <point x="1312" y="752"/>
      <point x="1280" y="853"/>
      <point x="1225" y="938" type="curve"/>
      <point x="471" y="185" type="line"/>
      <point x="557" y="129"/>
      <point x="659" y="96"/>
      <point x="768" y="96" type="curve" smooth="yes"/>
      <point x="1068" y="96"/>
      <point x="1312" y="341"/>
    </contour>
    <contour>
      <point x="313" y="344" type="curve"/>
      <point x="1068" y="1098" type="line"/>
      <point x="982" y="1156"/>
      <point x="879" y="1189"/>
      <point x="768" y="1189" type="curve" smooth="yes"/>
      <point x="468" y="1189"/>
      <point x="224" y="944"/>
      <point x="224" y="643" type="curve" smooth="yes"/>
      <point x="224" y="532"/>
      <point x="257" y="430"/>
    </contour>
    <contour>
      <point x="1536" y="643" type="curve" smooth="yes"/>
      <point x="1536" y="217"/>
      <point x="1192" y="-128"/>
      <point x="768" y="-128" type="curve" smooth="yes"/>
      <point x="344" y="-128"/>
      <point x="0" y="217"/>
      <point x="0" y="643" type="curve" smooth="yes"/>
      <point x="0" y="1068"/>
      <point x="344" y="1413"/>
      <point x="768" y="1413" type="curve" smooth="yes"/>
      <point x="1192" y="1413"/>
      <point x="1536" y="1068"/>
    </contour>
  </outline>
</glyph>
<glyph name="arrow_left" format="1">
  <advance width="1536"/>
  <unicode hex="F060"/>
  <outline>
    <contour>
      <point x="1536" y="640" type="curve" smooth="yes"/>
      <point x="1536" y="512" type="line" smooth="yes"/>
      <point x="1536" y="444"/>
      <point x="1491" y="384"/>
      <point x="1419" y="384" type="curve" smooth="yes"/>
      <point x="715" y="384" type="line"/>
      <point x="1008" y="90" type="line" smooth="yes"/>
      <point x="1032" y="67"/>
      <point x="1046" y="34"/>
      <point x="1046" y="0" type="curve" smooth="yes"/>
      <point x="1046" y="-34"/>
      <point x="1032" y="-67"/>
      <point x="1008" y="-90" type="curve" smooth="yes"/>
      <point x="933" y="-166" type="line" smooth="yes"/>
      <point x="910" y="-189"/>
      <point x="877" y="-203"/>
      <point x="843" y="-203" type="curve" smooth="yes"/>
      <point x="809" y="-203"/>
      <point x="776" y="-189"/>
      <point x="752" y="-166" type="curve" smooth="yes"/>
      <point x="101" y="486" type="line" smooth="yes"/>
      <point x="78" y="509"/>
      <point x="64" y="542"/>
      <point x="64" y="576" type="curve" smooth="yes"/>
      <point x="64" y="610"/>
      <point x="78" y="643"/>
      <point x="101" y="667" type="curve" smooth="yes"/>
      <point x="752" y="1317" type="line" smooth="yes"/>
      <point x="776" y="1341"/>
      <point x="809" y="1355"/>
      <point x="843" y="1355" type="curve" smooth="yes"/>
      <point x="877" y="1355"/>
      <point x="909" y="1341"/>
      <point x="933" y="1317" type="curve" smooth="yes"/>
      <point x="1008" y="1243" type="line" smooth="yes"/>
      <point x="1032" y="1219"/>
      <point x="1046" y="1186"/>
      <point x="1046" y="1152" type="curve" smooth="yes"/>
      <point x="1046" y="1118"/>
      <point x="1032" y="1085"/>
      <point x="1008" y="1061" type="curve" smooth="yes"/>
      <point x="715" y="768" type="line"/>
      <point x="1419" y="768" type="line" smooth="yes"/>
      <point x="1491" y="768"/>
      <point x="1536" y="708"/>
    </contour>
  </outline>
</glyph>
<glyph name="arrow_up" format="1">
  <advance width="1664"/>
  <unicode hex="F062"/>
  <outline>
    <contour>
      <point x="1611" y="565" type="curve" smooth="yes"/>
      <point x="1611" y="531"/>
      <point x="1597" y="499"/>
      <point x="1574" y="475" type="curve" smooth="yes"/>
      <point x="1499" y="400" type="line" smooth="yes"/>
      <point x="1475" y="376"/>
      <point x="1442" y="362"/>
      <point x="1408" y="362" type="curve" smooth="yes"/>
      <point x="1374" y="362"/>
      <point x="1341" y="376"/>
      <point x="1318" y="400" type="curve" smooth="yes"/>
      <point x="1024" y="693" type="line"/>
      <point x="1024" y="-11" type="line" smooth="yes"/>
      <point x="1024" y="-83"/>
      <point x="964" y="-128"/>
      <point x="896" y="-128" type="curve" smooth="yes"/>
      <point x="768" y="-128" type="line" smooth="yes"/>
      <point x="700" y="-128"/>
      <point x="640" y="-83"/>
      <point x="640" y="-11" type="curve" smooth="yes"/>
      <point x="640" y="693" type="line"/>
      <point x="346" y="400" type="line" smooth="yes"/>
      <point x="323" y="376"/>
      <point x="290" y="362"/>
      <point x="256" y="362" type="curve" smooth="yes"/>
      <point x="222" y="362"/>
      <point x="189" y="376"/>
      <point x="166" y="400" type="curve" smooth="yes"/>
      <point x="91" y="475" type="line" smooth="yes"/>
      <point x="67" y="499"/>
      <point x="53" y="531"/>
      <point x="53" y="565" type="curve" smooth="yes"/>
      <point x="53" y="599"/>
      <point x="67" y="632"/>
      <point x="91" y="656" type="curve" smooth="yes"/>
      <point x="742" y="1307" type="line" smooth="yes"/>
      <point x="765" y="1331"/>
      <point x="798" y="1344"/>
      <point x="832" y="1344" type="curve" smooth="yes"/>
      <point x="866" y="1344"/>
      <point x="899" y="1331"/>
      <point x="923" y="1307" type="curve" smooth="yes"/>
      <point x="1574" y="656" type="line" smooth="yes"/>
      <point x="1597" y="632"/>
      <point x="1611" y="599"/>
    </contour>
  </outline>
</glyph>
<glyph name="uniF1E0" format="1">
  <advance width="1792"/>
  <unicode hex="F064"/>
  <outline>
    <contour>
      <point x="1792" y="896" type="curve" smooth="yes"/>
      <point x="1792" y="879"/>
      <point x="1785" y="863"/>
      <point x="1773" y="851" type="curve" smooth="yes"/>
      <point x="1261" y="339" type="line" smooth="yes"/>
      <point x="1249" y="327"/>
      <point x="1233" y="320"/>
      <point x="1216" y="320" type="curve" smooth="yes"/>
      <point x="1181" y="320"/>
      <point x="1152" y="349"/>
      <point x="1152" y="384" type="curve" smooth="yes"/>
      <point x="1152" y="640" type="line"/>
      <point x="928" y="640" type="line" smooth="yes"/>
      <point x="497" y="640"/>
      <point x="214" y="557"/>
      <point x="214" y="80" type="curve" smooth="yes"/>
      <point x="214" y="39"/>
      <point x="216" y="-2"/>
      <point x="219" y="-43" type="curve" smooth="yes"/>
      <point x="220" y="-59"/>
      <point x="224" y="-77"/>
      <point x="224" y="-93" type="curve" smooth="yes"/>
      <point x="224" y="-112"/>
      <point x="212" y="-128"/>
      <point x="192" y="-128" type="curve" smooth="yes"/>
      <point x="178" y="-128"/>
      <point x="171" y="-121"/>
      <point x="164" y="-111" type="curve" smooth="yes"/>
      <point x="149" y="-90"/>
      <point x="138" y="-58"/>
      <point x="127" y="-35" type="curve" smooth="yes"/>
      <point x="70" y="93"/>
      <point x="0" y="276"/>
      <point x="0" y="416" type="curve" smooth="yes"/>
      <point x="0" y="528"/>
      <point x="11" y="643"/>
      <point x="53" y="749" type="curve" smooth="yes"/>
      <point x="192" y="1094"/>
      <point x="600" y="1152"/>
      <point x="928" y="1152" type="curve" smooth="yes"/>
      <point x="1152" y="1152" type="line"/>
      <point x="1152" y="1408" type="line" smooth="yes"/>
      <point x="1152" y="1443"/>
      <point x="1181" y="1472"/>
      <point x="1216" y="1472" type="curve" smooth="yes"/>
      <point x="1233" y="1472"/>
      <point x="1249" y="1465"/>
      <point x="1261" y="1453" type="curve" smooth="yes"/>
      <point x="1773" y="941" type="line" smooth="yes"/>
      <point x="1785" y="929"/>
      <point x="1792" y="913"/>
    </contour>
  </outline>
</glyph>
<glyph name="eye" format="1">
  <advance width="1792"/>
  <unicode hex="F06E"/>
  <outline>
    <contour>
      <point x="1664" y="576" type="curve"/>
      <point x="1569" y="723"/>
      <point x="1439" y="849"/>
      <point x="1283" y="929" type="curve"/>
      <point x="1323" y="861"/>
      <point x="1344" y="783"/>
      <point x="1344" y="704" type="curve" smooth="yes"/>
      <point x="1344" y="457"/>
      <point x="1143" y="256"/>
      <point x="896" y="256" type="curve" smooth="yes"/>
      <point x="649" y="256"/>
      <point x="448" y="457"/>
      <point x="448" y="704" type="curve" smooth="yes"/>
      <point x="448" y="783"/>
      <point x="469" y="861"/>
      <point x="509" y="929" type="curve"/>
      <point x="353" y="849"/>
      <point x="223" y="723"/>
      <point x="128" y="576" type="curve"/>
      <point x="299" y="312"/>
      <point x="575" y="128"/>
      <point x="896" y="128" type="curve" smooth="yes"/>
      <point x="1217" y="128"/>
      <point x="1493" y="312"/>
    </contour>
    <contour>
      <point x="944" y="960" type="curve" smooth="yes"/>
      <point x="944" y="986"/>
      <point x="922" y="1008"/>
      <point x="896" y="1008" type="curve" smooth="yes"/>
      <point x="729" y="1008"/>
      <point x="592" y="871"/>
      <point x="592" y="704" type="curve" smooth="yes"/>
      <point x="592" y="678"/>
      <point x="614" y="656"/>
      <point x="640" y="656" type="curve" smooth="yes"/>
      <point x="666" y="656"/>
      <point x="688" y="678"/>
      <point x="688" y="704" type="curve" smooth="yes"/>
      <point x="688" y="818"/>
      <point x="782" y="912"/>
      <point x="896" y="912" type="curve" smooth="yes"/>
      <point x="922" y="912"/>
      <point x="944" y="934"/>
    </contour>
    <contour>
      <point x="1792" y="576" type="curve" smooth="yes"/>
      <point x="1792" y="551"/>
      <point x="1784" y="528"/>
      <point x="1772" y="507" type="curve" smooth="yes"/>
      <point x="1588" y="204"/>
      <point x="1251" y="0"/>
      <point x="896" y="0" type="curve" smooth="yes"/>
      <point x="541" y="0"/>
      <point x="204" y="205"/>
      <point x="20" y="507" type="curve" smooth="yes"/>
      <point x="8" y="528"/>
      <point x="0" y="551"/>
      <point x="0" y="576" type="curve" smooth="yes"/>
      <point x="0" y="601"/>
      <point x="8" y="624"/>
      <point x="20" y="645" type="curve" smooth="yes"/>
      <point x="204" y="947"/>
      <point x="541" y="1152"/>
      <point x="896" y="1152" type="curve" smooth="yes"/>
      <point x="1251" y="1152"/>
      <point x="1588" y="947"/>
      <point x="1772" y="645" type="curve" smooth="yes"/>
      <point x="1784" y="624"/>
      <point x="1792" y="601"/>
    </contour>
  </outline>
</glyph>
<glyph name="eye_slash" format="1">
  <advance width="1792"/>
  <unicode hex="F070"/>
  <outline>
    <contour>
      <point x="555" y="201" type="curve"/>
      <point x="633" y="342" type="line"/>
      <point x="517" y="426"/>
      <point x="448" y="561"/>
      <point x="448" y="704" type="curve" smooth="yes"/>
      <point x="448" y="783"/>
      <point x="469" y="861"/>
      <point x="509" y="929" type="curve"/>
      <point x="353" y="849"/>
      <point x="223" y="723"/>
      <point x="128" y="576" type="curve"/>
      <point x="232" y="415"/>
      <point x="379" y="280"/>
    </contour>
    <contour>
      <point x="944" y="960" type="curve" smooth="yes"/>
      <point x="944" y="986"/>
      <point x="922" y="1008"/>
      <point x="896" y="1008" type="curve" smooth="yes"/>
      <point x="729" y="1008"/>
      <point x="592" y="871"/>
      <point x="592" y="704" type="curve" smooth="yes"/>
      <point x="592" y="678"/>
      <point x="614" y="656"/>
      <point x="640" y="656" type="curve" smooth="yes"/>
      <point x="666" y="656"/>
      <point x="688" y="678"/>
      <point x="688" y="704" type="curve" smooth="yes"/>
      <point x="688" y="819"/>
      <point x="782" y="912"/>
      <point x="896" y="912" type="curve" smooth="yes"/>
      <point x="922" y="912"/>
      <point x="944" y="934"/>
    </contour>
    <contour>
      <point x="1307" y="1151" type="curve" smooth="yes"/>
      <point x="1307" y="1149"/>
      <point x="1307" y="1144"/>
      <point x="1306" y="1142" type="curve" smooth="yes"/>
      <point x="1095" y="765"/>
      <point x="886" y="386"/>
      <point x="675" y="9" type="curve" smooth="yes"/>
      <point x="626" y="-80" type="line" smooth="yes"/>
      <point x="620" y="-90"/>
      <point x="609" y="-96"/>
      <point x="598" y="-96" type="curve" smooth="yes"/>
      <point x="580" y="-96"/>
      <point x="485" y="-38"/>
      <point x="464" y="-26" type="curve" smooth="yes"/>
      <point x="454" y="-20"/>
      <point x="448" y="-10"/>
      <point x="448" y="2" type="curve" smooth="yes"/>
      <point x="448" y="18"/>
      <point x="482" y="72"/>
      <point x="492" y="89" type="curve"/>
      <point x="298" y="177"/>
      <point x="135" y="327"/>
      <point x="20" y="507" type="curve" smooth="yes"/>
      <point x="7" y="527"/>
      <point x="0" y="551"/>
      <point x="0" y="576" type="curve" smooth="yes"/>
      <point x="0" y="600"/>
      <point x="7" y="625"/>
      <point x="20" y="645" type="curve" smooth="yes"/>
      <point x="218" y="949"/>
      <point x="527" y="1152"/>
      <point x="896" y="1152" type="curve" smooth="yes"/>
      <point x="956" y="1152"/>
      <point x="1017" y="1146"/>
      <point x="1076" y="1135" type="curve"/>
      <point x="1130" y="1232" type="line" smooth="yes"/>
      <point x="1136" y="1242"/>
      <point x="1146" y="1248"/>
      <point x="1158" y="1248" type="curve" smooth="yes"/>
      <point x="1176" y="1248"/>
      <point x="1270" y="1190"/>
      <point x="1291" y="1178" type="curve" smooth="yes"/>
      <point x="1301" y="1172"/>
      <point x="1307" y="1162"/>
    </contour>
    <contour>
      <point x="1344" y="704" type="curve" smooth="yes"/>
      <point x="1344" y="518"/>
      <point x="1229" y="352"/>
      <point x="1056" y="286" type="curve"/>
      <point x="1336" y="788" type="line"/>
      <point x="1341" y="760"/>
      <point x="1344" y="732"/>
    </contour>
    <contour>
      <point x="1792" y="576" type="curve" smooth="yes"/>
      <point x="1792" y="550"/>
      <point x="1785" y="529"/>
      <point x="1772" y="507" type="curve" smooth="yes"/>
      <point x="1741" y="456"/>
      <point x="1702" y="407"/>
      <point x="1663" y="362" type="curve" smooth="yes"/>
      <point x="1467" y="137"/>
      <point x="1197" y="0"/>
      <point x="896" y="0" type="curve"/>
      <point x="970" y="132" type="line"/>
      <point x="1261" y="157"/>
      <point x="1508" y="334"/>
      <point x="1664" y="576" type="curve"/>
      <point x="1590" y="691"/>
      <point x="1495" y="792"/>
      <point x="1382" y="870" type="curve"/>
      <point x="1445" y="982" type="line"/>
      <point x="1569" y="899"/>
      <point x="1694" y="774"/>
      <point x="1772" y="645" type="curve" smooth="yes"/>
      <point x="1785" y="623"/>
      <point x="1792" y="602"/>
    </contour>
  </outline>
</glyph>
<glyph name="exclamation_triangle" format="1">
  <advance width="1792"/>
  <unicode hex="F071"/>
  <outline>
    <contour>
      <point x="1024" y="161" type="curve" smooth="yes"/>
      <point x="1024" y="351" type="line" smooth="yes"/>
      <point x="1024" y="369"/>
      <point x="1010" y="384"/>
      <point x="992" y="384" type="curve" smooth="yes"/>
      <point x="800" y="384" type="line" smooth="yes"/>
      <point x="782" y="384"/>
      <point x="768" y="369"/>
      <point x="768" y="351" type="curve" smooth="yes"/>
      <point x="768" y="161" type="line" smooth="yes"/>
      <point x="768" y="143"/>
      <point x="782" y="128"/>
      <point x="800" y="128" type="curve" smooth="yes"/>
      <point x="992" y="128" type="line" smooth="yes"/>
      <point x="1010" y="128"/>
      <point x="1024" y="143"/>
    </contour>
    <contour>
      <point x="1022" y="535" type="curve" smooth="yes"/>
      <point x="1040" y="994" type="line" smooth="yes"/>
      <point x="1040" y="1000"/>
      <point x="1037" y="1008"/>
      <point x="1030" y="1013" type="curve" smooth="yes"/>
      <point x="1024" y="1018"/>
      <point x="1015" y="1024"/>
      <point x="1006" y="1024" type="curve" smooth="yes"/>
      <point x="786" y="1024" type="line" smooth="yes"/>
      <point x="777" y="1024"/>
      <point x="768" y="1018"/>
      <point x="762" y="1013" type="curve" smooth="yes"/>
      <point x="755" y="1008"/>
      <point x="752" y="998"/>
      <point x="752" y="992" type="curve" smooth="yes"/>
      <point x="769" y="535" type="line" smooth="yes"/>
      <point x="769" y="522"/>
      <point x="784" y="512"/>
      <point x="803" y="512" type="curve" smooth="yes"/>
      <point x="988" y="512" type="line" smooth="yes"/>
      <point x="1006" y="512"/>
      <point x="1021" y="522"/>
    </contour>
    <contour>
      <point x="1008" y="1469" type="curve" smooth="yes"/>
      <point x="1776" y="61" type="line" smooth="yes"/>
      <point x="1798" y="22"/>
      <point x="1797" y="-26"/>
      <point x="1774" y="-65" type="curve" smooth="yes"/>
      <point x="1751" y="-104"/>
      <point x="1709" y="-128"/>
      <point x="1664" y="-128" type="curve" smooth="yes"/>
      <point x="128" y="-128" type="line" smooth="yes"/>
      <point x="83" y="-128"/>
      <point x="41" y="-104"/>
      <point x="18" y="-65" type="curve" smooth="yes"/>
      <point x="-5" y="-26"/>
      <point x="-6" y="22"/>
      <point x="16" y="61" type="curve" smooth="yes"/>
      <point x="784" y="1469" type="line" smooth="yes"/>
      <point x="806" y="1510"/>
      <point x="849" y="1536"/>
      <point x="896" y="1536" type="curve" smooth="yes"/>
      <point x="943" y="1536"/>
      <point x="986" y="1510"/>
    </contour>
  </outline>
</glyph>
<glyph name="calendar" format="1">
  <advance width="1664"/>
  <unicode hex="F073"/>
  <outline>
    <contour>
      <point x="128" y="-128" type="line"/>
      <point x="416" y="-128" type="line"/>
      <point x="416" y="160" type="line"/>
      <point x="128" y="160" type="line"/>
    </contour>
    <contour>
      <point x="480" y="-128" type="line"/>
      <point x="800" y="-128" type="line"/>
      <point x="800" y="160" type="line"/>
      <point x="480" y="160" type="line"/>
    </contour>
    <contour>
      <point x="128" y="224" type="line"/>
      <point x="416" y="224" type="line"/>
      <point x="416" y="544" type="line"/>
      <point x="128" y="544" type="line"/>
    </contour>
    <contour>
      <point x="480" y="224" type="line"/>
      <point x="800" y="224" type="line"/>
      <point x="800" y="544" type="line"/>
      <point x="480" y="544" type="line"/>
    </contour>
    <contour>
      <point x="128" y="608" type="line"/>
      <point x="416" y="608" type="line"/>
      <point x="416" y="896" type="line"/>
      <point x="128" y="896" type="line"/>
    </contour>
    <contour>
      <point x="864" y="-128" type="line"/>
      <point x="1184" y="-128" type="line"/>
      <point x="1184" y="160" type="line"/>
      <point x="864" y="160" type="line"/>
    </contour>
    <contour>
      <point x="480" y="608" type="line"/>
      <point x="800" y="608" type="line"/>
      <point x="800" y="896" type="line"/>
      <point x="480" y="896" type="line"/>
    </contour>
    <contour>
      <point x="1248" y="-128" type="line"/>
      <point x="1536" y="-128" type="line"/>
      <point x="1536" y="160" type="line"/>
      <point x="1248" y="160" type="line"/>
    </contour>
    <contour>
      <point x="864" y="224" type="line"/>
      <point x="1184" y="224" type="line"/>
      <point x="1184" y="544" type="line"/>
      <point x="864" y="544" type="line"/>
    </contour>
    <contour>
      <point x="512" y="1088" type="curve" smooth="yes"/>
      <point x="512" y="1376" type="line" smooth="yes"/>
      <point x="512" y="1393"/>
      <point x="497" y="1408"/>
      <point x="480" y="1408" type="curve" smooth="yes"/>
      <point x="416" y="1408" type="line" smooth="yes"/>
      <point x="399" y="1408"/>
      <point x="384" y="1393"/>
      <point x="384" y="1376" type="curve" smooth="yes"/>
      <point x="384" y="1088" type="line" smooth="yes"/>
      <point x="384" y="1071"/>
      <point x="399" y="1056"/>
      <point x="416" y="1056" type="curve" smooth="yes"/>
      <point x="480" y="1056" type="line" smooth="yes"/>
      <point x="497" y="1056"/>
      <point x="512" y="1071"/>
    </contour>
    <contour>
      <point x="1248" y="224" type="line"/>
      <point x="1536" y="224" type="line"/>
      <point x="1536" y="544" type="line"/>
      <point x="1248" y="544" type="line"/>
    </contour>
    <contour>
      <point x="864" y="608" type="line"/>
      <point x="1184" y="608" type="line"/>
      <point x="1184" y="896" type="line"/>
      <point x="864" y="896" type="line"/>
    </contour>
    <contour>
      <point x="1248" y="608" type="line"/>
      <point x="1536" y="608" type="line"/>
      <point x="1536" y="896" type="line"/>
      <point x="1248" y="896" type="line"/>
    </contour>
    <contour>
      <point x="1280" y="1088" type="curve" smooth="yes"/>
      <point x="1280" y="1376" type="line" smooth="yes"/>
      <point x="1280" y="1393"/>
      <point x="1265" y="1408"/>
      <point x="1248" y="1408" type="curve" smooth="yes"/>
      <point x="1184" y="1408" type="line" smooth="yes"/>
      <point x="1167" y="1408"/>
      <point x="1152" y="1393"/>
      <point x="1152" y="1376" type="curve" smooth="yes"/>
      <point x="1152" y="1088" type="line" smooth="yes"/>
      <point x="1152" y="1071"/>
      <point x="1167" y="1056"/>
      <point x="1184" y="1056" type="curve" smooth="yes"/>
      <point x="1248" y="1056" type="line" smooth="yes"/>
      <point x="1265" y="1056"/>
      <point x="1280" y="1071"/>
    </contour>
    <contour>
      <point x="1664" y="1152" type="curve" smooth="yes"/>
      <point x="1664" y="-128" type="line" smooth="yes"/>
      <point x="1664" y="-198"/>
      <point x="1606" y="-256"/>
      <point x="1536" y="-256" type="curve" smooth="yes"/>
      <point x="128" y="-256" type="line" smooth="yes"/>
      <point x="58" y="-256"/>
      <point x="0" y="-198"/>
      <point x="0" y="-128" type="curve" smooth="yes"/>
      <point x="0" y="1152" type="line" smooth="yes"/>
      <point x="0" y="1222"/>
      <point x="58" y="1280"/>
      <point x="128" y="1280" type="curve" smooth="yes"/>
      <point x="256" y="1280" type="line"/>
      <point x="256" y="1376" type="line" smooth="yes"/>
      <point x="256" y="1464"/>
      <point x="328" y="1536"/>
      <point x="416" y="1536" type="curve" smooth="yes"/>
      <point x="480" y="1536" type="line" smooth="yes"/>
      <point x="568" y="1536"/>
      <point x="640" y="1464"/>
      <point x="640" y="1376" type="curve" smooth="yes"/>
      <point x="640" y="1280" type="line"/>
      <point x="1024" y="1280" type="line"/>
      <point x="1024" y="1376" type="line" smooth="yes"/>
      <point x="1024" y="1464"/>
      <point x="1096" y="1536"/>
      <point x="1184" y="1536" type="curve" smooth="yes"/>
      <point x="1248" y="1536" type="line" smooth="yes"/>
      <point x="1336" y="1536"/>
      <point x="1408" y="1464"/>
      <point x="1408" y="1376" type="curve" smooth="yes"/>
      <point x="1408" y="1280" type="line"/>
      <point x="1536" y="1280" type="line" smooth="yes"/>
      <point x="1606" y="1280"/>
      <point x="1664" y="1222"/>
    </contour>
  </outline>
</glyph>
<glyph name="random" format="1">
  <advance width="1792"/>
  <unicode hex="F074"/>
  <outline>
    <contour>
      <point x="666" y="1055" type="curve"/>
      <point x="610" y="969"/>
      <point x="569" y="876"/>
      <point x="529" y="782" type="curve"/>
      <point x="471" y="903"/>
      <point x="407" y="1024"/>
      <point x="256" y="1024" type="curve" smooth="yes"/>
      <point x="32" y="1024" type="line" smooth="yes"/>
      <point x="14" y="1024"/>
      <point x="0" y="1038"/>
      <point x="0" y="1056" type="curve" smooth="yes"/>
      <point x="0" y="1248" type="line" smooth="yes"/>
      <point x="0" y="1266"/>
      <point x="14" y="1280"/>
      <point x="32" y="1280" type="curve" smooth="yes"/>
      <point x="256" y="1280" type="line" smooth="yes"/>
      <point x="434" y="1280"/>
      <point x="565" y="1197"/>
    </contour>
    <contour>
      <point x="1792" y="256" type="curve" smooth="yes"/>
      <point x="1792" y="248"/>
      <point x="1789" y="239"/>
      <point x="1783" y="233" type="curve" smooth="yes"/>
      <point x="1463" y="-87" type="line" smooth="yes"/>
      <point x="1457" y="-93"/>
      <point x="1448" y="-96"/>
      <point x="1440" y="-96" type="curve" smooth="yes"/>
      <point x="1423" y="-96"/>
      <point x="1408" y="-81"/>
      <point x="1408" y="-64" type="curve" smooth="yes"/>
      <point x="1408" y="128" type="line"/>
      <point x="1111" y="128"/>
      <point x="928" y="93"/>
      <point x="743" y="353" type="curve"/>
      <point x="798" y="439"/>
      <point x="839" y="532"/>
      <point x="879" y="626" type="curve"/>
      <point x="937" y="505"/>
      <point x="1001" y="384"/>
      <point x="1152" y="384" type="curve" smooth="yes"/>
      <point x="1408" y="384" type="line"/>
      <point x="1408" y="576" type="line" smooth="yes"/>
      <point x="1408" y="594"/>
      <point x="1422" y="608"/>
      <point x="1440" y="608" type="curve" smooth="yes"/>
      <point x="1449" y="608"/>
      <point x="1457" y="604"/>
      <point x="1464" y="598" type="curve" smooth="yes"/>
      <point x="1783" y="279" type="line" smooth="yes"/>
      <point x="1789" y="273"/>
      <point x="1792" y="264"/>
    </contour>
    <contour>
      <point x="1792" y="1152" type="curve" smooth="yes"/>
      <point x="1792" y="1144"/>
      <point x="1789" y="1135"/>
      <point x="1783" y="1129" type="curve" smooth="yes"/>
      <point x="1463" y="809" type="line" smooth="yes"/>
      <point x="1457" y="803"/>
      <point x="1448" y="800"/>
      <point x="1440" y="800" type="curve" smooth="yes"/>
      <point x="1423" y="800"/>
      <point x="1408" y="814"/>
      <point x="1408" y="832" type="curve" smooth="yes"/>
      <point x="1408" y="1024" type="line"/>
      <point x="1152" y="1024" type="line" smooth="yes"/>
      <point x="1019" y="1024"/>
      <point x="956" y="933"/>
      <point x="900" y="825" type="curve" smooth="yes"/>
      <point x="871" y="769"/>
      <point x="846" y="711"/>
      <point x="822" y="654" type="curve" smooth="yes"/>
      <point x="711" y="396"/>
      <point x="581" y="128"/>
      <point x="256" y="128" type="curve" smooth="yes"/>
      <point x="32" y="128" type="line" smooth="yes"/>
      <point x="14" y="128"/>
      <point x="0" y="142"/>
      <point x="0" y="160" type="curve" smooth="yes"/>
      <point x="0" y="352" type="line" smooth="yes"/>
      <point x="0" y="370"/>
      <point x="14" y="384"/>
      <point x="32" y="384" type="curve" smooth="yes"/>
      <point x="256" y="384" type="line" smooth="yes"/>
      <point x="389" y="384"/>
      <point x="452" y="475"/>
      <point x="508" y="583" type="curve" smooth="yes"/>
      <point x="537" y="639"/>
      <point x="562" y="697"/>
      <point x="586" y="754" type="curve" smooth="yes"/>
      <point x="697" y="1012"/>
      <point x="827" y="1280"/>
      <point x="1152" y="1280" type="curve" smooth="yes"/>
      <point x="1408" y="1280" type="line"/>
      <point x="1408" y="1472" type="line" smooth="yes"/>
      <point x="1408" y="1490"/>
      <point x="1422" y="1504"/>
      <point x="1440" y="1504" type="curve" smooth="yes"/>
      <point x="1449" y="1504"/>
      <point x="1457" y="1500"/>
      <point x="1464" y="1494" type="curve" smooth="yes"/>
      <point x="1783" y="1175" type="line" smooth="yes"/>
      <point x="1789" y="1169"/>
      <point x="1792" y="1160"/>
    </contour>
  </outline>
</glyph>
<glyph name="comment" format="1">
  <advance width="1792"/>
  <unicode hex="F075"/>
  <outline>
    <contour>
      <point x="1792" y="640" type="curve" smooth="yes"/>
      <point x="1792" y="286"/>
      <point x="1391" y="0"/>
      <point x="896" y="0" type="curve" smooth="yes"/>
      <point x="847" y="0"/>
      <point x="798" y="3"/>
      <point x="751" y="8" type="curve"/>
      <point x="620" y="-108"/>
      <point x="464" y="-190"/>
      <point x="291" y="-234" type="curve" smooth="yes"/>
      <point x="255" y="-244"/>
      <point x="216" y="-251"/>
      <point x="177" y="-256" type="curve" smooth="yes"/>
      <point x="155" y="-258"/>
      <point x="134" y="-242"/>
      <point x="129" y="-218" type="curve" smooth="yes"/>
      <point x="129" y="-217"/>
      <point x="129" y="-217"/>
      <point x="129" y="-217" type="curve"/>
      <point x="124" y="-192"/>
      <point x="141" y="-177"/>
      <point x="156" y="-159" type="curve" smooth="yes"/>
      <point x="219" y="-88"/>
      <point x="291" y="-28"/>
      <point x="338" y="139" type="curve"/>
      <point x="132" y="256"/>
      <point x="0" y="437"/>
      <point x="0" y="640" type="curve" smooth="yes"/>
      <point x="0" y="993"/>
      <point x="401" y="1280"/>
      <point x="896" y="1280" type="curve" smooth="yes"/>
      <point x="1391" y="1280"/>
      <point x="1792" y="994"/>
    </contour>
  </outline>
</glyph>
<glyph name="chevron_up" format="1">
  <advance width="1792"/>
  <unicode hex="F077"/>
  <outline>
    <contour>
      <point x="1683" y="205" type="curve" smooth="yes"/>
      <point x="1517" y="40" type="line" smooth="yes"/>
      <point x="1492" y="15"/>
      <point x="1452" y="15"/>
      <point x="1427" y="40" type="curve" smooth="yes"/>
      <point x="896" y="571" type="line"/>
      <point x="365" y="40" type="line" smooth="yes"/>
      <point x="340" y="15"/>
      <point x="300" y="15"/>
      <point x="275" y="40" type="curve" smooth="yes"/>
      <point x="109" y="205" type="line" smooth="yes"/>
      <point x="84" y="230"/>
      <point x="84" y="271"/>
      <point x="109" y="296" type="curve" smooth="yes"/>
      <point x="851" y="1037" type="line" smooth="yes"/>
      <point x="876" y="1062"/>
      <point x="916" y="1062"/>
      <point x="941" y="1037" type="curve" smooth="yes"/>
      <point x="1683" y="296" type="line" smooth="yes"/>
      <point x="1708" y="271"/>
      <point x="1708" y="230"/>
    </contour>
  </outline>
</glyph>
<glyph name="chevron_down" format="1">
  <advance width="1792"/>
  <unicode hex="F078"/>
  <outline>
    <contour>
      <point x="1683" y="728" type="curve" smooth="yes"/>
      <point x="941" y="-13" type="line" smooth="yes"/>
      <point x="916" y="-38"/>
      <point x="876" y="-38"/>
      <point x="851" y="-13" type="curve" smooth="yes"/>
      <point x="109" y="728" type="line" smooth="yes"/>
      <point x="84" y="753"/>
      <point x="84" y="794"/>
      <point x="109" y="819" type="curve" smooth="yes"/>
      <point x="275" y="984" type="line" smooth="yes"/>
      <point x="300" y="1009"/>
      <point x="340" y="1009"/>
      <point x="365" y="984" type="curve" smooth="yes"/>
      <point x="896" y="453" type="line"/>
      <point x="1427" y="984" type="line" smooth="yes"/>
      <point x="1452" y="1009"/>
      <point x="1492" y="1009"/>
      <point x="1517" y="984" type="curve" smooth="yes"/>
      <point x="1683" y="819" type="line" smooth="yes"/>
      <point x="1708" y="794"/>
      <point x="1708" y="753"/>
    </contour>
  </outline>
</glyph>
<glyph name="retweet" format="1">
  <advance width="1920"/>
  <unicode hex="F079"/>
  <outline>
    <contour>
      <point x="1280" y="32" type="curve" smooth="yes"/>
      <point x="1280" y="15"/>
      <point x="1265" y="0"/>
      <point x="1248" y="0" type="curve" smooth="yes"/>
      <point x="288" y="0" type="line" smooth="yes"/>
      <point x="251" y="0"/>
      <point x="256" y="39"/>
      <point x="256" y="64" type="curve" smooth="yes"/>
      <point x="256" y="224" type="line"/>
      <point x="256" y="640" type="line"/>
      <point x="64" y="640" type="line" smooth="yes"/>
      <point x="29" y="640"/>
      <point x="0" y="669"/>
      <point x="0" y="704" type="curve" smooth="yes"/>
      <point x="0" y="719"/>
      <point x="5" y="734"/>
      <point x="15" y="745" type="curve" smooth="yes"/>
      <point x="335" y="1129" type="line" smooth="yes"/>
      <point x="347" y="1143"/>
      <point x="365" y="1151"/>
      <point x="384" y="1151" type="curve" smooth="yes"/>
      <point x="403" y="1151"/>
      <point x="421" y="1143"/>
      <point x="433" y="1129" type="curve" smooth="yes"/>
      <point x="753" y="745" type="line" smooth="yes"/>
      <point x="763" y="734"/>
      <point x="768" y="719"/>
      <point x="768" y="704" type="curve" smooth="yes"/>
      <point x="768" y="669"/>
      <point x="739" y="640"/>
      <point x="704" y="640" type="curve" smooth="yes"/>
      <point x="512" y="640" type="line"/>
      <point x="512" y="256" type="line"/>
      <point x="1088" y="256" type="line" smooth="yes"/>
      <point x="1097" y="256"/>
      <point x="1107" y="252"/>
      <point x="1113" y="245" type="curve" smooth="yes"/>
      <point x="1273" y="53" type="line" smooth="yes"/>
      <point x="1277" y="47"/>
      <point x="1280" y="39"/>
    </contour>
    <contour>
      <point x="1920" y="448" type="curve" smooth="yes"/>
      <point x="1920" y="433"/>
      <point x="1915" y="418"/>
      <point x="1905" y="407" type="curve" smooth="yes"/>
      <point x="1585" y="23" type="line" smooth="yes"/>
      <point x="1573" y="9"/>
      <point x="1555" y="0"/>
      <point x="1536" y="0" type="curve" smooth="yes"/>
      <point x="1517" y="0"/>
      <point x="1499" y="9"/>
      <point x="1487" y="23" type="curve" smooth="yes"/>
      <point x="1167" y="407" type="line" smooth="yes"/>
      <point x="1157" y="418"/>
      <point x="1152" y="433"/>
      <point x="1152" y="448" type="curve" smooth="yes"/>
      <point x="1152" y="483"/>
      <point x="1181" y="512"/>
      <point x="1216" y="512" type="curve" smooth="yes"/>
      <point x="1408" y="512" type="line"/>
      <point x="1408" y="896" type="line"/>
      <point x="832" y="896" type="line" smooth="yes"/>
      <point x="823" y="896"/>
      <point x="813" y="900"/>
      <point x="807" y="908" type="curve" smooth="yes"/>
      <point x="647" y="1100" type="line" smooth="yes"/>
      <point x="643" y="1105"/>
      <point x="640" y="1113"/>
      <point x="640" y="1120" type="curve" smooth="yes"/>
      <point x="640" y="1137"/>
      <point x="655" y="1152"/>
      <point x="672" y="1152" type="curve" smooth="yes"/>
      <point x="1632" y="1152" type="line" smooth="yes"/>
      <point x="1669" y="1152"/>
      <point x="1664" y="1113"/>
      <point x="1664" y="1088" type="curve" smooth="yes"/>
      <point x="1664" y="928" type="line"/>
      <point x="1664" y="512" type="line"/>
      <point x="1856" y="512" type="line" smooth="yes"/>
      <point x="1891" y="512"/>
      <point x="1920" y="483"/>
    </contour>
  </outline>
</glyph>
<glyph name="shopping_cart" format="1">
  <advance width="1664"/>
  <unicode hex="F07A"/>
  <outline>
    <contour>
      <point x="640" y="0" type="curve" smooth="yes"/>
      <point x="640" y="-70"/>
      <point x="582" y="-128"/>
      <point x="512" y="-128" type="curve" smooth="yes"/>
      <point x="442" y="-128"/>
      <point x="384" y="-70"/>
      <point x="384" y="0" type="curve" smooth="yes"/>
      <point x="384" y="70"/>
      <point x="442" y="128"/>
      <point x="512" y="128" type="curve" smooth="yes"/>
      <point x="582" y="128"/>
      <point x="640" y="70"/>
    </contour>
    <contour>
      <point x="1536" y="0" type="curve" smooth="yes"/>
      <point x="1536" y="-70"/>
      <point x="1478" y="-128"/>
      <point x="1408" y="-128" type="curve" smooth="yes"/>
      <point x="1338" y="-128"/>
      <point x="1280" y="-70"/>
      <point x="1280" y="0" type="curve" smooth="yes"/>
      <point x="1280" y="70"/>
      <point x="1338" y="128"/>
      <point x="1408" y="128" type="curve" smooth="yes"/>
      <point x="1478" y="128"/>
      <point x="1536" y="70"/>
    </contour>
    <contour>
      <point x="1664" y="1088" type="curve" smooth="yes"/>
      <point x="1664" y="576" type="line" smooth="yes"/>
      <point x="1664" y="544"/>
      <point x="1639" y="516"/>
      <point x="1607" y="512" type="curve" smooth="yes"/>
      <point x="563" y="390" type="line"/>
      <point x="568" y="367"/>
      <point x="576" y="344"/>
      <point x="576" y="320" type="curve" smooth="yes"/>
      <point x="576" y="297"/>
      <point x="562" y="276"/>
      <point x="552" y="256" type="curve"/>
      <point x="1472" y="256" type="line" smooth="yes"/>
      <point x="1507" y="256"/>
      <point x="1536" y="227"/>
      <point x="1536" y="192" type="curve" smooth="yes"/>
      <point x="1536" y="157"/>
      <point x="1507" y="128"/>
      <point x="1472" y="128" type="curve" smooth="yes"/>
      <point x="448" y="128" type="line" smooth="yes"/>
      <point x="413" y="128"/>
      <point x="384" y="157"/>
      <point x="384" y="192" type="curve" smooth="yes"/>
      <point x="384" y="223"/>
      <point x="429" y="298"/>
      <point x="445" y="329" type="curve"/>
      <point x="268" y="1152" type="line"/>
      <point x="64" y="1152" type="line" smooth="yes"/>
      <point x="29" y="1152"/>
      <point x="0" y="1181"/>
      <point x="0" y="1216" type="curve" smooth="yes"/>
      <point x="0" y="1251"/>
      <point x="29" y="1280"/>
      <point x="64" y="1280" type="curve" smooth="yes"/>
      <point x="320" y="1280" type="line" smooth="yes"/>
      <point x="387" y="1280"/>
      <point x="389" y="1200"/>
      <point x="399" y="1152" type="curve"/>
      <point x="1600" y="1152" type="line" smooth="yes"/>
      <point x="1635" y="1152"/>
      <point x="1664" y="1123"/>
    </contour>
  </outline>
</glyph>
<glyph name="folder" format="1">
  <advance width="1664"/>
  <unicode hex="F07B"/>
  <outline>
    <contour>
      <point x="1664" y="928" type="curve" smooth="yes"/>
      <point x="1664" y="224" type="line" smooth="yes"/>
      <point x="1664" y="101"/>
      <point x="1563" y="0"/>
      <point x="1440" y="0" type="curve" smooth="yes"/>
      <point x="224" y="0" type="line" smooth="yes"/>
      <point x="101" y="0"/>
      <point x="0" y="101"/>
      <point x="0" y="224" type="curve" smooth="yes"/>
      <point x="0" y="1184" type="line" smooth="yes"/>
      <point x="0" y="1307"/>
      <point x="101" y="1408"/>
      <point x="224" y="1408" type="curve" smooth="yes"/>
      <point x="544" y="1408" type="line" smooth="yes"/>
      <point x="667" y="1408"/>
      <point x="768" y="1307"/>
      <point x="768" y="1184" type="curve" smooth="yes"/>
      <point x="768" y="1152" type="line"/>
      <point x="1440" y="1152" type="line" smooth="yes"/>
      <point x="1563" y="1152"/>
      <point x="1664" y="1051"/>
    </contour>
  </outline>
</glyph>
<glyph name="folder_open" format="1">
  <advance width="1920"/>
  <unicode hex="F07C"/>
  <outline>
    <contour>
      <point x="1879" y="584" type="curve" smooth="yes"/>
      <point x="1879" y="560"/>
      <point x="1864" y="536"/>
      <point x="1848" y="518" type="curve" smooth="yes"/>
      <point x="1512" y="122" type="line" smooth="yes"/>
      <point x="1454" y="54"/>
      <point x="1336" y="0"/>
      <point x="1248" y="0" type="curve" smooth="yes"/>
      <point x="160" y="0" type="line" smooth="yes"/>
      <point x="124" y="0"/>
      <point x="73" y="11"/>
      <point x="73" y="56" type="curve" smooth="yes"/>
      <point x="73" y="80"/>
      <point x="88" y="104"/>
      <point x="104" y="122" type="curve" smooth="yes"/>
      <point x="440" y="518" type="line" smooth="yes"/>
      <point x="498" y="586"/>
      <point x="616" y="640"/>
      <point x="704" y="640" type="curve" smooth="yes"/>
      <point x="1792" y="640" type="line" smooth="yes"/>
      <point x="1828" y="640"/>
      <point x="1879" y="629"/>
    </contour>
    <contour>
      <point x="1536" y="928" type="curve" smooth="yes"/>
      <point x="1536" y="768" type="line"/>
      <point x="704" y="768" type="line" smooth="yes"/>
      <point x="579" y="768"/>
      <point x="424" y="697"/>
      <point x="343" y="601" type="curve" smooth="yes"/>
      <point x="6" y="205" type="line"/>
      <point x="1" y="199" type="line"/>
      <point x="1" y="207"/>
      <point x="0" y="216"/>
      <point x="0" y="224" type="curve" smooth="yes"/>
      <point x="0" y="1184" type="line" smooth="yes"/>
      <point x="0" y="1307"/>
      <point x="101" y="1408"/>
      <point x="224" y="1408" type="curve" smooth="yes"/>
      <point x="544" y="1408" type="line" smooth="yes"/>
      <point x="667" y="1408"/>
      <point x="768" y="1307"/>
      <point x="768" y="1184" type="curve" smooth="yes"/>
      <point x="768" y="1152" type="line"/>
      <point x="1312" y="1152" type="line" smooth="yes"/>
      <point x="1435" y="1152"/>
      <point x="1536" y="1051"/>
    </contour>
  </outline>
</glyph>
<glyph name="bar_chart" format="1">
  <advance width="2048"/>
  <unicode hex="F080"/>
  <outline>
    <contour>
      <point x="640" y="640" type="line"/>
      <point x="640" y="128" type="line"/>
      <point x="384" y="128" type="line"/>
      <point x="384" y="640" type="line"/>
    </contour>
    <contour>
      <point x="1024" y="1152" type="line"/>
      <point x="1024" y="128" type="line"/>
      <point x="768" y="128" type="line"/>
      <point x="768" y="1152" type="line"/>
    </contour>
    <contour>
      <point x="2048" y="0" type="line"/>
      <point x="2048" y="-128" type="line"/>
      <point x="0" y="-128" type="line"/>
      <point x="0" y="1408" type="line"/>
      <point x="128" y="1408" type="line"/>
      <point x="128" y="0" type="line"/>
    </contour>
    <contour>
      <point x="1408" y="896" type="line"/>
      <point x="1408" y="128" type="line"/>
      <point x="1152" y="128" type="line"/>
      <point x="1152" y="896" type="line"/>
    </contour>
    <contour>
      <point x="1792" y="1280" type="line"/>
      <point x="1792" y="128" type="line"/>
      <point x="1536" y="128" type="line"/>
      <point x="1536" y="1280" type="line"/>
    </contour>
  </outline>
</glyph>
<glyph name="facebook_square" format="1">
  <advance width="1536"/>
  <unicode hex="F082"/>
  <outline>
    <contour>
      <point x="1248" y="1408" type="line" smooth="yes"/>
      <point x="1407" y="1408"/>
      <point x="1536" y="1279"/>
      <point x="1536" y="1120" type="curve" smooth="yes"/>
      <point x="1536" y="160" type="line" smooth="yes"/>
      <point x="1536" y="1"/>
      <point x="1407" y="-128"/>
      <point x="1248" y="-128" type="curve" smooth="yes"/>
      <point x="1060" y="-128" type="line"/>
      <point x="1060" y="467" type="line"/>
      <point x="1259" y="467" type="line"/>
      <point x="1289" y="699" type="line"/>
      <point x="1060" y="699" type="line"/>
      <point x="1060" y="847" type="line" smooth="yes"/>
      <point x="1060" y="914"/>
      <point x="1078" y="959"/>
      <point x="1175" y="959" type="curve" smooth="yes"/>
      <point x="1297" y="960" type="line"/>
      <point x="1297" y="1167" type="line"/>
      <point x="1276" y="1170"/>
      <point x="1203" y="1176"/>
      <point x="1119" y="1176" type="curve" smooth="yes"/>
      <point x="942" y="1176"/>
      <point x="820" y="1068"/>
      <point x="820" y="870" type="curve" smooth="yes"/>
      <point x="820" y="699" type="line"/>
      <point x="620" y="699" type="line"/>
      <point x="620" y="467" type="line"/>
      <point x="820" y="467" type="line"/>
      <point x="820" y="-128" type="line"/>
      <point x="288" y="-128" type="line" smooth="yes"/>
      <point x="129" y="-128"/>
      <point x="0" y="1"/>
      <point x="0" y="160" type="curve" smooth="yes"/>
      <point x="0" y="1120" type="line" smooth="yes"/>
      <point x="0" y="1279"/>
      <point x="129" y="1408"/>
      <point x="288" y="1408" type="curve" smooth="yes"/>
    </contour>
  </outline>
</glyph>
<glyph name="thumbs_o_up" format="1">
  <advance width="1536"/>
  <unicode hex="F087"/>
  <outline>
    <contour>
      <point x="256" y="192" type="curve" smooth="yes"/>
      <point x="256" y="227"/>
      <point x="227" y="256"/>
      <point x="192" y="256" type="curve" smooth="yes"/>
      <point x="157" y="256"/>
      <point x="128" y="227"/>
      <point x="128" y="192" type="curve" smooth="yes"/>
      <point x="128" y="157"/>
      <point x="157" y="128"/>
      <point x="192" y="128" type="curve" smooth="yes"/>
      <point x="227" y="128"/>
      <point x="256" y="157"/>
    </contour>
    <contour>
      <point x="1408" y="768" type="curve" smooth="yes"/>
      <point x="1408" y="836"/>
      <point x="1347" y="896"/>
      <point x="1280" y="896" type="curve" smooth="yes"/>
      <point x="928" y="896" type="line"/>
      <point x="928" y="1013"/>
      <point x="1024" y="1098"/>
      <point x="1024" y="1216" type="curve" smooth="yes"/>
      <point x="1024" y="1333"/>
      <point x="1001" y="1408"/>
      <point x="864" y="1408" type="curve"/>
      <point x="800" y="1343"/>
      <point x="833" y="1190"/>
      <point x="736" y="1088" type="curve" smooth="yes"/>
      <point x="708" y="1059"/>
      <point x="684" y="1028"/>
      <point x="659" y="997" type="curve" smooth="yes"/>
      <point x="614" y="939"/>
      <point x="495" y="768"/>
      <point x="416" y="768" type="curve" smooth="yes"/>
      <point x="384" y="768" type="line"/>
      <point x="384" y="128" type="line"/>
      <point x="416" y="128" type="line" smooth="yes"/>
      <point x="472" y="128"/>
      <point x="564" y="92"/>
      <point x="618" y="73" type="curve" smooth="yes"/>
      <point x="728" y="35"/>
      <point x="842" y="0"/>
      <point x="960" y="0" type="curve" smooth="yes"/>
      <point x="1081" y="0" type="line" smooth="yes"/>
      <point x="1194" y="0"/>
      <point x="1273" y="45"/>
      <point x="1273" y="167" type="curve" smooth="yes"/>
      <point x="1273" y="186"/>
      <point x="1271" y="205"/>
      <point x="1268" y="223" type="curve"/>
      <point x="1310" y="246"/>
      <point x="1333" y="303"/>
      <point x="1333" y="349" type="curve" smooth="yes"/>
      <point x="1333" y="373"/>
      <point x="1327" y="397"/>
      <point x="1315" y="418" type="curve"/>
      <point x="1349" y="450"/>
      <point x="1368" y="490"/>
      <point x="1368" y="537" type="curve" smooth="yes"/>
      <point x="1368" y="569"/>
      <point x="1354" y="616"/>
      <point x="1333" y="640" type="curve"/>
      <point x="1380" y="641"/>
      <point x="1408" y="731"/>
    </contour>
    <contour>
      <point x="1536" y="769" type="curve" smooth="yes"/>
      <point x="1536" y="711"/>
      <point x="1519" y="654"/>
      <point x="1487" y="606" type="curve"/>
      <point x="1493" y="584"/>
      <point x="1496" y="560"/>
      <point x="1496" y="537" type="curve" smooth="yes"/>
      <point x="1496" y="487"/>
      <point x="1483" y="437"/>
      <point x="1458" y="393" type="curve"/>
      <point x="1460" y="379"/>
      <point x="1461" y="364"/>
      <point x="1461" y="350" type="curve" smooth="yes"/>
      <point x="1461" y="286"/>
      <point x="1440" y="222"/>
      <point x="1401" y="172" type="curve"/>
      <point x="1403" y="-17"/>
      <point x="1274" y="-128"/>
      <point x="1089" y="-128" type="curve" smooth="yes"/>
      <point x="1053" y="-128" type="line"/>
      <point x="960" y="-128" type="line" smooth="yes"/>
      <point x="818" y="-128"/>
      <point x="686" y="-86"/>
      <point x="554" y="-40" type="curve" smooth="yes"/>
      <point x="525" y="-30"/>
      <point x="444" y="0"/>
      <point x="416" y="0" type="curve" smooth="yes"/>
      <point x="128" y="0" type="line" smooth="yes"/>
      <point x="57" y="0"/>
      <point x="0" y="57"/>
      <point x="0" y="128" type="curve" smooth="yes"/>
      <point x="0" y="768" type="line" smooth="yes"/>
      <point x="0" y="839"/>
      <point x="57" y="896"/>
      <point x="128" y="896" type="curve" smooth="yes"/>
      <point x="402" y="896" type="line"/>
      <point x="441" y="922"/>
      <point x="509" y="1012"/>
      <point x="539" y="1051" type="curve" smooth="yes"/>
      <point x="573" y="1095"/>
      <point x="608" y="1138"/>
      <point x="646" y="1179" type="curve" smooth="yes"/>
      <point x="706" y="1243"/>
      <point x="674" y="1401"/>
      <point x="774" y="1499" type="curve" smooth="yes"/>
      <point x="798" y="1522"/>
      <point x="830" y="1536"/>
      <point x="864" y="1536" type="curve" smooth="yes"/>
      <point x="968" y="1536"/>
      <point x="1068" y="1499"/>
      <point x="1117" y="1402" type="curve" smooth="yes"/>
      <point x="1148" y="1341"/>
      <point x="1152" y="1283"/>
      <point x="1152" y="1216" type="curve" smooth="yes"/>
      <point x="1152" y="1146"/>
      <point x="1134" y="1086"/>
      <point x="1104" y="1024" type="curve"/>
      <point x="1280" y="1024" type="line" smooth="yes"/>
      <point x="1418" y="1024"/>
      <point x="1536" y="907"/>
    </contour>
  </outline>
</glyph>
<glyph name="linkedin_square" format="1">
  <advance width="1536"/>
  <unicode hex="F08C"/>
  <outline>
    <contour>
      <point x="237" y="122" type="line"/>
      <point x="468" y="122" type="line"/>
      <point x="468" y="816" type="line"/>
      <point x="237" y="816" type="line"/>
    </contour>
    <contour>
      <point x="483" y="1030" type="curve" smooth="yes"/>
      <point x="482" y="1098"/>
      <point x="433" y="1150"/>
      <point x="354" y="1150" type="curve" smooth="yes"/>
      <point x="275" y="1150"/>
      <point x="223" y="1098"/>
      <point x="223" y="1030" type="curve" smooth="yes"/>
      <point x="223" y="964"/>
      <point x="273" y="910"/>
      <point x="351" y="910" type="curve" smooth="yes"/>
      <point x="352" y="910" type="line"/>
      <point x="352" y="910" type="line"/>
      <point x="433" y="910"/>
      <point x="483" y="964"/>
    </contour>
    <contour>
      <point x="1068" y="122" type="line"/>
      <point x="1299" y="122" type="line"/>
      <point x="1299" y="520" type="line" smooth="yes"/>
      <point x="1299" y="733"/>
      <point x="1185" y="832"/>
      <point x="1033" y="832" type="curve" smooth="yes"/>
      <point x="909" y="832"/>
      <point x="854" y="763"/>
      <point x="824" y="715" type="curve"/>
      <point x="826" y="715" type="line"/>
      <point x="826" y="816" type="line"/>
      <point x="595" y="816" type="line"/>
      <point x="595" y="816"/>
      <point x="598" y="751"/>
      <point x="595" y="122" type="curve"/>
      <point x="595" y="122" type="line"/>
      <point x="826" y="122" type="line"/>
      <point x="826" y="510" type="line" smooth="yes"/>
      <point x="826" y="530"/>
      <point x="827" y="551"/>
      <point x="833" y="566" type="curve" smooth="yes"/>
      <point x="850" y="607"/>
      <point x="888" y="650"/>
      <point x="952" y="650" type="curve" smooth="yes"/>
      <point x="1035" y="650"/>
      <point x="1068" y="587"/>
      <point x="1068" y="493" type="curve" smooth="yes"/>
    </contour>
    <contour>
      <point x="1536" y="1120" type="curve" smooth="yes"/>
      <point x="1536" y="160" type="line" smooth="yes"/>
      <point x="1536" y="1"/>
      <point x="1407" y="-128"/>
      <point x="1248" y="-128" type="curve" smooth="yes"/>
      <point x="288" y="-128" type="line" smooth="yes"/>
      <point x="129" y="-128"/>
      <point x="0" y="1"/>
      <point x="0" y="160" type="curve" smooth="yes"/>
      <point x="0" y="1120" type="line" smooth="yes"/>
      <point x="0" y="1279"/>
      <point x="129" y="1408"/>
      <point x="288" y="1408" type="curve" smooth="yes"/>
      <point x="1248" y="1408" type="line" smooth="yes"/>
      <point x="1407" y="1408"/>
      <point x="1536" y="1279"/>
    </contour>
  </outline>
</glyph>
<glyph name="upload" format="1">
  <advance width="1664"/>
  <unicode hex="F093"/>
  <outline>
    <contour>
      <point x="1280" y="64" type="curve" smooth="yes"/>
      <point x="1280" y="99"/>
      <point x="1251" y="128"/>
      <point x="1216" y="128" type="curve" smooth="yes"/>
      <point x="1181" y="128"/>
      <point x="1152" y="99"/>
      <point x="1152" y="64" type="curve" smooth="yes"/>
      <point x="1152" y="29"/>
      <point x="1181" y="0"/>
      <point x="1216" y="0" type="curve" smooth="yes"/>
      <point x="1251" y="0"/>
      <point x="1280" y="29"/>
    </contour>
    <contour>
      <point x="1536" y="64" type="curve" smooth="yes"/>
      <point x="1536" y="99"/>
      <point x="1507" y="128"/>
      <point x="1472" y="128" type="curve" smooth="yes"/>
      <point x="1437" y="128"/>
      <point x="1408" y="99"/>
      <point x="1408" y="64" type="curve" smooth="yes"/>
      <point x="1408" y="29"/>
      <point x="1437" y="0"/>
      <point x="1472" y="0" type="curve" smooth="yes"/>
      <point x="1507" y="0"/>
      <point x="1536" y="29"/>
    </contour>
    <contour>
      <point x="1664" y="288" type="curve" smooth="yes"/>
      <point x="1664" y="-32" type="line" smooth="yes"/>
      <point x="1664" y="-85"/>
      <point x="1621" y="-128"/>
      <point x="1568" y="-128" type="curve" smooth="yes"/>
      <point x="96" y="-128" type="line" smooth="yes"/>
      <point x="43" y="-128"/>
      <point x="0" y="-85"/>
      <point x="0" y="-32" type="curve" smooth="yes"/>
      <point x="0" y="288" type="line" smooth="yes"/>
      <point x="0" y="341"/>
      <point x="43" y="384"/>
      <point x="96" y="384" type="curve" smooth="yes"/>
      <point x="523" y="384" type="line"/>
      <point x="550" y="310"/>
      <point x="621" y="256"/>
      <point x="704" y="256" type="curve" smooth="yes"/>
      <point x="960" y="256" type="line" smooth="yes"/>
      <point x="1043" y="256"/>
      <point x="1114" y="310"/>
      <point x="1141" y="384" type="curve"/>
      <point x="1568" y="384" type="line" smooth="yes"/>
      <point x="1621" y="384"/>
      <point x="1664" y="341"/>
    </contour>
    <contour>
      <point x="1339" y="936" type="curve" smooth="yes"/>
      <point x="1329" y="912"/>
      <point x="1306" y="896"/>
      <point x="1280" y="896" type="curve" smooth="yes"/>
      <point x="1024" y="896" type="line"/>
      <point x="1024" y="448" type="line" smooth="yes"/>
      <point x="1024" y="413"/>
      <point x="995" y="384"/>
      <point x="960" y="384" type="curve" smooth="yes"/>
      <point x="704" y="384" type="line" smooth="yes"/>
      <point x="669" y="384"/>
      <point x="640" y="413"/>
      <point x="640" y="448" type="curve" smooth="yes"/>
      <point x="640" y="896" type="line"/>
      <point x="384" y="896" type="line" smooth="yes"/>
      <point x="358" y="896"/>
      <point x="335" y="912"/>
      <point x="325" y="936" type="curve" smooth="yes"/>
      <point x="315" y="959"/>
      <point x="320" y="987"/>
      <point x="339" y="1005" type="curve" smooth="yes"/>
      <point x="787" y="1453" type="line" smooth="yes"/>
      <point x="799" y="1466"/>
      <point x="816" y="1472"/>
      <point x="832" y="1472" type="curve" smooth="yes"/>
      <point x="848" y="1472"/>
      <point x="865" y="1466"/>
      <point x="877" y="1453" type="curve" smooth="yes"/>
      <point x="1325" y="1005" type="line" smooth="yes"/>
      <point x="1344" y="987"/>
      <point x="1349" y="959"/>
    </contour>
  </outline>
</glyph>
<glyph name="square_o" format="1">
  <advance width="1408"/>
  <unicode hex="F096"/>
  <outline>
    <contour>
      <point x="1120" y="1280" type="curve" smooth="yes"/>
      <point x="288" y="1280" type="line" smooth="yes"/>
      <point x="200" y="1280"/>
      <point x="128" y="1208"/>
      <point x="128" y="1120" type="curve" smooth="yes"/>
      <point x="128" y="288" type="line" smooth="yes"/>
      <point x="128" y="200"/>
      <point x="200" y="128"/>
      <point x="288" y="128" type="curve" smooth="yes"/>
      <point x="1120" y="128" type="line" smooth="yes"/>
      <point x="1208" y="128"/>
      <point x="1280" y="200"/>
      <point x="1280" y="288" type="curve" smooth="yes"/>
      <point x="1280" y="1120" type="line" smooth="yes"/>
      <point x="1280" y="1208"/>
      <point x="1208" y="1280"/>
    </contour>
    <contour>
      <point x="1408" y="1120" type="curve" smooth="yes"/>
      <point x="1408" y="288" type="line" smooth="yes"/>
      <point x="1408" y="129"/>
      <point x="1279" y="0"/>
      <point x="1120" y="0" type="curve" smooth="yes"/>
      <point x="288" y="0" type="line" smooth="yes"/>
      <point x="129" y="0"/>
      <point x="0" y="129"/>
      <point x="0" y="288" type="curve" smooth="yes"/>
      <point x="0" y="1120" type="line" smooth="yes"/>
      <point x="0" y="1279"/>
      <point x="129" y="1408"/>
      <point x="288" y="1408" type="curve" smooth="yes"/>
      <point x="1120" y="1408" type="line"/>
      <point x="1120" y="1408" type="line"/>
      <point x="1279" y="1408"/>
      <point x="1408" y="1279"/>
    </contour>
  </outline>
</glyph>
<glyph name="facebook" format="1">
  <advance width="1024"/>
  <unicode hex="F09A"/>
  <outline>
    <contour>
      <point x="959" y="1524" type="curve"/>
      <point x="959" y="1260" type="line"/>
      <point x="802" y="1260" type="line" smooth="yes"/>
      <point x="679" y="1260"/>
      <point x="656" y="1201"/>
      <point x="656" y="1116" type="curve" smooth="yes"/>
      <point x="656" y="927" type="line"/>
      <point x="949" y="927" type="line"/>
      <point x="910" y="631" type="line"/>
      <point x="656" y="631" type="line"/>
      <point x="656" y="-128" type="line"/>
      <point x="350" y="-128" type="line"/>
      <point x="350" y="631" type="line"/>
      <point x="95" y="631" type="line"/>
      <point x="95" y="927" type="line"/>
      <point x="350" y="927" type="line"/>
      <point x="350" y="1145" type="line" smooth="yes"/>
      <point x="350" y="1398"/>
      <point x="505" y="1536"/>
      <point x="731" y="1536" type="curve" smooth="yes"/>
      <point x="839" y="1536"/>
      <point x="932" y="1528"/>
    </contour>
  </outline>
</glyph>
<glyph name="unlock" format="1">
  <advance width="1664"/>
  <unicode hex="F09C"/>
  <outline>
    <contour>
      <point x="1664" y="960" type="curve" smooth="yes"/>
      <point x="1664" y="704" type="line" smooth="yes"/>
      <point x="1664" y="669"/>
      <point x="1635" y="640"/>
      <point x="1600" y="640" type="curve" smooth="yes"/>
      <point x="1536" y="640" type="line" smooth="yes"/>
      <point x="1501" y="640"/>
      <point x="1472" y="669"/>
      <point x="1472" y="704" type="curve" smooth="yes"/>
      <point x="1472" y="960" type="line" smooth="yes"/>
      <point x="1472" y="1101"/>
      <point x="1357" y="1216"/>
      <point x="1216" y="1216" type="curve" smooth="yes"/>
      <point x="1075" y="1216"/>
      <point x="960" y="1101"/>
      <point x="960" y="960" type="curve" smooth="yes"/>
      <point x="960" y="768" type="line"/>
      <point x="1056" y="768" type="line" smooth="yes"/>
      <point x="1109" y="768"/>
      <point x="1152" y="725"/>
      <point x="1152" y="672" type="curve" smooth="yes"/>
      <point x="1152" y="96" type="line" smooth="yes"/>
      <point x="1152" y="43"/>
      <point x="1109" y="0"/>
      <point x="1056" y="0" type="curve" smooth="yes"/>
      <point x="96" y="0" type="line" smooth="yes"/>
      <point x="43" y="0"/>
      <point x="0" y="43"/>
      <point x="0" y="96" type="curve" smooth="yes"/>
      <point x="0" y="672" type="line" smooth="yes"/>
      <point x="0" y="725"/>
      <point x="43" y="768"/>
      <point x="96" y="768" type="curve" smooth="yes"/>
      <point x="768" y="768" type="line"/>
      <point x="768" y="960" type="line" smooth="yes"/>
      <point x="768" y="1207"/>
      <point x="969" y="1408"/>
      <point x="1216" y="1408" type="curve" smooth="yes"/>
      <point x="1463" y="1408"/>
      <point x="1664" y="1207"/>
    </contour>
  </outline>
</glyph>
<glyph name="credit_card" format="1">
  <advance width="1920"/>
  <unicode hex="F09D"/>
  <outline>
    <contour>
      <point x="1760" y="1408" type="line" smooth="yes"/>
      <point x="1848" y="1408"/>
      <point x="1920" y="1336"/>
      <point x="1920" y="1248" type="curve" smooth="yes"/>
      <point x="1920" y="32" type="line" smooth="yes"/>
      <point x="1920" y="-56"/>
      <point x="1848" y="-128"/>
      <point x="1760" y="-128" type="curve" smooth="yes"/>
      <point x="160" y="-128" type="line" smooth="yes"/>
      <point x="72" y="-128"/>
      <point x="0" y="-56"/>
      <point x="0" y="32" type="curve" smooth="yes"/>
      <point x="0" y="1248" type="line" smooth="yes"/>
      <point x="0" y="1336"/>
      <point x="72" y="1408"/>
      <point x="160" y="1408" type="curve" smooth="yes"/>
    </contour>
    <contour>
      <point x="160" y="1280" type="line" smooth="yes"/>
      <point x="143" y="1280"/>
      <point x="128" y="1265"/>
      <point x="128" y="1248" type="curve" smooth="yes"/>
      <point x="128" y="1024" type="line"/>
      <point x="1792" y="1024" type="line"/>
      <point x="1792" y="1248" type="line" smooth="yes"/>
      <point x="1792" y="1265"/>
      <point x="1777" y="1280"/>
      <point x="1760" y="1280" type="curve" smooth="yes"/>
    </contour>
    <contour>
      <point x="1760" y="0" type="line" smooth="yes"/>
      <point x="1777" y="0"/>
      <point x="1792" y="15"/>
      <point x="1792" y="32" type="curve" smooth="yes"/>
      <point x="1792" y="640" type="line"/>
      <point x="128" y="640" type="line"/>
      <point x="128" y="32" type="line" smooth="yes"/>
      <point x="128" y="15"/>
      <point x="143" y="0"/>
      <point x="160" y="0" type="curve" smooth="yes"/>
    </contour>
    <contour>
      <point x="256" y="128" type="line"/>
      <point x="256" y="256" type="line"/>
      <point x="512" y="256" type="line"/>
      <point x="512" y="128" type="line"/>
    </contour>
    <contour>
      <point x="640" y="128" type="line"/>
      <point x="640" y="256" type="line"/>
      <point x="1024" y="256" type="line"/>
      <point x="1024" y="128" type="line"/>
    </contour>
  </outline>
</glyph>
<glyph name="rss" format="1">
  <advance width="1408"/>
  <unicode hex="F09E"/>
  <outline>
    <contour>
      <point x="384" y="192" type="curve" smooth="yes"/>
      <point x="384" y="86"/>
      <point x="298" y="0"/>
      <point x="192" y="0" type="curve" smooth="yes"/>
      <point x="86" y="0"/>
      <point x="0" y="86"/>
      <point x="0" y="192" type="curve" smooth="yes"/>
      <point x="0" y="298"/>
      <point x="86" y="384"/>
      <point x="192" y="384" type="curve" smooth="yes"/>
      <point x="298" y="384"/>
      <point x="384" y="298"/>
    </contour>
    <contour>
      <point x="896" y="69" type="curve" smooth="yes"/>
      <point x="897" y="51"/>
      <point x="891" y="34"/>
      <point x="879" y="21" type="curve" smooth="yes"/>
      <point x="867" y="7"/>
      <point x="850" y="0"/>
      <point x="832" y="0" type="curve" smooth="yes"/>
      <point x="697" y="0" type="line" smooth="yes"/>
      <point x="664" y="0"/>
      <point x="637" y="25"/>
      <point x="634" y="58" type="curve" smooth="yes"/>
      <point x="605" y="363"/>
      <point x="363" y="605"/>
      <point x="58" y="634" type="curve" smooth="yes"/>
      <point x="25" y="637"/>
      <point x="0" y="664"/>
      <point x="0" y="697" type="curve" smooth="yes"/>
      <point x="0" y="832" type="line" smooth="yes"/>
      <point x="0" y="850"/>
      <point x="7" y="867"/>
      <point x="21" y="879" type="curve" smooth="yes"/>
      <point x="32" y="890"/>
      <point x="48" y="896"/>
      <point x="64" y="896" type="curve" smooth="yes"/>
      <point x="66" y="896"/>
      <point x="67" y="896"/>
      <point x="69" y="896" type="curve" smooth="yes"/>
      <point x="282" y="879"/>
      <point x="483" y="786"/>
      <point x="634" y="634" type="curve" smooth="yes"/>
      <point x="786" y="483"/>
      <point x="879" y="282"/>
    </contour>
    <contour>
      <point x="1408" y="67" type="curve" smooth="yes"/>
      <point x="1409" y="50"/>
      <point x="1403" y="33"/>
      <point x="1390" y="20" type="curve" smooth="yes"/>
      <point x="1378" y="7"/>
      <point x="1362" y="0"/>
      <point x="1344" y="0" type="curve" smooth="yes"/>
      <point x="1201" y="0" type="line" smooth="yes"/>
      <point x="1167" y="0"/>
      <point x="1139" y="26"/>
      <point x="1137" y="60" type="curve" smooth="yes"/>
      <point x="1104" y="641"/>
      <point x="641" y="1104"/>
      <point x="60" y="1138" type="curve" smooth="yes"/>
      <point x="26" y="1140"/>
      <point x="0" y="1168"/>
      <point x="0" y="1201" type="curve" smooth="yes"/>
      <point x="0" y="1344" type="line" smooth="yes"/>
      <point x="0" y="1362"/>
      <point x="7" y="1378"/>
      <point x="20" y="1390" type="curve" smooth="yes"/>
      <point x="32" y="1402"/>
      <point x="48" y="1408"/>
      <point x="64" y="1408" type="curve" smooth="yes"/>
      <point x="65" y="1408"/>
      <point x="66" y="1408"/>
      <point x="67" y="1408" type="curve" smooth="yes"/>
      <point x="417" y="1390"/>
      <point x="746" y="1243"/>
      <point x="994" y="994" type="curve" smooth="yes"/>
      <point x="1243" y="746"/>
      <point x="1390" y="417"/>
    </contour>
  </outline>
</glyph>
<glyph name="hdd_o" format="1">
  <advance width="1536"/>
  <unicode hex="F0A0"/>
  <outline>
    <contour>
      <point x="1040" y="320" type="curve" smooth="yes"/>
      <point x="1040" y="276"/>
      <point x="1004" y="240"/>
      <point x="960" y="240" type="curve" smooth="yes"/>
      <point x="916" y="240"/>
      <point x="880" y="276"/>
      <point x="880" y="320" type="curve" smooth="yes"/>
      <point x="880" y="364"/>
      <point x="916" y="400"/>
      <point x="960" y="400" type="curve" smooth="yes"/>
      <point x="1004" y="400"/>
      <point x="1040" y="364"/>
    </contour>
    <contour>
      <point x="1296" y="320" type="curve" smooth="yes"/>
      <point x="1296" y="276"/>
      <point x="1260" y="240"/>
      <point x="1216" y="240" type="curve" smooth="yes"/>
      <point x="1172" y="240"/>
      <point x="1136" y="276"/>
      <point x="1136" y="320" type="curve" smooth="yes"/>
      <point x="1136" y="364"/>
      <point x="1172" y="400"/>
      <point x="1216" y="400" type="curve" smooth="yes"/>
      <point x="1260" y="400"/>
      <point x="1296" y="364"/>
    </contour>
    <contour>
      <point x="1408" y="160" type="curve" smooth="yes"/>
      <point x="1408" y="480" type="line" smooth="yes"/>
      <point x="1408" y="497"/>
      <point x="1393" y="512"/>
      <point x="1376" y="512" type="curve" smooth="yes"/>
      <point x="160" y="512" type="line" smooth="yes"/>
      <point x="143" y="512"/>
      <point x="128" y="497"/>
      <point x="128" y="480" type="curve" smooth="yes"/>
      <point x="128" y="160" type="line" smooth="yes"/>
      <point x="128" y="143"/>
      <point x="143" y="128"/>
      <point x="160" y="128" type="curve" smooth="yes"/>
      <point x="1376" y="128" type="line" smooth="yes"/>
      <point x="1393" y="128"/>
      <point x="1408" y="143"/>
    </contour>
    <contour>
      <point x="178" y="640" type="line"/>
      <point x="1358" y="640" type="line"/>
      <point x="1201" y="1122" type="line" smooth="yes"/>
      <point x="1196" y="1139"/>
      <point x="1177" y="1152"/>
      <point x="1159" y="1152" type="curve" smooth="yes"/>
      <point x="377" y="1152" type="line" smooth="yes"/>
      <point x="359" y="1152"/>
      <point x="340" y="1139"/>
      <point x="335" y="1122" type="curve" smooth="yes"/>
    </contour>
    <contour>
      <point x="1536" y="480" type="curve" smooth="yes"/>
      <point x="1536" y="160" type="line" smooth="yes"/>
      <point x="1536" y="72"/>
      <point x="1464" y="0"/>
      <point x="1376" y="0" type="curve" smooth="yes"/>
      <point x="160" y="0" type="line" smooth="yes"/>
      <point x="72" y="0"/>
      <point x="0" y="72"/>
      <point x="0" y="160" type="curve" smooth="yes"/>
      <point x="0" y="480" type="line" smooth="yes"/>
      <point x="0" y="507"/>
      <point x="8" y="530"/>
      <point x="16" y="555" type="curve" smooth="yes"/>
      <point x="213" y="1161" type="line" smooth="yes"/>
      <point x="236" y="1231"/>
      <point x="303" y="1280"/>
      <point x="377" y="1280" type="curve" smooth="yes"/>
      <point x="1159" y="1280" type="line" smooth="yes"/>
      <point x="1233" y="1280"/>
      <point x="1300" y="1231"/>
      <point x="1323" y="1161" type="curve" smooth="yes"/>
      <point x="1520" y="555" type="line" smooth="yes"/>
      <point x="1528" y="530"/>
      <point x="1536" y="507"/>
    </contour>
  </outline>
</glyph>
<glyph name="bullhorn" format="1">
  <advance width="1792"/>
  <unicode hex="F0A1"/>
  <outline>
    <contour>
      <point x="1664" y="896" type="line"/>
      <point x="1735" y="896"/>
      <point x="1792" y="839"/>
      <point x="1792" y="768" type="curve" smooth="yes"/>
      <point x="1792" y="697"/>
      <point x="1735" y="640"/>
      <point x="1664" y="640" type="curve"/>
      <point x="1664" y="256" type="line" smooth="yes"/>
      <point x="1664" y="186"/>
      <point x="1606" y="128"/>
      <point x="1536" y="128" type="curve"/>
      <point x="1358" y="276"/>
      <point x="1071" y="479"/>
      <point x="724" y="508" type="curve"/>
      <point x="605" y="468"/>
      <point x="564" y="329"/>
      <point x="642" y="249" type="curve"/>
      <point x="572" y="134"/>
      <point x="662" y="53"/>
      <point x="768" y="-30" type="curve"/>
      <point x="706" y="-152"/>
      <point x="448" y="-154"/>
      <point x="356" y="-69" type="curve"/>
      <point x="298" y="109"/>
      <point x="212" y="287"/>
      <point x="282" y="512" type="curve"/>
      <point x="160" y="512" type="line" smooth="yes"/>
      <point x="72" y="512"/>
      <point x="0" y="584"/>
      <point x="0" y="672" type="curve" smooth="yes"/>
      <point x="0" y="864" type="line" smooth="yes"/>
      <point x="0" y="952"/>
      <point x="72" y="1024"/>
      <point x="160" y="1024" type="curve" smooth="yes"/>
      <point x="640" y="1024" type="line" smooth="yes"/>
      <point x="1024" y="1024"/>
      <point x="1344" y="1248"/>
      <point x="1536" y="1408" type="curve"/>
      <point x="1606" y="1408"/>
      <point x="1664" y="1350"/>
      <point x="1664" y="1280" type="curve" smooth="yes"/>
    </contour>
    <contour>
      <point x="1536" y="292" type="curve"/>
      <point x="1536" y="1246" type="line"/>
      <point x="1275" y="1046"/>
      <point x="1022" y="931"/>
      <point x="768" y="903" type="curve"/>
      <point x="768" y="633" type="line"/>
      <point x="1022" y="605"/>
      <point x="1275" y="492"/>
    </contour>
  </outline>
</glyph>
<glyph name="hand_o_right" format="1">
  <advance width="1792"/>
  <unicode hex="F0A4"/>
  <outline>
    <contour>
      <point x="256" y="192" type="curve" smooth="yes"/>
      <point x="256" y="227"/>
      <point x="227" y="256"/>
      <point x="192" y="256" type="curve" smooth="yes"/>
      <point x="157" y="256"/>
      <point x="128" y="227"/>
      <point x="128" y="192" type="curve" smooth="yes"/>
      <point x="128" y="157"/>
      <point x="157" y="128"/>
      <point x="192" y="128" type="curve" smooth="yes"/>
      <point x="227" y="128"/>
      <point x="256" y="157"/>
    </contour>
    <contour>
      <point x="1664" y="768" type="curve" smooth="yes"/>
      <point x="1664" y="836"/>
      <point x="1603" y="896"/>
      <point x="1536" y="896" type="curve" smooth="yes"/>
      <point x="960" y="896" type="line"/>
      <point x="960" y="959"/>
      <point x="1056" y="1024"/>
      <point x="1056" y="1152" type="curve" smooth="yes"/>
      <point x="1056" y="1248"/>
      <point x="981" y="1280"/>
      <point x="896" y="1280" type="curve" smooth="yes"/>
      <point x="868" y="1280"/>
      <point x="817" y="1164"/>
      <point x="806" y="1141" type="curve" smooth="yes"/>
      <point x="794" y="1119"/>
      <point x="782" y="1097"/>
      <point x="769" y="1076" type="curve" smooth="yes"/>
      <point x="736" y="1023"/>
      <point x="698" y="977"/>
      <point x="657" y="931" type="curve" smooth="yes"/>
      <point x="593" y="858"/>
      <point x="522" y="768"/>
      <point x="416" y="768" type="curve" smooth="yes"/>
      <point x="384" y="768" type="line"/>
      <point x="384" y="128" type="line"/>
      <point x="416" y="128" type="line" smooth="yes"/>
      <point x="591" y="128"/>
      <point x="762" y="0"/>
      <point x="956" y="0" type="curve" smooth="yes"/>
      <point x="1068" y="0"/>
      <point x="1145" y="47"/>
      <point x="1145" y="167" type="curve" smooth="yes"/>
      <point x="1145" y="186"/>
      <point x="1143" y="205"/>
      <point x="1140" y="223" type="curve"/>
      <point x="1182" y="246"/>
      <point x="1205" y="303"/>
      <point x="1205" y="349" type="curve" smooth="yes"/>
      <point x="1205" y="373"/>
      <point x="1199" y="397"/>
      <point x="1187" y="418" type="curve"/>
      <point x="1221" y="450"/>
      <point x="1240" y="490"/>
      <point x="1240" y="537" type="curve" smooth="yes"/>
      <point x="1240" y="569"/>
      <point x="1226" y="616"/>
      <point x="1205" y="640" type="curve"/>
      <point x="1536" y="640" type="line" smooth="yes"/>
      <point x="1605" y="640"/>
      <point x="1664" y="699"/>
    </contour>
    <contour>
      <point x="1792" y="769" type="curve" smooth="yes"/>
      <point x="1792" y="629"/>
      <point x="1676" y="512"/>
      <point x="1536" y="512" type="curve" smooth="yes"/>
      <point x="1367" y="512" type="line"/>
      <point x="1364" y="470"/>
      <point x="1351" y="430"/>
      <point x="1330" y="393" type="curve"/>
      <point x="1332" y="379"/>
      <point x="1333" y="364"/>
      <point x="1333" y="350" type="curve" smooth="yes"/>
      <point x="1333" y="286"/>
      <point x="1312" y="222"/>
      <point x="1273" y="172" type="curve"/>
      <point x="1275" y="-17"/>
      <point x="1146" y="-128"/>
      <point x="961" y="-128" type="curve" smooth="yes"/>
      <point x="849" y="-128"/>
      <point x="743" y="-97"/>
      <point x="639" y="-59" type="curve" smooth="yes"/>
      <point x="578" y="-37"/>
      <point x="479" y="0"/>
      <point x="416" y="0" type="curve" smooth="yes"/>
      <point x="128" y="0" type="line" smooth="yes"/>
      <point x="57" y="0"/>
      <point x="0" y="57"/>
      <point x="0" y="128" type="curve" smooth="yes"/>
      <point x="0" y="768" type="line" smooth="yes"/>
      <point x="0" y="839"/>
      <point x="57" y="896"/>
      <point x="128" y="896" type="curve" smooth="yes"/>
      <point x="416" y="896" type="line" smooth="yes"/>
      <point x="464" y="896"/>
      <point x="532" y="982"/>
      <point x="561" y="1015" type="curve" smooth="yes"/>
      <point x="597" y="1056"/>
      <point x="631" y="1097"/>
      <point x="661" y="1144" type="curve" smooth="yes"/>
      <point x="719" y="1237"/>
      <point x="762" y="1408"/>
      <point x="896" y="1408" type="curve" smooth="yes"/>
      <point x="1055" y="1408"/>
      <point x="1184" y="1321"/>
      <point x="1184" y="1152" type="curve" smooth="yes"/>
      <point x="1184" y="1108"/>
      <point x="1177" y="1065"/>
      <point x="1162" y="1024" type="curve"/>
      <point x="1536" y="1024" type="line" smooth="yes"/>
      <point x="1674" y="1024"/>
      <point x="1792" y="907"/>
    </contour>
  </outline>
</glyph>
<glyph name="hand_o_left" format="1">
  <advance width="1792"/>
  <unicode hex="F0A5"/>
  <outline>
    <contour>
      <point x="1376" y="128" type="curve" smooth="yes"/>
      <point x="1408" y="128" type="line"/>
      <point x="1408" y="768" type="line"/>
      <point x="1376" y="768" type="line" smooth="yes"/>
      <point x="1270" y="768"/>
      <point x="1199" y="858"/>
      <point x="1135" y="931" type="curve" smooth="yes"/>
      <point x="1094" y="977"/>
      <point x="1056" y="1023"/>
      <point x="1023" y="1076" type="curve" smooth="yes"/>
      <point x="1009" y="1098"/>
      <point x="997" y="1121"/>
      <point x="985" y="1144" type="curve" smooth="yes"/>
      <point x="973" y="1167"/>
      <point x="923" y="1280"/>
      <point x="896" y="1280" type="curve" smooth="yes"/>
      <point x="811" y="1280"/>
      <point x="736" y="1248"/>
      <point x="736" y="1152" type="curve" smooth="yes"/>
      <point x="736" y="1024"/>
      <point x="832" y="959"/>
      <point x="832" y="896" type="curve"/>
      <point x="256" y="896" type="line" smooth="yes"/>
      <point x="189" y="896"/>
      <point x="128" y="836"/>
      <point x="128" y="768" type="curve" smooth="yes"/>
      <point x="128" y="699"/>
      <point x="187" y="640"/>
      <point x="256" y="640" type="curve" smooth="yes"/>
      <point x="587" y="640" type="line"/>
      <point x="566" y="616"/>
      <point x="552" y="569"/>
      <point x="552" y="537" type="curve" smooth="yes"/>
      <point x="552" y="490"/>
      <point x="571" y="450"/>
      <point x="605" y="418" type="curve"/>
      <point x="593" y="397"/>
      <point x="587" y="373"/>
      <point x="587" y="349" type="curve" smooth="yes"/>
      <point x="587" y="303"/>
      <point x="610" y="246"/>
      <point x="652" y="223" type="curve"/>
      <point x="649" y="205"/>
      <point x="648" y="186"/>
      <point x="648" y="167" type="curve" smooth="yes"/>
      <point x="648" y="49"/>
      <point x="721" y="0"/>
      <point x="832" y="0" type="curve" smooth="yes"/>
      <point x="1031" y="0"/>
      <point x="1201" y="128"/>
    </contour>
    <contour>
      <point x="1664" y="192" type="curve" smooth="yes"/>
      <point x="1664" y="227"/>
      <point x="1635" y="256"/>
      <point x="1600" y="256" type="curve" smooth="yes"/>
      <point x="1565" y="256"/>
      <point x="1536" y="227"/>
      <point x="1536" y="192" type="curve" smooth="yes"/>
      <point x="1536" y="157"/>
      <point x="1565" y="128"/>
      <point x="1600" y="128" type="curve" smooth="yes"/>
      <point x="1635" y="128"/>
      <point x="1664" y="157"/>
    </contour>
    <contour>
      <point x="1792" y="768" type="curve" smooth="yes"/>
      <point x="1792" y="128" type="line" smooth="yes"/>
      <point x="1792" y="57"/>
      <point x="1735" y="0"/>
      <point x="1664" y="0" type="curve" smooth="yes"/>
      <point x="1376" y="0" type="line" smooth="yes"/>
      <point x="1313" y="0"/>
      <point x="1214" y="-37"/>
      <point x="1153" y="-59" type="curve" smooth="yes"/>
      <point x="1051" y="-96"/>
      <point x="946" y="-128"/>
      <point x="836" y="-128" type="curve" smooth="yes"/>
      <point x="652" y="-128"/>
      <point x="518" y="-24"/>
      <point x="519" y="167" type="curve"/>
      <point x="520" y="172" type="line"/>
      <point x="480" y="222"/>
      <point x="459" y="286"/>
      <point x="459" y="350" type="curve" smooth="yes"/>
      <point x="459" y="364"/>
      <point x="460" y="379"/>
      <point x="462" y="393" type="curve"/>
      <point x="441" y="430"/>
      <point x="428" y="470"/>
      <point x="425" y="512" type="curve"/>
      <point x="256" y="512" type="line" smooth="yes"/>
      <point x="116" y="512"/>
      <point x="0" y="629"/>
      <point x="0" y="769" type="curve" smooth="yes"/>
      <point x="0" y="907"/>
      <point x="118" y="1024"/>
      <point x="256" y="1024" type="curve" smooth="yes"/>
      <point x="630" y="1024" type="line"/>
      <point x="615" y="1065"/>
      <point x="608" y="1108"/>
      <point x="608" y="1152" type="curve" smooth="yes"/>
      <point x="608" y="1321"/>
      <point x="737" y="1408"/>
      <point x="896" y="1408" type="curve" smooth="yes"/>
      <point x="1030" y="1408"/>
      <point x="1073" y="1237"/>
      <point x="1131" y="1144" type="curve" smooth="yes"/>
      <point x="1161" y="1097"/>
      <point x="1195" y="1056"/>
      <point x="1231" y="1015" type="curve" smooth="yes"/>
      <point x="1260" y="982"/>
      <point x="1328" y="896"/>
      <point x="1376" y="896" type="curve" smooth="yes"/>
      <point x="1664" y="896" type="line" smooth="yes"/>
      <point x="1735" y="896"/>
      <point x="1792" y="839"/>
    </contour>
  </outline>
</glyph>
<glyph name="arrow_circle_left" format="1">
  <advance width="1536"/>
  <unicode hex="F0A8"/>
  <outline>
    <contour>
      <point x="1280" y="576" type="curve" smooth="yes"/>
      <point x="1280" y="704" type="line" smooth="yes"/>
      <point x="1280" y="739"/>
      <point x="1251" y="768"/>
      <point x="1216" y="768" type="curve" smooth="yes"/>
      <point x="714" y="768" type="line"/>
      <point x="903" y="957" type="line" smooth="yes"/>
      <point x="915" y="969"/>
      <point x="922" y="985"/>
      <point x="922" y="1002" type="curve" smooth="yes"/>
      <point x="922" y="1019"/>
      <point x="915" y="1035"/>
      <point x="903" y="1047" type="curve" smooth="yes"/>
      <point x="812" y="1138" type="line" smooth="yes"/>
      <point x="800" y="1150"/>
      <point x="784" y="1156"/>
      <point x="767" y="1156" type="curve" smooth="yes"/>
      <point x="750" y="1156"/>
      <point x="734" y="1150"/>
      <point x="722" y="1138" type="curve" smooth="yes"/>
      <point x="360" y="776" type="line"/>
      <point x="269" y="685" type="line" smooth="yes"/>
      <point x="257" y="673"/>
      <point x="251" y="657"/>
      <point x="251" y="640" type="curve" smooth="yes"/>
      <point x="251" y="623"/>
      <point x="257" y="607"/>
      <point x="269" y="595" type="curve" smooth="yes"/>
      <point x="360" y="504" type="line"/>
      <point x="722" y="142" type="line" smooth="yes"/>
      <point x="734" y="130"/>
      <point x="750" y="124"/>
      <point x="767" y="124" type="curve" smooth="yes"/>
      <point x="784" y="124"/>
      <point x="800" y="130"/>
      <point x="812" y="142" type="curve" smooth="yes"/>
      <point x="903" y="233" type="line" smooth="yes"/>
      <point x="915" y="245"/>
      <point x="921" y="261"/>
      <point x="921" y="278" type="curve" smooth="yes"/>
      <point x="921" y="295"/>
      <point x="915" y="311"/>
      <point x="903" y="323" type="curve" smooth="yes"/>
      <point x="714" y="512" type="line"/>
      <point x="1216" y="512" type="line" smooth="yes"/>
      <point x="1251" y="512"/>
      <point x="1280" y="541"/>
    </contour>
    <contour>
      <point x="1536" y="640" type="curve" smooth="yes"/>
      <point x="1536" y="216"/>
      <point x="1192" y="-128"/>
      <point x="768" y="-128" type="curve" smooth="yes"/>
      <point x="344" y="-128"/>
      <point x="0" y="216"/>
      <point x="0" y="640" type="curve" smooth="yes"/>
      <point x="0" y="1064"/>
      <point x="344" y="1408"/>
      <point x="768" y="1408" type="curve" smooth="yes"/>
      <point x="1192" y="1408"/>
      <point x="1536" y="1064"/>
    </contour>
  </outline>
</glyph>
<glyph name="arrow_circle_right" format="1">
  <advance width="1536"/>
  <unicode hex="F0A9"/>
  <outline>
    <contour>
      <point x="1285" y="640" type="curve" smooth="yes"/>
      <point x="1285" y="657"/>
      <point x="1279" y="673"/>
      <point x="1267" y="685" type="curve" smooth="yes"/>
      <point x="1176" y="776" type="line"/>
      <point x="814" y="1138" type="line" smooth="yes"/>
      <point x="802" y="1150"/>
      <point x="786" y="1156"/>
      <point x="769" y="1156" type="curve" smooth="yes"/>
      <point x="752" y="1156"/>
      <point x="736" y="1150"/>
      <point x="724" y="1138" type="curve" smooth="yes"/>
      <point x="633" y="1047" type="line" smooth="yes"/>
      <point x="621" y="1035"/>
      <point x="615" y="1019"/>
      <point x="615" y="1002" type="curve" smooth="yes"/>
      <point x="615" y="985"/>
      <point x="621" y="969"/>
      <point x="633" y="957" type="curve" smooth="yes"/>
      <point x="822" y="768" type="line"/>
      <point x="320" y="768" type="line" smooth="yes"/>
      <point x="285" y="768"/>
      <point x="256" y="739"/>
      <point x="256" y="704" type="curve" smooth="yes"/>
      <point x="256" y="576" type="line" smooth="yes"/>
      <point x="256" y="541"/>
      <point x="285" y="512"/>
      <point x="320" y="512" type="curve" smooth="yes"/>
      <point x="822" y="512" type="line"/>
      <point x="633" y="323" type="line" smooth="yes"/>
      <point x="621" y="311"/>
      <point x="614" y="295"/>
      <point x="614" y="278" type="curve" smooth="yes"/>
      <point x="614" y="261"/>
      <point x="621" y="245"/>
      <point x="633" y="233" type="curve" smooth="yes"/>
      <point x="724" y="142" type="line" smooth="yes"/>
      <point x="736" y="130"/>
      <point x="752" y="124"/>
      <point x="769" y="124" type="curve" smooth="yes"/>
      <point x="786" y="124"/>
      <point x="802" y="130"/>
      <point x="814" y="142" type="curve" smooth="yes"/>
      <point x="1176" y="504" type="line"/>
      <point x="1267" y="595" type="line" smooth="yes"/>
      <point x="1279" y="607"/>
      <point x="1285" y="623"/>
    </contour>
    <contour>
      <point x="1536" y="640" type="curve" smooth="yes"/>
      <point x="1536" y="216"/>
      <point x="1192" y="-128"/>
      <point x="768" y="-128" type="curve" smooth="yes"/>
      <point x="344" y="-128"/>
      <point x="0" y="216"/>
      <point x="0" y="640" type="curve" smooth="yes"/>
      <point x="0" y="1064"/>
      <point x="344" y="1408"/>
      <point x="768" y="1408" type="curve" smooth="yes"/>
      <point x="1192" y="1408"/>
      <point x="1536" y="1064"/>
    </contour>
  </outline>
</glyph>
<glyph name="arrow_circle_up" format="1">
  <advance width="1536"/>
  <unicode hex="F0AA"/>
  <outline>
    <contour>
      <point x="1284" y="641" type="curve" smooth="yes"/>
      <point x="1284" y="658"/>
      <point x="1278" y="674"/>
      <point x="1266" y="686" type="curve" smooth="yes"/>
      <point x="904" y="1048" type="line"/>
      <point x="813" y="1139" type="line" smooth="yes"/>
      <point x="801" y="1151"/>
      <point x="785" y="1157"/>
      <point x="768" y="1157" type="curve" smooth="yes"/>
      <point x="751" y="1157"/>
      <point x="735" y="1151"/>
      <point x="723" y="1139" type="curve" smooth="yes"/>
      <point x="632" y="1048" type="line"/>
      <point x="270" y="686" type="line" smooth="yes"/>
      <point x="258" y="674"/>
      <point x="252" y="658"/>
      <point x="252" y="641" type="curve" smooth="yes"/>
      <point x="252" y="624"/>
      <point x="258" y="608"/>
      <point x="270" y="596" type="curve" smooth="yes"/>
      <point x="361" y="505" type="line" smooth="yes"/>
      <point x="373" y="493"/>
      <point x="389" y="487"/>
      <point x="406" y="487" type="curve" smooth="yes"/>
      <point x="423" y="487"/>
      <point x="439" y="493"/>
      <point x="451" y="505" type="curve" smooth="yes"/>
      <point x="640" y="694" type="line"/>
      <point x="640" y="192" type="line" smooth="yes"/>
      <point x="640" y="157"/>
      <point x="669" y="128"/>
      <point x="704" y="128" type="curve" smooth="yes"/>
      <point x="832" y="128" type="line" smooth="yes"/>
      <point x="867" y="128"/>
      <point x="896" y="157"/>
      <point x="896" y="192" type="curve" smooth="yes"/>
      <point x="896" y="694" type="line"/>
      <point x="1085" y="505" type="line" smooth="yes"/>
      <point x="1097" y="493"/>
      <point x="1113" y="486"/>
      <point x="1130" y="486" type="curve" smooth="yes"/>
      <point x="1147" y="486"/>
      <point x="1163" y="493"/>
      <point x="1175" y="505" type="curve" smooth="yes"/>
      <point x="1266" y="596" type="line" smooth="yes"/>
      <point x="1278" y="608"/>
      <point x="1284" y="624"/>
    </contour>
    <contour>
      <point x="1536" y="640" type="curve" smooth="yes"/>
      <point x="1536" y="216"/>
      <point x="1192" y="-128"/>
      <point x="768" y="-128" type="curve" smooth="yes"/>
      <point x="344" y="-128"/>
      <point x="0" y="216"/>
      <point x="0" y="640" type="curve" smooth="yes"/>
      <point x="0" y="1064"/>
      <point x="344" y="1408"/>
      <point x="768" y="1408" type="curve" smooth="yes"/>
      <point x="1192" y="1408"/>
      <point x="1536" y="1064"/>
    </contour>
  </outline>
</glyph>
<glyph name="arrow_circle_down" format="1">
  <advance width="1536"/>
  <unicode hex="F0AB"/>
  <outline>
    <contour>
      <point x="1284" y="639" type="curve" smooth="yes"/>
      <point x="1284" y="656"/>
      <point x="1278" y="672"/>
      <point x="1266" y="684" type="curve" smooth="yes"/>
      <point x="1175" y="775" type="line" smooth="yes"/>
      <point x="1163" y="787"/>
      <point x="1147" y="793"/>
      <point x="1130" y="793" type="curve" smooth="yes"/>
      <point x="1113" y="793"/>
      <point x="1097" y="787"/>
      <point x="1085" y="775" type="curve" smooth="yes"/>
      <point x="896" y="586" type="line"/>
      <point x="896" y="1088" type="line" smooth="yes"/>
      <point x="896" y="1123"/>
      <point x="867" y="1152"/>
      <point x="832" y="1152" type="curve" smooth="yes"/>
      <point x="704" y="1152" type="line" smooth="yes"/>
      <point x="669" y="1152"/>
      <point x="640" y="1123"/>
      <point x="640" y="1088" type="curve" smooth="yes"/>
      <point x="640" y="586" type="line"/>
      <point x="451" y="775" type="line" smooth="yes"/>
      <point x="439" y="787"/>
      <point x="423" y="794"/>
      <point x="406" y="794" type="curve" smooth="yes"/>
      <point x="389" y="794"/>
      <point x="373" y="787"/>
      <point x="361" y="775" type="curve" smooth="yes"/>
      <point x="270" y="684" type="line" smooth="yes"/>
      <point x="258" y="672"/>
      <point x="252" y="656"/>
      <point x="252" y="639" type="curve" smooth="yes"/>
      <point x="252" y="622"/>
      <point x="258" y="606"/>
      <point x="270" y="594" type="curve" smooth="yes"/>
      <point x="632" y="232" type="line"/>
      <point x="723" y="141" type="line" smooth="yes"/>
      <point x="735" y="129"/>
      <point x="751" y="123"/>
      <point x="768" y="123" type="curve" smooth="yes"/>
      <point x="785" y="123"/>
      <point x="801" y="129"/>
      <point x="813" y="141" type="curve" smooth="yes"/>
      <point x="904" y="232" type="line"/>
      <point x="1266" y="594" type="line" smooth="yes"/>
      <point x="1278" y="606"/>
      <point x="1284" y="622"/>
    </contour>
    <contour>
      <point x="1536" y="640" type="curve" smooth="yes"/>
      <point x="1536" y="216"/>
      <point x="1192" y="-128"/>
      <point x="768" y="-128" type="curve" smooth="yes"/>
      <point x="344" y="-128"/>
      <point x="0" y="216"/>
      <point x="0" y="640" type="curve" smooth="yes"/>
      <point x="0" y="1064"/>
      <point x="344" y="1408"/>
      <point x="768" y="1408" type="curve" smooth="yes"/>
      <point x="1192" y="1408"/>
      <point x="1536" y="1064"/>
    </contour>
  </outline>
</glyph>
<glyph name="briefcase" format="1">
  <advance width="1792"/>
  <unicode hex="F0B1"/>
  <outline>
    <contour>
      <point x="640" y="1280" type="line"/>
      <point x="1152" y="1280" type="line"/>
      <point x="1152" y="1408" type="line"/>
      <point x="640" y="1408" type="line"/>
    </contour>
    <contour>
      <point x="1792" y="640" type="line"/>
      <point x="1792" y="160" type="line" smooth="yes"/>
      <point x="1792" y="72"/>
      <point x="1720" y="0"/>
      <point x="1632" y="0" type="curve" smooth="yes"/>
      <point x="160" y="0" type="line" smooth="yes"/>
      <point x="72" y="0"/>
      <point x="0" y="72"/>
      <point x="0" y="160" type="curve" smooth="yes"/>
      <point x="0" y="640" type="line"/>
      <point x="672" y="640" type="line"/>
      <point x="672" y="480" type="line" smooth="yes"/>
      <point x="672" y="445"/>
      <point x="701" y="416"/>
      <point x="736" y="416" type="curve" smooth="yes"/>
      <point x="1056" y="416" type="line" smooth="yes"/>
      <point x="1091" y="416"/>
      <point x="1120" y="445"/>
      <point x="1120" y="480" type="curve" smooth="yes"/>
      <point x="1120" y="640" type="line"/>
    </contour>
    <contour>
      <point x="1024" y="640" type="line"/>
      <point x="1024" y="512" type="line"/>
      <point x="768" y="512" type="line"/>
      <point x="768" y="640" type="line"/>
    </contour>
    <contour>
      <point x="1792" y="1120" type="curve" smooth="yes"/>
      <point x="1792" y="736" type="line"/>
      <point x="0" y="736" type="line"/>
      <point x="0" y="1120" type="line" smooth="yes"/>
      <point x="0" y="1208"/>
      <point x="72" y="1280"/>
      <point x="160" y="1280" type="curve" smooth="yes"/>
      <point x="512" y="1280" type="line"/>
      <point x="512" y="1440" type="line" smooth="yes"/>
      <point x="512" y="1493"/>
      <point x="555" y="1536"/>
      <point x="608" y="1536" type="curve" smooth="yes"/>
      <point x="1184" y="1536" type="line" smooth="yes"/>
      <point x="1237" y="1536"/>
      <point x="1280" y="1493"/>
      <point x="1280" y="1440" type="curve" smooth="yes"/>
      <point x="1280" y="1280" type="line"/>
      <point x="1632" y="1280" type="line" smooth="yes"/>
      <point x="1720" y="1280"/>
      <point x="1792" y="1208"/>
    </contour>
  </outline>
</glyph>
<glyph name="link" format="1">
  <advance width="1664"/>
  <unicode hex="F0C1"/>
  <outline>
    <contour>
      <point x="1456" y="320" type="curve" smooth="yes"/>
      <point x="1456" y="346"/>
      <point x="1446" y="370"/>
      <point x="1428" y="388" type="curve" smooth="yes"/>
      <point x="1220" y="596" type="line" smooth="yes"/>
      <point x="1202" y="614"/>
      <point x="1177" y="624"/>
      <point x="1152" y="624" type="curve" smooth="yes"/>
      <point x="1123" y="624"/>
      <point x="1100" y="613"/>
      <point x="1080" y="592" type="curve"/>
      <point x="1113" y="559"/>
      <point x="1152" y="531"/>
      <point x="1152" y="480" type="curve" smooth="yes"/>
      <point x="1152" y="427"/>
      <point x="1109" y="384"/>
      <point x="1056" y="384" type="curve" smooth="yes"/>
      <point x="1005" y="384"/>
      <point x="977" y="423"/>
      <point x="944" y="456" type="curve"/>
      <point x="923" y="436"/>
      <point x="911" y="413"/>
      <point x="911" y="383" type="curve" smooth="yes"/>
      <point x="911" y="358"/>
      <point x="921" y="333"/>
      <point x="939" y="315" type="curve" smooth="yes"/>
      <point x="1145" y="108" type="line" smooth="yes"/>
      <point x="1163" y="90"/>
      <point x="1188" y="81"/>
      <point x="1213" y="81" type="curve" smooth="yes"/>
      <point x="1238" y="81"/>
      <point x="1263" y="90"/>
      <point x="1281" y="107" type="curve" smooth="yes"/>
      <point x="1428" y="253" type="line" smooth="yes"/>
      <point x="1446" y="271"/>
      <point x="1456" y="295"/>
    </contour>
    <contour>
      <point x="753" y="1025" type="curve" smooth="yes"/>
      <point x="753" y="1050"/>
      <point x="743" y="1075"/>
      <point x="725" y="1093" type="curve" smooth="yes"/>
      <point x="519" y="1300" type="line" smooth="yes"/>
      <point x="501" y="1318"/>
      <point x="476" y="1328"/>
      <point x="451" y="1328" type="curve" smooth="yes"/>
      <point x="426" y="1328"/>
      <point x="401" y="1318"/>
      <point x="383" y="1301" type="curve" smooth="yes"/>
      <point x="236" y="1155" type="line" smooth="yes"/>
      <point x="218" y="1137"/>
      <point x="208" y="1113"/>
      <point x="208" y="1088" type="curve" smooth="yes"/>
      <point x="208" y="1062"/>
      <point x="218" y="1038"/>
      <point x="236" y="1020" type="curve" smooth="yes"/>
      <point x="444" y="812" type="line" smooth="yes"/>
      <point x="462" y="794"/>
      <point x="487" y="785"/>
      <point x="512" y="785" type="curve" smooth="yes"/>
      <point x="541" y="785"/>
      <point x="564" y="795"/>
      <point x="584" y="816" type="curve"/>
      <point x="551" y="849"/>
      <point x="512" y="877"/>
      <point x="512" y="928" type="curve" smooth="yes"/>
      <point x="512" y="981"/>
      <point x="555" y="1024"/>
      <point x="608" y="1024" type="curve" smooth="yes"/>
      <point x="659" y="1024"/>
      <point x="687" y="985"/>
      <point x="720" y="952" type="curve"/>
      <point x="741" y="972"/>
      <point x="753" y="995"/>
    </contour>
    <contour>
      <point x="1648" y="320" type="curve" smooth="yes"/>
      <point x="1648" y="244"/>
      <point x="1617" y="170"/>
      <point x="1563" y="117" type="curve" smooth="yes"/>
      <point x="1416" y="-29" type="line" smooth="yes"/>
      <point x="1362" y="-83"/>
      <point x="1289" y="-112"/>
      <point x="1213" y="-112" type="curve" smooth="yes"/>
      <point x="1136" y="-112"/>
      <point x="1063" y="-82"/>
      <point x="1009" y="-27" type="curve" smooth="yes"/>
      <point x="803" y="180" type="line" smooth="yes"/>
      <point x="749" y="234"/>
      <point x="720" y="307"/>
      <point x="720" y="383" type="curve" smooth="yes"/>
      <point x="720" y="462"/>
      <point x="752" y="537"/>
      <point x="808" y="592" type="curve"/>
      <point x="720" y="680" type="line"/>
      <point x="665" y="624"/>
      <point x="591" y="592"/>
      <point x="512" y="592" type="curve" smooth="yes"/>
      <point x="436" y="592"/>
      <point x="362" y="622"/>
      <point x="308" y="676" type="curve" smooth="yes"/>
      <point x="100" y="884" type="line" smooth="yes"/>
      <point x="45" y="939"/>
      <point x="16" y="1011"/>
      <point x="16" y="1088" type="curve" smooth="yes"/>
      <point x="16" y="1164"/>
      <point x="47" y="1238"/>
      <point x="101" y="1291" type="curve" smooth="yes"/>
      <point x="248" y="1437" type="line" smooth="yes"/>
      <point x="302" y="1491"/>
      <point x="375" y="1520"/>
      <point x="451" y="1520" type="curve" smooth="yes"/>
      <point x="528" y="1520"/>
      <point x="601" y="1490"/>
      <point x="655" y="1435" type="curve" smooth="yes"/>
      <point x="861" y="1228" type="line" smooth="yes"/>
      <point x="915" y="1174"/>
      <point x="944" y="1101"/>
      <point x="944" y="1025" type="curve" smooth="yes"/>
      <point x="944" y="946"/>
      <point x="912" y="871"/>
      <point x="856" y="816" type="curve"/>
      <point x="944" y="728" type="line"/>
      <point x="999" y="784"/>
      <point x="1073" y="816"/>
      <point x="1152" y="816" type="curve" smooth="yes"/>
      <point x="1228" y="816"/>
      <point x="1302" y="786"/>
      <point x="1356" y="732" type="curve" smooth="yes"/>
      <point x="1564" y="524" type="line" smooth="yes"/>
      <point x="1619" y="469"/>
      <point x="1648" y="397"/>
    </contour>
  </outline>
</glyph>
<glyph name="cloud" format="1">
  <advance width="1920"/>
  <unicode hex="F0C2"/>
  <outline>
    <contour>
      <point x="1920" y="384" type="curve" smooth="yes"/>
      <point x="1920" y="172"/>
      <point x="1748" y="0"/>
      <point x="1536" y="0" type="curve" smooth="yes"/>
      <point x="448" y="0" type="line" smooth="yes"/>
      <point x="201" y="0"/>
      <point x="0" y="201"/>
      <point x="0" y="448" type="curve" smooth="yes"/>
      <point x="0" y="627"/>
      <point x="106" y="782"/>
      <point x="258" y="853" type="curve"/>
      <point x="257" y="867"/>
      <point x="256" y="882"/>
      <point x="256" y="896" type="curve" smooth="yes"/>
      <point x="256" y="1179"/>
      <point x="485" y="1408"/>
      <point x="768" y="1408" type="curve" smooth="yes"/>
      <point x="982" y="1408"/>
      <point x="1165" y="1277"/>
      <point x="1242" y="1090" type="curve"/>
      <point x="1286" y="1129"/>
      <point x="1344" y="1152"/>
      <point x="1408" y="1152" type="curve" smooth="yes"/>
      <point x="1549" y="1152"/>
      <point x="1664" y="1037"/>
      <point x="1664" y="896" type="curve" smooth="yes"/>
      <point x="1664" y="845"/>
      <point x="1649" y="798"/>
      <point x="1623" y="758" type="curve"/>
      <point x="1793" y="718"/>
      <point x="1920" y="566"/>
    </contour>
  </outline>
</glyph>
<glyph name="flask" format="1">
  <advance width="1664"/>
  <unicode hex="F0C3"/>
  <outline>
    <contour>
      <point x="1527" y="88" type="line" smooth="yes"/>
      <point x="1602" y="-31"/>
      <point x="1549" y="-128"/>
      <point x="1408" y="-128" type="curve" smooth="yes"/>
      <point x="256" y="-128" type="line" smooth="yes"/>
      <point x="115" y="-128"/>
      <point x="62" y="-31"/>
      <point x="137" y="88" type="curve" smooth="yes"/>
      <point x="640" y="881" type="line"/>
      <point x="640" y="1280" type="line"/>
      <point x="576" y="1280" type="line" smooth="yes"/>
      <point x="541" y="1280"/>
      <point x="512" y="1309"/>
      <point x="512" y="1344" type="curve" smooth="yes"/>
      <point x="512" y="1379"/>
      <point x="541" y="1408"/>
      <point x="576" y="1408" type="curve" smooth="yes"/>
      <point x="1088" y="1408" type="line" smooth="yes"/>
      <point x="1123" y="1408"/>
      <point x="1152" y="1379"/>
      <point x="1152" y="1344" type="curve" smooth="yes"/>
      <point x="1152" y="1309"/>
      <point x="1123" y="1280"/>
      <point x="1088" y="1280" type="curve" smooth="yes"/>
      <point x="1024" y="1280" type="line"/>
      <point x="1024" y="881" type="line"/>
    </contour>
    <contour>
      <point x="748" y="813" type="line"/>
      <point x="476" y="384" type="line"/>
      <point x="1188" y="384" type="line"/>
      <point x="916" y="813" type="line"/>
      <point x="896" y="844" type="line"/>
      <point x="896" y="881" type="line"/>
      <point x="896" y="1280" type="line"/>
      <point x="768" y="1280" type="line"/>
      <point x="768" y="881" type="line"/>
      <point x="768" y="844" type="line"/>
    </contour>
  </outline>
</glyph>
<glyph name="files_o" format="1">
  <advance width="1792"/>
  <unicode hex="F0C5"/>
  <outline>
    <contour>
      <point x="1696" y="1152" type="line" smooth="yes"/>
      <point x="1749" y="1152"/>
      <point x="1792" y="1109"/>
      <point x="1792" y="1056" type="curve" smooth="yes"/>
      <point x="1792" y="-160" type="line" smooth="yes"/>
      <point x="1792" y="-213"/>
      <point x="1749" y="-256"/>
      <point x="1696" y="-256" type="curve" smooth="yes"/>
      <point x="736" y="-256" type="line" smooth="yes"/>
      <point x="683" y="-256"/>
      <point x="640" y="-213"/>
      <point x="640" y="-160" type="curve" smooth="yes"/>
      <point x="640" y="128" type="line"/>
      <point x="96" y="128" type="line" smooth="yes"/>
      <point x="43" y="128"/>
      <point x="0" y="171"/>
      <point x="0" y="224" type="curve" smooth="yes"/>
      <point x="0" y="896" type="line" smooth="yes"/>
      <point x="0" y="949"/>
      <point x="31" y="1023"/>
      <point x="68" y="1060" type="curve" smooth="yes"/>
      <point x="476" y="1468" type="line" smooth="yes"/>
      <point x="513" y="1505"/>
      <point x="587" y="1536"/>
      <point x="640" y="1536" type="curve" smooth="yes"/>
      <point x="1056" y="1536" type="line" smooth="yes"/>
      <point x="1109" y="1536"/>
      <point x="1152" y="1493"/>
      <point x="1152" y="1440" type="curve" smooth="yes"/>
      <point x="1152" y="1112" type="line"/>
      <point x="1191" y="1135"/>
      <point x="1241" y="1152"/>
      <point x="1280" y="1152" type="curve" smooth="yes"/>
    </contour>
    <contour>
      <point x="1152" y="939" type="line"/>
      <point x="853" y="640" type="line"/>
      <point x="1152" y="640" type="line"/>
    </contour>
    <contour>
      <point x="512" y="1323" type="line"/>
      <point x="213" y="1024" type="line"/>
      <point x="512" y="1024" type="line"/>
    </contour>
    <contour>
      <point x="708" y="676" type="curve" smooth="yes"/>
      <point x="1024" y="992" type="line"/>
      <point x="1024" y="1408" type="line"/>
      <point x="640" y="1408" type="line"/>
      <point x="640" y="992" type="line" smooth="yes"/>
      <point x="640" y="939"/>
      <point x="597" y="896"/>
      <point x="544" y="896" type="curve" smooth="yes"/>
      <point x="128" y="896" type="line"/>
      <point x="128" y="256" type="line"/>
      <point x="640" y="256" type="line"/>
      <point x="640" y="512" type="line" smooth="yes"/>
      <point x="640" y="565"/>
      <point x="671" y="639"/>
    </contour>
    <contour>
      <point x="1664" y="-128" type="line"/>
      <point x="1664" y="1024" type="line"/>
      <point x="1280" y="1024" type="line"/>
      <point x="1280" y="608" type="line" smooth="yes"/>
      <point x="1280" y="555"/>
      <point x="1237" y="512"/>
      <point x="1184" y="512" type="curve" smooth="yes"/>
      <point x="768" y="512" type="line"/>
      <point x="768" y="-128" type="line"/>
    </contour>
  </outline>
</glyph>
<glyph name="square" format="1">
  <advance width="1536"/>
  <unicode hex="F0C8"/>
  <outline>
    <contour>
      <point x="1536" y="1120" type="curve" smooth="yes"/>
      <point x="1536" y="160" type="line" smooth="yes"/>
      <point x="1536" y="1"/>
      <point x="1407" y="-128"/>
      <point x="1248" y="-128" type="curve" smooth="yes"/>
      <point x="288" y="-128" type="line" smooth="yes"/>
      <point x="129" y="-128"/>
      <point x="0" y="1"/>
      <point x="0" y="160" type="curve" smooth="yes"/>
      <point x="0" y="1120" type="line" smooth="yes"/>
      <point x="0" y="1279"/>
      <point x="129" y="1408"/>
      <point x="288" y="1408" type="curve" smooth="yes"/>
      <point x="1248" y="1408" type="line" smooth="yes"/>
      <point x="1407" y="1408"/>
      <point x="1536" y="1279"/>
    </contour>
  </outline>
</glyph>
<glyph name="list_ul" format="1">
  <advance width="1792"/>
  <unicode hex="F0CA"/>
  <outline>
    <contour>
      <point x="384" y="128" type="curve" smooth="yes"/>
      <point x="384" y="22"/>
      <point x="298" y="-64"/>
      <point x="192" y="-64" type="curve" smooth="yes"/>
      <point x="86" y="-64"/>
      <point x="0" y="22"/>
      <point x="0" y="128" type="curve" smooth="yes"/>
      <point x="0" y="234"/>
      <point x="86" y="320"/>
      <point x="192" y="320" type="curve" smooth="yes"/>
      <point x="298" y="320"/>
      <point x="384" y="234"/>
    </contour>
    <contour>
      <point x="384" y="640" type="curve" smooth="yes"/>
      <point x="384" y="534"/>
      <point x="298" y="448"/>
      <point x="192" y="448" type="curve" smooth="yes"/>
      <point x="86" y="448"/>
      <point x="0" y="534"/>
      <point x="0" y="640" type="curve" smooth="yes"/>
      <point x="0" y="746"/>
      <point x="86" y="832"/>
      <point x="192" y="832" type="curve" smooth="yes"/>
      <point x="298" y="832"/>
      <point x="384" y="746"/>
    </contour>
    <contour>
      <point x="1792" y="224" type="curve" smooth="yes"/>
      <point x="1792" y="32" type="line" smooth="yes"/>
      <point x="1792" y="15"/>
      <point x="1777" y="0"/>
      <point x="1760" y="0" type="curve" smooth="yes"/>
      <point x="544" y="0" type="line" smooth="yes"/>
      <point x="527" y="0"/>
      <point x="512" y="15"/>
      <point x="512" y="32" type="curve" smooth="yes"/>
      <point x="512" y="224" type="line" smooth="yes"/>
      <point x="512" y="241"/>
      <point x="527" y="256"/>
      <point x="544" y="256" type="curve" smooth="yes"/>
      <point x="1760" y="256" type="line" smooth="yes"/>
      <point x="1777" y="256"/>
      <point x="1792" y="241"/>
    </contour>
    <contour>
      <point x="384" y="1152" type="curve" smooth="yes"/>
      <point x="384" y="1046"/>
      <point x="298" y="960"/>
      <point x="192" y="960" type="curve" smooth="yes"/>
      <point x="86" y="960"/>
      <point x="0" y="1046"/>
      <point x="0" y="1152" type="curve" smooth="yes"/>
      <point x="0" y="1258"/>
      <point x="86" y="1344"/>
      <point x="192" y="1344" type="curve" smooth="yes"/>
      <point x="298" y="1344"/>
      <point x="384" y="1258"/>
    </contour>
    <contour>
      <point x="1792" y="736" type="curve" smooth="yes"/>
      <point x="1792" y="544" type="line" smooth="yes"/>
      <point x="1792" y="527"/>
      <point x="1777" y="512"/>
      <point x="1760" y="512" type="curve" smooth="yes"/>
      <point x="544" y="512" type="line" smooth="yes"/>
      <point x="527" y="512"/>
      <point x="512" y="527"/>
      <point x="512" y="544" type="curve" smooth="yes"/>
      <point x="512" y="736" type="line" smooth="yes"/>
      <point x="512" y="753"/>
      <point x="527" y="768"/>
      <point x="544" y="768" type="curve" smooth="yes"/>
      <point x="1760" y="768" type="line" smooth="yes"/>
      <point x="1777" y="768"/>
      <point x="1792" y="753"/>
    </contour>
    <contour>
      <point x="1792" y="1248" type="curve" smooth="yes"/>
      <point x="1792" y="1056" type="line" smooth="yes"/>
      <point x="1792" y="1039"/>
      <point x="1777" y="1024"/>
      <point x="1760" y="1024" type="curve" smooth="yes"/>
      <point x="544" y="1024" type="line" smooth="yes"/>
      <point x="527" y="1024"/>
      <point x="512" y="1039"/>
      <point x="512" y="1056" type="curve" smooth="yes"/>
      <point x="512" y="1248" type="line" smooth="yes"/>
      <point x="512" y="1265"/>
      <point x="527" y="1280"/>
      <point x="544" y="1280" type="curve" smooth="yes"/>
      <point x="1760" y="1280" type="line" smooth="yes"/>
      <point x="1777" y="1280"/>
      <point x="1792" y="1265"/>
    </contour>
  </outline>
</glyph>
